<?xml version="1.0" encoding="UTF-8"?> <svg xmlns="http://www.w3.org/2000/svg" width="152" height="165" viewBox="0 0 152 165" fill="none"> <path d="M117.663 0C122.671 2.1403 127.637 4.2806 132.645 6.46371C137.782 8.73243 139.708 13.6551 137.439 18.7918C135.342 23.5433 133.63 28.466 130.933 32.875C128.407 36.9416 126.524 41.265 124.598 45.5456C120.017 55.6906 121.344 65.0652 128.45 73.6264C132.174 78.121 135.941 82.53 139.58 87.0675C140.864 88.6941 141.763 90.5775 142.919 92.2898C143.218 92.7606 143.86 93.1887 144.417 93.2743C145.358 93.4456 146.343 93.2743 147.285 93.3171C149.982 93.4884 151.865 95.3718 151.951 98.0686C152.036 100.937 151.993 103.847 151.951 106.715C151.908 109.541 150.024 111.424 147.199 111.51C146.3 111.553 145.401 111.51 144.417 111.51C144.417 115.234 144.417 118.744 144.417 122.511C145.187 122.511 145.958 122.511 146.728 122.511C150.11 122.554 151.908 124.437 151.951 127.862C151.951 130.387 151.951 132.87 151.951 135.395C151.951 138.863 150.11 140.703 146.643 140.789C145.958 140.789 145.273 140.789 144.331 140.789C144.331 143.272 144.374 145.583 144.331 147.938C144.16 155.471 139.237 161.678 131.917 163.519C130.847 163.776 129.691 163.947 128.621 163.99C124.897 164.033 121.13 164.033 117.406 164.033C115.694 164.033 114.581 163.048 114.581 161.636C114.581 160.223 115.694 159.281 117.406 159.238C120.831 159.238 124.255 159.238 127.68 159.238C134.571 159.196 139.494 154.316 139.537 147.424C139.58 145.284 139.537 143.186 139.537 140.832C138.039 140.832 136.669 140.875 135.299 140.832C131.832 140.746 129.991 138.906 129.948 135.438C129.948 132.87 129.906 130.302 129.948 127.733C129.991 124.437 131.875 122.596 135.171 122.554C136.54 122.554 137.91 122.554 139.408 122.554C139.408 118.872 139.408 115.319 139.408 111.552C137.996 111.552 136.626 111.552 135.256 111.552C131.789 111.51 129.948 109.669 129.948 106.159C129.948 103.633 129.906 101.151 129.948 98.6251C129.991 95.1578 131.875 93.3171 135.342 93.2743C136.155 93.2743 136.926 93.2743 138.124 93.2743C137.311 92.0758 136.712 91.0912 135.984 90.2351C132.345 85.8261 128.707 81.4171 125.026 77.0508C116.379 66.7346 114.752 55.4766 120.274 43.1913C120.659 42.3352 121.045 41.4362 121.558 40.3233C117.62 41.3506 113.896 41.0938 110.343 39.51C106.833 37.9261 104.222 35.315 102.424 31.9333C102.253 32.0189 102.124 32.0617 102.039 32.1473C97.2445 38.8251 90.6952 41.6931 82.562 41.479C77.9818 41.3506 73.3587 41.3934 68.7785 41.479C60.9022 41.6075 54.5669 38.6538 49.901 32.2329C49.8154 32.1045 49.6442 32.0189 49.5158 31.9333C45.1924 39.2531 38.8999 42.0783 30.4243 40.4517C31.1948 42.3352 32.0509 44.0902 32.693 45.8881C36.46 56.2471 35.0474 65.9213 28.6264 74.8249C28.4552 75.0818 19.8512 85.398 19.6372 85.5692C18.5242 86.5538 17.1116 86.511 16.2127 85.3552C15.5278 84.4991 15.5278 83.643 15.9131 82.8297C16.0415 82.5728 24.6027 72.2138 24.7739 71.9141C27.0854 68.9177 28.6264 65.536 29.397 61.8119C30.4671 56.718 29.9962 51.7097 27.9416 46.9154C26.4005 43.2769 25.2876 39.3387 23.0617 36.1711C19.2947 30.7347 17.2829 24.5279 14.4577 18.7062C12.6598 15.0249 13.3875 11.1296 16.0843 8.5184C16.9832 7.66228 18.0962 6.93458 19.2519 6.4209C24.303 4.2806 29.3113 2.1403 34.3196 0C35.3898 0 36.4599 0 37.5301 0C41.4254 1.07015 43.6514 3.72412 45.064 7.40544C46.3909 10.8727 48.1032 14.2116 49.5586 17.6361C50.1579 19.0059 50.5003 20.4613 50.9712 21.8739C51.6561 23.8858 52.0413 26.0261 53.0259 27.8667C55.6799 32.9178 60.0033 36.1283 65.6965 36.4707C72.5454 36.856 79.48 36.7704 86.329 36.5135C93.0067 36.2139 99.5132 30.0926 100.926 23.6717C101.525 20.8465 102.51 18.0641 103.537 15.3246C104.564 12.6278 105.977 10.1022 106.961 7.40544C108.331 3.72412 110.6 1.07015 114.453 0C115.523 0 116.593 0 117.663 0ZM117.492 36.1711C121.43 35.9571 125.068 34.1164 127.08 30.007C129.263 25.5552 131.19 20.975 133.159 16.4375C134.1 14.2544 133.33 12.1141 131.232 11.1724C126.695 9.07488 122.072 7.06299 117.449 5.13672C115.394 4.2806 113.297 5.13672 112.355 7.19141C110.258 11.7288 108.117 16.2663 106.319 20.975C103.537 28.252 109.102 36.1283 117.492 36.1711ZM34.4481 36.1711C42.838 36.2139 48.4884 28.2092 45.6204 20.8465C43.8226 16.2235 41.7251 11.7288 39.6276 7.23422C38.6431 5.05111 36.5027 4.2378 34.234 5.17953C29.7822 7.063 25.3304 9.03207 20.9214 11.0439C18.6526 12.0713 17.8393 14.2116 18.8239 16.5231C20.7501 21.0178 22.6764 25.5552 24.8167 29.9642C26.8286 34.0308 30.4243 35.9143 34.4481 36.1711ZM147.028 106.715C147.028 103.847 147.028 101.108 147.028 98.2826C142.919 98.2826 138.895 98.2826 134.828 98.2826C134.828 101.151 134.828 103.89 134.828 106.715C138.895 106.715 142.876 106.715 147.028 106.715ZM147.028 135.952C147.028 133.041 147.028 130.302 147.028 127.391C143.175 127.391 139.366 127.391 135.599 127.434C135.299 127.434 134.785 127.862 134.785 128.118C134.743 130.687 134.743 133.298 134.743 135.952C138.938 135.952 142.919 135.952 147.028 135.952Z" fill="#B79950"></path> <path d="M7.65159 140.874C6.58143 140.874 5.76811 140.917 4.91199 140.874C1.91557 140.703 0.0749105 138.82 0.0321045 135.823C-0.0107015 133.169 -0.0107015 130.473 0.0321045 127.819C0.0749105 124.565 1.91557 122.682 5.21164 122.639C5.93934 122.639 6.66704 122.639 7.52316 122.639C7.52316 118.915 7.52316 115.405 7.52316 111.638C6.53862 111.638 5.5969 111.681 4.65516 111.638C2.044 111.509 0.117719 109.669 0.0749132 107.015C-0.0106989 104.018 -0.0106989 101.022 0.0749132 98.0256C0.160525 95.3716 2.1296 93.2313 4.82638 93.4453C7.69439 93.6593 8.97857 92.5892 10.3484 90.1492C12.2746 86.8104 15.0142 83.9424 17.497 80.946C18.3959 79.8758 19.8085 79.833 20.793 80.6035C21.8204 81.4596 22.0344 82.8294 21.0927 84.028C19.4232 86.1255 17.6682 88.1374 15.9988 90.2349C15.2711 91.1338 14.6718 92.1183 13.7728 93.3597C15.1426 93.3597 16.0844 93.3169 17.0261 93.3597C20.0225 93.4453 21.9488 95.286 21.9916 98.2824C22.0772 101.108 22.0772 103.933 21.9916 106.758C21.906 109.669 20.0225 111.509 17.1117 111.595C15.6135 111.638 14.1581 111.595 12.5315 111.595C12.5315 115.319 12.5315 118.829 12.5315 122.596C13.9869 122.596 15.3995 122.596 16.8549 122.596C20.0653 122.639 21.9488 124.48 21.9916 127.647C22.0344 130.387 22.0344 133.084 21.9916 135.823C21.9488 138.863 20.1081 140.703 17.0689 140.832C15.5707 140.917 14.1153 140.832 12.2318 140.832C12.4459 144.299 12.2746 147.638 12.8739 150.805C13.8156 155.514 18.3531 158.939 23.1902 159.195C23.8751 159.238 24.56 159.238 25.2877 159.238C51.6134 159.238 77.9391 159.238 104.265 159.238C104.864 159.238 121.901 159.153 122.457 159.281C123.699 159.538 124.426 160.308 124.426 161.635C124.426 162.962 123.656 163.69 122.457 163.99C121.986 164.075 105.035 164.032 104.564 164.032C77.8963 164.032 51.2709 164.032 24.6028 164.032C14.5862 164.032 7.60877 157.055 7.56597 147.038C7.65158 145.112 7.65159 143.143 7.65159 140.874ZM4.9548 106.715C9.10698 106.715 13.0879 106.715 17.1117 106.715C17.1117 103.847 17.1117 101.065 17.1117 98.2396C13.0023 98.2396 9.02137 98.2396 4.9548 98.2396C4.9548 101.065 4.9548 103.847 4.9548 106.715ZM17.1545 135.952C17.1545 133.084 17.1545 130.344 17.1545 127.519C13.0451 127.519 9.02137 127.519 4.9548 127.519C4.9548 130.387 4.9548 133.126 4.9548 135.952C9.02137 135.952 13.0451 135.952 17.1545 135.952Z" fill="#B79950"></path> <path d="M75.9699 111.595C65.2256 111.595 54.5241 111.595 43.7798 111.595C39.6704 111.595 38.1722 110.097 38.1722 105.988C38.1722 103.591 38.1722 101.194 38.1722 98.7964C38.1722 94.9439 39.756 93.3173 43.6086 93.3173C63.9414 93.3173 84.2743 93.3173 104.607 93.3173C106.105 93.3173 107.604 93.2745 109.102 93.3173C111.97 93.4029 113.682 95.1151 113.725 97.9831C113.768 100.808 113.768 103.634 113.725 106.459C113.725 109.926 112.098 111.553 108.631 111.553C97.7582 111.595 86.8855 111.595 75.9699 111.595ZM43.0949 106.673C65.0544 106.673 86.9711 106.673 108.802 106.673C108.802 103.762 108.802 101.022 108.802 98.2828C86.8427 98.2828 64.9688 98.2828 43.0949 98.2828C43.0949 101.108 43.0949 103.89 43.0949 106.673Z" fill="#B79950"></path> <path d="M76.0128 122.596C86.7143 122.596 97.373 122.596 108.075 122.596C112.312 122.596 113.768 124.051 113.768 128.246C113.768 130.686 113.768 133.169 113.768 135.609C113.768 139.162 112.141 140.789 108.545 140.831C105.078 140.874 101.611 140.831 98.1435 140.831C80.1222 140.831 62.1436 140.831 44.1223 140.831C39.6277 140.831 38.2151 139.419 38.2151 134.881C38.2151 132.484 38.2151 130.087 38.2151 127.69C38.2151 124.266 39.8845 122.596 43.3518 122.596C54.2245 122.596 65.1401 122.596 76.0128 122.596ZM43.095 135.909C65.0544 135.909 86.9283 135.909 108.802 135.909C108.802 132.998 108.802 130.258 108.802 127.519C86.8427 127.519 65.0116 127.519 43.095 127.519C43.095 130.344 43.095 133.084 43.095 135.909Z" fill="#B79950"></path> <path d="M54.3101 56.7611C55.5942 57.1035 56.8784 57.3603 58.1198 57.8312C63.6846 59.8431 69.2066 61.9406 74.7713 63.9525C75.499 64.2093 76.4408 64.2093 77.1685 63.9525C83.0757 61.8122 88.9829 59.5863 94.8902 57.446C98.5287 56.119 102.424 57.4459 104.522 60.528C106.576 63.5672 106.362 67.7622 103.837 70.459C102.981 71.3579 101.91 72.214 100.755 72.6421C93.4348 75.4245 86.0721 78.0784 78.7095 80.818C76.826 81.5029 74.9426 81.4601 73.0591 80.7752C65.8677 78.1213 58.6335 75.5101 51.4421 72.7705C47.4611 71.2723 45.4064 67.5054 46.1769 63.4388C46.9046 59.7147 50.3719 56.9323 54.3101 56.7611ZM50.8856 65.0226C50.8428 66.6492 51.6561 67.7194 53.5395 68.4043C60.4741 70.9727 67.4515 73.5838 74.4289 76.0666C75.285 76.3662 76.398 76.4946 77.2113 76.195C84.4883 73.5838 91.7653 70.9299 98.9567 68.1475C99.8557 67.805 100.797 66.5636 101.011 65.5791C101.611 62.8823 99.0852 61.0845 96.26 62.1118C90.8236 64.0809 85.3872 65.9215 80.0793 68.1475C77.2113 69.346 74.7713 69.2176 71.9889 68.1047C66.6382 65.9644 61.2018 64.0381 55.8083 62.1118C53.1543 61.1701 50.9284 62.5827 50.8856 65.0226Z" fill="#B79950"></path> </svg> 