<svg width="478" height="512" viewBox="0 0 478 512" fill="none" xmlns="http://www.w3.org/2000/svg">
<path d="M477.933 254.293C477.928 253.44 477.906 252.593 477.895 251.742C477.882 250.577 477.868 249.413 477.843 248.252C477.837 247.965 477.827 247.679 477.82 247.392C476.191 177.54 454.831 114.551 421.408 69.612C391.697 29.452 352.444 3.557 308.973 0C308.12 0 308.12 0 307.266 0C306.656 0.054 306.051 0.133 305.443 0.198C303.216 0.08 300.981 0 298.733 0H179.267C134.884 0 94.282 23.172 62.985 61.415C62.095 62.176 61.359 63.091 60.804 64.125C23.563 111.126 0.0670166 179.809 0.0670166 256C0.0670166 396.8 80.28 512 179.267 512H298.734C301.168 512 303.586 511.91 305.996 511.772C306.704 511.849 307.41 511.937 308.12 512C390.04 505.173 458.307 421.547 474.52 306.347C474.614 305.456 474.706 304.553 474.8 303.656C476.849 288.203 477.933 272.276 477.933 256V254.293ZM195.7 390.352C195.519 389.361 195.14 388.428 194.59 387.599C179.469 349.829 170.733 304.603 170.733 256.001C170.733 130.02 230.217 26.675 306.015 17.32C392.229 22.958 460.867 128.167 460.867 256C460.867 383.841 392.221 489.055 306 494.682C259.66 489.027 219.892 448.995 195.7 390.352ZM27.752 340.982C29.617 340.399 31.482 339.163 33.347 337.92L44.44 320.853L62.36 338.773C65.773 342.186 70.893 342.186 74.307 338.773L93.934 319.146L114.414 339.626C117.827 343.039 122.947 343.039 126.361 339.626L146.841 319.146L160.864 331.693C163.839 346.917 167.687 361.539 172.328 375.409L157.082 367.786C152.815 365.226 148.549 366.933 145.989 370.346L134.896 387.413L116.976 369.493C113.563 366.08 108.443 366.08 105.029 369.493L85.4 389.12L65.773 369.493C62.36 366.08 57.24 366.08 53.826 369.493L41.506 381.813C36.082 368.957 31.463 355.296 27.752 340.982ZM17.17 260.2L38.467 272.214C41.88 273.921 46.147 273.067 48.707 270.507L68.334 250.88L88.814 270.507C92.227 273.92 97.347 273.92 100.761 270.507L121.241 250.027L153.904 269.777C154.315 282.049 155.265 294.097 156.73 305.854L150.254 300.374C146.841 297.814 141.721 298.667 139.161 301.227L119.534 320.854L99.907 301.227C96.494 297.814 91.374 297.814 87.96 301.227L68.333 320.854L48.706 301.227C46.999 299.52 44.439 298.667 41.879 298.667C39.319 298.667 36.759 300.374 35.052 302.08L23.065 320.06C19.449 300.945 17.413 280.882 17.17 260.2ZM45.045 122.146L64.066 134.827C66.626 136.534 70.893 136.534 73.453 134.827L93.933 121.174L115.266 135.681C117.826 137.388 122.093 137.388 124.653 135.681L145.986 121.174L173.177 134.381C168.69 147.454 164.904 161.197 161.897 175.486L151.105 164.694C147.692 161.281 142.572 161.281 139.158 164.694L119.531 184.321L99.904 164.694C96.491 161.281 91.371 161.281 87.957 164.694L68.333 184.32L48.706 164.693C46.999 162.986 45.293 162.133 42.733 162.133C40.173 162.133 38.466 162.986 36.76 164.693L26.724 175.076C31.343 156.233 37.525 138.473 45.045 122.146ZM72.522 76.324L126.36 60.587L148.547 75.094C151.107 76.801 155.374 76.801 157.934 75.094L179.267 60.587L203.068 72.148C193.915 86.165 185.813 101.854 178.951 118.883L147.694 103.254C145.134 102.401 141.721 102.401 139.161 104.107L118.681 117.76L98.201 104.107C95.641 102.4 91.374 102.4 88.814 104.107L68.334 117.76L52.776 106.74C58.745 95.773 65.353 85.59 72.522 76.324ZM123.8 232.107C120.387 230.4 116.12 231.254 113.56 233.814L93.933 253.441L74.306 233.814C70.893 230.401 65.773 230.401 62.359 233.814L41.026 255.147L17.438 241.566C17.958 228.805 19.16 216.308 20.995 204.151C22.054 203.724 23.112 203.088 23.96 202.241L42.733 182.614L62.36 202.24C65.773 205.653 70.893 205.653 74.307 202.24L93.934 182.613L113.561 202.24C116.974 205.653 122.094 205.653 125.508 202.24L145.135 182.613L156.228 193.706C156.864 194.342 157.56 194.859 158.292 195.258C155.559 212.906 153.988 231.243 153.714 250.054L123.8 232.107ZM257.35 17.067C240.996 27.12 225.958 41.213 212.699 58.53L182.68 43.52C180.12 42.667 176.707 42.667 174.147 44.373L153.667 58.026L133.187 44.373C130.627 42.666 128.067 42.666 125.507 42.666L95.936 51.115C120.283 29.52 148.785 17.066 179.267 17.066L257.35 17.067ZM49.05 398.163L59.8 387.413L79.427 407.04C82.84 410.453 87.96 410.453 91.374 407.04L111 387.413L130.627 407.04C132.334 408.747 134.04 409.6 136.6 409.6C140.013 409.6 142.573 407.893 143.427 405.333L156.227 385.706L180.873 398.029C187.291 413.183 194.712 427.204 203.002 439.856L186.946 450.56L166.466 436.907C163.906 435.2 159.639 435.2 157.079 436.907L136.6 450.56L116.12 436.907C113.56 435.2 109.293 435.2 106.733 436.907L85.645 450.966C71.639 436.31 59.279 418.464 49.05 398.163ZM179.267 494.933C149.63 494.933 121.864 483.161 97.969 462.661L111 453.973L132.333 467.626C134.893 469.333 139.16 469.333 141.72 467.626L162.2 453.973L181.827 468.48C184.387 470.187 188.654 470.187 191.214 468.48L213.029 453.937C226.274 471.055 241.296 484.978 257.646 494.934L179.267 494.933Z" fill="#B79950"/>
<path d="M315.8 68.267C271.619 68.267 234.58 117.701 220.023 188.598C219.937 189.014 219.851 189.431 219.767 189.848C219.377 191.791 219.001 193.747 218.644 195.72C218.522 196.396 218.407 197.076 218.289 197.754C218.048 199.141 217.816 200.535 217.592 201.936C217.442 202.871 217.293 203.806 217.152 204.746C216.916 206.311 216.692 207.886 216.478 209.469C216.349 210.422 216.224 211.377 216.103 212.333C215.923 213.756 215.753 215.187 215.59 216.624C215.459 217.783 215.335 218.945 215.216 220.11C215.082 221.417 214.954 222.729 214.835 224.047C214.757 224.906 214.678 225.765 214.606 226.627C214.448 228.53 214.305 230.443 214.178 232.366C214.131 233.082 214.09 233.801 214.047 234.519C213.945 236.214 213.855 237.917 213.777 239.627C213.755 240.124 213.727 240.618 213.707 241.116C213.618 243.256 213.554 245.41 213.504 247.572C213.491 248.126 213.481 248.679 213.47 249.234C213.428 251.48 213.399 253.734 213.399 256.001C213.399 258.269 213.428 260.522 213.47 262.768C213.48 263.322 213.491 263.876 213.504 264.43C213.554 266.592 213.619 268.745 213.707 270.886C213.727 271.383 213.755 271.878 213.777 272.375C213.855 274.085 213.945 275.787 214.047 277.482C214.09 278.2 214.131 278.919 214.178 279.636C214.306 281.559 214.448 283.472 214.606 285.375C214.677 286.237 214.757 287.096 214.835 287.956C214.955 289.273 215.082 290.584 215.216 291.891C215.335 293.056 215.459 294.219 215.59 295.379C215.753 296.815 215.923 298.246 216.103 299.669C216.224 300.626 216.349 301.58 216.478 302.533C216.692 304.115 216.916 305.689 217.152 307.253C217.294 308.194 217.443 309.13 217.593 310.066C217.817 311.467 218.049 312.86 218.289 314.246C218.407 314.925 218.522 315.605 218.644 316.281C219 318.254 219.376 320.21 219.766 322.152C219.85 322.57 219.936 322.987 220.022 323.404C234.578 394.301 271.618 443.734 315.799 443.734C372.972 443.734 418.199 360.961 418.199 256.001C418.199 151.041 372.973 68.267 315.8 68.267ZM231.603 282.989C231.559 282.462 231.51 281.937 231.468 281.409C231.406 280.626 231.353 279.839 231.296 279.053C231.217 277.946 231.142 276.838 231.075 275.726C231.037 275.098 230.997 274.47 230.963 273.841C230.868 272.107 230.782 270.369 230.714 268.623C230.702 268.306 230.694 267.986 230.682 267.669C230.627 266.127 230.583 264.58 230.549 263.029C230.538 262.531 230.528 262.034 230.519 261.535C230.488 259.695 230.466 257.852 230.466 256.001C230.466 254.389 230.485 252.781 230.505 251.174C230.979 219.344 236.119 189.302 244.565 163.754C257.096 185.132 264.6 218.895 264.6 256C264.6 293.105 257.096 326.868 244.566 348.247C238.11 328.718 233.587 306.563 231.603 282.989ZM315.8 426.667C290.701 426.667 267.629 403.371 251.82 367.267C269.894 345.057 281.666 302.742 281.666 256C281.666 209.258 269.893 166.943 251.82 144.733C267.628 108.629 290.7 85.333 315.8 85.333C361.88 85.333 401.133 163.84 401.133 256C401.133 348.16 361.88 426.667 315.8 426.667Z" fill="#B79950"/>
</svg>
