<!-- Generated by IcoMoon.io -->
<svg version="1.1" xmlns="http://www.w3.org/2000/svg" width="1024" height="1024" viewBox="0 0 1024 1024">
<title></title>
<g id="icomoon-ignore">
</g>
<path fill="none" stroke-linejoin="miter" stroke-linecap="butt" stroke-miterlimit="10" stroke-width="21.8803" stroke="#000" d="M13.566 274.817v472.616c0 144.848 121.217 263.439 269.128 263.439h461.237c147.911 0 269.128-118.591 269.128-263.439v-472.616c0-144.848-121.217-263.439-269.128-263.439h-461.237c-148.349-0.438-269.128 118.154-269.128 263.439z"></path>
<path fill="#000" d="M652.472 216.615h-278.318c-85.333 0-154.913 71.33-154.913 158.414v271.754c0 87.084 70.017 158.414 154.913 158.414h278.318c85.333 0 154.913-71.33 154.913-158.414v-271.754c0-87.084-69.579-158.414-154.913-158.414zM754.872 642.844c0 60.39-48.137 109.839-107.214 109.839h-268.253c-59.077 0-107.214-49.45-107.214-109.839v-263.877c0-60.39 48.137-109.839 107.214-109.839h268.253c59.077 0 107.214 49.45 107.214 109.839v263.877z"></path>
<path fill="#000" d="M513.313 359.714c-81.832 0-147.911 67.829-147.911 150.973 0 83.583 66.079 150.974 147.911 150.974s147.911-67.829 147.911-150.974c0-83.144-66.079-150.973-147.911-150.973zM513.313 608.711c-52.513 0-95.398-43.761-95.398-97.586s42.885-97.585 95.398-97.585c52.513 0 95.398 43.76 95.398 97.585s-42.885 97.586-95.398 97.586z"></path>
<path fill="#000" d="M669.101 385.97c18.371 0 33.258-15.282 33.258-34.133s-14.887-34.133-33.258-34.133c-18.366 0-33.258 15.282-33.258 34.133s14.892 34.133 33.258 34.133z"></path>
</svg>
