
<svg version="1.1" xmlns="http://www.w3.org/2000/svg" width="60" height="60" viewBox="0 0 1024 1024">
<title>1-1-1-1</title>
<g id="icomoon-ignore">
</g>
<path fill="#000" d="M574.72 903.68h-122.88l-7.68-74.24c-38.4-7.68-74.24-23.040-104.96-43.52l-56.32 46.080-87.040-87.040 46.080-56.32c-20.48-33.28-35.84-69.12-43.52-104.96l-74.24-7.68v-122.88l74.24-7.68c7.68-38.4 23.040-74.24 43.52-104.96l-48.64-61.44 87.040-87.040 56.32 46.080c33.28-20.48 69.12-35.84 104.96-43.52l7.68-74.24h122.88l7.68 74.24c38.4 7.68 74.24 23.040 104.96 43.52l56.32-46.080 87.040 87.040-46.080 56.32c20.48 33.28 35.84 69.12 43.52 104.96l74.24 7.68v122.88l-74.24 7.68c-7.68 38.4-23.040 74.24-43.52 104.96l46.080 56.32-87.040 87.040-56.32-46.080c-33.28 20.48-69.12 35.84-104.96 43.52l-5.12 79.36zM485.12 865.28h53.76l7.68-66.56 15.36-2.56c43.52-7.68 81.92-23.040 117.76-48.64l12.8-7.68 53.76 43.52 38.4-38.4-43.52-53.76 7.68-12.8c25.6-35.84 40.96-74.24 48.64-117.76l2.56-15.36 66.56-7.68v-53.76l-66.56-7.68-5.12-12.8c-7.68-43.52-23.040-81.92-48.64-117.76l-7.68-12.8 43.52-51.2-38.4-38.4-53.76 43.52-12.8-7.68c-35.84-25.6-74.24-40.96-117.76-48.64l-15.36-2.56-7.68-66.56h-53.76l-7.68 66.56-10.24 2.56c-43.52 7.68-81.92 23.040-117.76 48.64l-10.24 7.68-53.76-43.52-38.4 38.4 43.52 53.76-7.68 12.8c-25.6 35.84-40.96 74.24-48.64 117.76l-2.56 15.36-66.56 7.68v53.76l66.56 7.68 2.56 10.24c7.68 43.52 23.040 81.92 48.64 117.76l7.68 12.8-43.52 51.2 38.4 38.4 53.76-43.52 12.8 7.68c35.84 25.6 74.24 40.96 117.76 48.64l15.36 2.56 2.56 69.12z"></path>
<path fill="#000" d="M513.28 701.44c-104.96 0-189.44-84.48-189.44-189.44s84.48-189.44 189.44-189.44c104.96 0 189.44 84.48 189.44 189.44s-84.48 189.44-189.44 189.44zM513.28 360.96c-84.48 0-151.040 66.56-151.040 151.040s66.56 151.040 151.040 151.040c84.48 0 151.040-66.56 151.040-151.040s-66.56-151.040-151.040-151.040z"></path>
</svg>
