<svg aria-hidden="true" style="position: absolute; width: 0; height: 0; overflow: hidden;" version="1.1" xmlns="http://www.w3.org/2000/svg" xmlns:xlink="http://www.w3.org/1999/xlink">
<defs>
<symbol id="punch" viewBox="0 0 32 32">
<path fill="#646a4c" style="fill: var(--color1, #646a4c)" d="M28.782 17.331c0 6.166-4.998 11.164-11.164 11.164s-11.164-4.998-11.164-11.164 4.998-11.164 11.164-11.164c6.166 0 11.164 4.998 11.164 11.164z"></path>
<path fill="#2b2a29" style="fill: var(--color2, #2b2a29)" d="M17.618 6.574c-5.932 0-10.757 4.825-10.757 10.757s4.825 10.757 10.757 10.757c5.931 0 10.757-4.825 10.757-10.757s-4.826-10.757-10.757-10.757zM17.618 28.902c-6.38 0-11.571-5.191-11.571-11.571s5.19-11.571 11.571-11.571c6.38 0 11.571 5.191 11.571 11.571s-5.191 11.571-11.571 11.571z"></path>
<path fill="#2b2a29" style="fill: var(--color2, #2b2a29)" d="M8.058 9.938c0.022 0.002 0.049-0.007 0.063-0.014 0.004-0.002 0.009-0.006 0.013-0.008 0.133-0.046 0.259-0.129 0.322-0.255 0.059-0.118-0.010-0.253-0.062-0.36-0.005-0.011-0.035 0.001-0.071 0.022 0.012-0.018 0.017-0.034 0.009-0.044-0.025-0.029-0.115 0.051-0.131 0.064-0.009 0.008-0.018 0.017-0.027 0.025-0.009-0.006-0.017-0.012-0.027-0.017-0.070-0.031-0.204 0.089-0.205 0.157-0.002 0.073-0.017 0.145-0.015 0.218 0 0.023 0.008 0.046 0.017 0.067 0.005 0.052 0.021 0.103 0.044 0.153 0.008 0.005 0.018 0.006 0.027 0.002 0.014-0.003 0.028-0.006 0.043-0.010zM12.918 5.722c0.075-0.068 0.102-0.159 0.121-0.255 0.014-0.070-0.019-0.128-0.079-0.144-0.001-0.025-0.003-0.051-0.002-0.076 0-0.098-0.104-0.124-0.18-0.099-0.090 0.030-0.172 0.118-0.172 0.216-0.001 0.102-0.011 0.252 0.039 0.343 0.058 0.108 0.192 0.088 0.274 0.014zM19.755 4.607c0.436-0.154 0.622-0.627 0.463-1.047-0.201-0.531-0.756-0.553-1.189-0.301-0.020 0.012-0.036 0.028-0.049 0.045-0.156 0.118-0.268 0.305-0.3 0.541-0.087 0.633 0.531 0.955 1.076 0.763zM5.489 19.54c0.016-0.002 0.033-0.004 0.051-0.006 0.006 0.005 0.009 0.011 0.016 0.015 0.049 0.037 0.125 0.025 0.179 0.012 0.096-0.022 0.203-0.066 0.242-0.162 0.045-0.040 0.077-0.092 0.085-0.164 0.011-0.089-0.034-0.111-0.090-0.126-0.036-0.053-0.102-0.091-0.16-0.106-0.066-0.017-0.13 0.003-0.189 0.033-0.020 0.011-0.039 0.025-0.058 0.037-0.010 0.006-0.021 0.012-0.032 0.018 0.026-0.013-0.017 0.001-0.001-0.002-0.069 0.011-0.133 0.060-0.15 0.131-0.002 0.007-0.003 0.015-0.003 0.023 0 0.020 0.007 0.039 0.018 0.054l-0-0c0.002 0.016 0.008 0.032 0.020 0.046 0.014 0.015 0.023 0.028 0.030 0.042-0.016 0.043-0.015 0.091 0.009 0.148 0.009 0.007 0.020 0.009 0.031 0.006zM22.693 26.851c-0.088-0.18-0.175-0.361-0.221-0.558-0.015-0.065-0.238 0.089-0.222 0.16 0.005 0.020 0.011 0.040 0.017 0.059-0.012 0.018-0.020 0.034-0.018 0.046 0.029 0.177 0.111 0.339 0.188 0.498 0.008 0.017 0.045 0.005 0.086-0.019 0.070-0.026 0.197-0.13 0.17-0.186zM22.924 27.714c0.002 0.072 0.017 0.134 0.040 0.197 0.001 0.005-0.001 0.011 0.001 0.016 0.046 0.111 0.072 0.212 0.193 0.264 0.085 0.036 0.224-0.092 0.205-0.178-0.037-0.174-0.108-0.3-0.215-0.442-0.060-0.080-0.226 0.073-0.224 0.143zM18.688 8.479c0.003-0.002 0.004-0.003 0.005-0.004l0.001-0.001c-0.017 0.018-0.034 0.035-0.048 0.056-0.017 0.027-0.028 0.083 0.001 0.107 0 0 0 0 0.001 0.001 0.053 0.046 0.119 0.016 0.168-0.022 0.008-0.006 0.014-0.014 0.021-0.020 0.002-0.002 0.011-0.011 0.027-0.019 0.052-0.028 0.109-0.101 0.088-0.163-0.022-0.067-0.105-0.047-0.15-0.023-0.003 0.001-0.005 0.004-0.008 0.005-0.036 0.012-0.070 0.038-0.090 0.064-0.005 0.006-0.010 0.012-0.014 0.018zM23.648 6.835c0.288-0.076 0.48-0.412 0.476-0.691-0.002-0.154-0.053-0.265-0.135-0.338-0.142-0.265-0.402-0.224-0.612-0.071-0.346 0.118-0.635 0.464-0.459 0.838 0.13 0.277 0.461 0.353 0.73 0.263zM28.362 23.628c-0.034-0.034-0.099-0.028-0.137-0.001-0.101 0.072-0.272 0.155-0.302 0.288-0.041 0.183 0.267 0.157 0.367 0.158 0.067 0.001 0.135-0.070 0.15-0.131 0.019-0.070-0.015-0.144 0.002-0.21 0.016-0.059-0.023-0.104-0.080-0.103z"></path>
<path fill="#2b2a29" style="fill: var(--color2, #2b2a29)" d="M29.177 7.883c-0.263 0.196-0.485 0.441-0.713 0.675-0.393 0.405-0.864 0.711-1.331 1.024-1.037 0.694-1.934 1.433-3.101 1.856-0.474 0.086-0.904-0.051-1.384-0.138-0.434-0.080-0.834 0.017-1.238 0.172-0.194 0.075-0.387 0.167-0.603 0.146-0.393-0.038-0.546-0.765-0.581-1.052-0.072-0.579 0.27-1.152 0.447-1.681 0.419-1.245 0.428-2.555 1.049-3.741 0.229-0.438 0.912-1.327 0.552-1.885-0.276-0.428-0.763 0.392-0.853 0.589-0.257 0.566-0.211 1.222-0.551 1.76-0.258 0.408-0.502 0.624-0.509 1.127-0.006 0.457-0.059 0.709-0.317 1.077-0.077 0.112-0.173 0.268-0.18 0.409-0.012 0.259 0.012 0.509 0.029 0.768 0.073 1.132-1.080 0.841-1.619 0.404-0.435-0.352-0.851-1.045-0.943-1.586-0.069-0.407 0.081-1.53 0.031-1.934 0.144-0.285 0.277-0.572 0.151-0.82-0.156-0.308-0.321-0.421-0.598-0.208-0.207 0.159-0.293 0.418-0.316 0.668-0.021 0.232 0.144 0.489 0.238 0.713-0.068 0.183-0.203 1.079-0.277 1.26-0.279 0.153-0.694 0.233-0.858 0.316-0.713 0.363-0.839 1.098-0.894 1.823-0.063 0.834-0.564 1.683-1.546 1.456-0.503-0.116-0.558-0.847-0.594-1.253-0.065-0.727-0.804-3.556-1.645-3.905-0.173-0.072-0.438 0.13-0.526 0.262-0.22 0.331-0.001 0.666 0.181 0.968 0.398 0.659 1.27 3.025 1.35 3.777 0.041 0.389-0.101 0.725-0.168 1.099-0.054 0.304 0.024 0.597 0.044 0.897-0.236 0.502-0.427 1.419-0.892 0.992-0.085-0.077-0.286 0.094-0.213 0.185 0.296 0.367 0.385 0.594 0.087 0.991-0.192 0.255-0.379 0.513-0.569 0.769-0.761 1.026-1.867 1.173-3.056 1.139-0.073-0.002-0.133-0.003-0.186-0.003l-0.157-0.016c-0.584-0.109-1.167-0.204-1.758-0.289-0.685-0.099-1.238-0.458-1.901-0.603-0.421-0.093-1.614 0.649-1.036 1.053 0.314 0.22 0.734 0.205 1.1 0.16 0.362-0.045 0.691-0.052 1.016-0.034 0.111 0.011 0.445 0.044 0.767 0.088 0.162 0.026 0.328 0.057 0.501 0.091 0.027 0.005 0.054 0.009 0.081 0.014 0.006 0.002 0.013 0.003 0.018 0.005 0.268 0.081 1.121 0.383 1.122 0.383 0.082 0.045 0.166 0.090 0.252 0.134 0.664 0.345 1.061 0.162 1.722-0.023 0.468-0.131 0.592 0.193 0.773 0.48 0.163 0.257 0.399 0.399 0.576 0.623-0.010 0.215-0.006 0.432 0.001 0.649 0.005 0.168-0.013 0.421 0.097 0.564 0.202 0.265 0.552 0.392 0.477 0.79-0.108 0.57-1.123 0.966-1.578 1.23-0.289 0.167-0.567 0.354-0.856 0.523-0.889 0.518-3.049 1.497-2.921 2.795 0.001 0.011 0.007 0.018 0.018 0.021 0.252 0.002 0.434-0.029 0.643-0.176 0.541-0.381 0.624-0.849 1.335-1.165 0.973-0.434 1.906-0.988 2.771-1.612 0.303-0.218 0.567-0.465 0.831-0.729 0.209-0.209 0.959-0.929 0.971-0.301 0.003 0.198-0.069 0.412-0.121 0.601-0.125 0.462-0.175 1.243-0.419 1.612-0.264 0.398-0.57 0.7-0.806 1.127-0.391 0.71-0.976 1.241-1.393 1.921-0.303 0.494-0.185 0.736 0.412 0.597 0.491-0.114 0.665-0.61 0.806-1.030 0.21-0.626 0.793-0.923 1.097-1.465 0.146-0.259 0.277-0.544 0.429-0.809 0.143-0.022 0.31-0.163 0.413-0.242 0.402-0.306 0.763-0.777 1.297-0.404 0.34 0.238 0.604 0.582 0.925 0.845 0.503 0.41 1.1 0.26 1.618 0.004 0.35-0.174 0.897-0.496 1.228-0.151 0.254 0.264 0.41 0.555 0.706 0.788 0.42 0.331 0.642 0.662 0.661 1.201 0.012 0.335 0.096 0.593 0.263 0.877 0.192 0.326 0.596 0.593 0.945 0.318 0.389-0.305 0.59-0.72 0.416-1.201-0.089-0.245-0.264-0.463-0.395-0.686-0.325-0.552-0.007-1.015 0.367-1.431 0.311 0.565 0.12 0.998 0.838 1.285 0.378 0.151 0.716 0.061 1.052 0.358 0.174 0.154 0.259 0.516 0.345 0.73 0.090 0.225 0.268 0.408 0.419 0.593 0.616 0.761 0.974 0.594 1.444 1.46 0.124 0.228 0.388 0.553 0.617 0.239 0.426-0.581 0.045-1.149-0.407-1.556-0.768-0.69-0.878-0.768-1.5-1.575-0.258-0.334-0.566-0.632-0.844-0.949-0.1-0.115-0.698-0.957-0.246-0.716 0.237 0.126 0.423 0.054 0.566-0.105 0.203 0.451 0.452 1.386 1.017 1.331 0.328-0.031 0.389-0.297 0.316-0.581-0.127-0.495-0.472-0.918-0.843-1.25-0.157-0.14-0.305-0.28-0.441-0.44-0.253-0.3 0.106-0.958 0.322-0.408 0.095 0.243 0.122 0.514 0.272 0.733 0.047 0.069 0.178-0.056 0.201-0.092 0.26-0.415 0.187-1.017 0.179-1.483-0.007-0.39-0.1-0.944 0.133-1.259 0.402-0.002 0.568-0.17 0.728-0.44 0.049 0.179 0.099 0.358 0.147 0.537 0.016 0.060 0.101 0.024 0.132 0.002 0.185-0.128 0.273-0.23 0.334-0.45 0.11-0.397 0.251-0.689 0.682-0.875 0.195-0.085 0.372-0.185 0.553-0.297 0.494-0.308 1.085-0.786 1.036-1.439-0.056-0.763-0.305-2.015-1.063-2.39-0.299-0.148-0.619-0.256-0.927-0.384-0.065-0.027-0.208-0.084-0.354-0.156-0.068-0.108-0.129-0.225-0.185-0.355-0.030-0.072-0.038-0.144-0.054-0.209 0.058-0.050 0.134-0.14 0.058-0.164-0.057-0.019-0.121-0.025-0.189-0.024-0.179-0.106-0.418-0.054-0.596 0.006-0.861 0.292-0.587-0.463-0.315-0.958 0.008-0.014 0.016-0.028 0.023-0.042 0.079-0.139 0.154-0.252 0.199-0.31 0.686-0.873 1.686-1.527 2.604-2.123 0.856-0.557 1.708-1.105 2.579-1.635 0.231-0.14 0.7-0.397 0.691-0.72-0.008-0.308-0.567-0.267-0.739-0.138z"></path>
<path fill="#646a4c" style="fill: var(--color1, #646a4c)" d="M22.879 18.713c-0.090 0.25-0.123 0.512-0.168 0.772-0.031 0.179-0.051 0.36-0.128 0.531-0.078 0.176-0.217 0.284-0.37 0.383-0.052 0.034-0.112 0.069-0.175 0.1l-0.010 0.005c-0.054 0.026-0.113 0.040-0.166 0.067-0.087 0.044-0.173 0.090-0.254 0.142-0.080 0.051-0.16 0.105-0.231 0.168s-0.133 0.136-0.194 0.208c-0.034 0.040-0.058 0.088-0.095 0.144-0.053-0.134-0.101-0.254-0.149-0.374-0.012 0.154-0.006 0.307-0.075 0.452-0.077-0.23-0.159-0.46-0.293-0.67 0.004 0.028 0.011 0.056 0.013 0.084 0.012 0.171 0.016 0.344 0.035 0.514 0.013 0.111-0.018 0.215-0.030 0.321-0.012 0.114-0.093 0.199-0.198 0.252-0.008 0.004-0.018 0.006-0.027 0.005-0.094-0.009-0.189-0.016-0.283-0.030-0.077-0.012-0.152-0.035-0.228-0.049-0.211-0.038-0.423-0.075-0.635-0.111-0.049-0.008-0.077-0.026-0.080-0.082-0.008-0.154-0.030-0.308-0.031-0.463-0.001-0.199 0.045-0.392 0.124-0.576 0.013-0.030 0.008-0.043-0.017-0.059-0.234-0.15-0.482-0.263-0.755-0.322-0.222-0.047-0.443-0.053-0.662 0.006-0.19 0.051-0.33 0.174-0.427 0.344-0.117 0.206-0.158 0.434-0.17 0.667-0.003 0.056-0.001 0.111-0.001 0.167-0.005 0.001-0.010 0.002-0.015 0.003-0.028-0.078-0.067-0.155-0.082-0.235-0.026-0.138-0.055-0.28-0.053-0.419 0.006-0.389 0.196-0.675 0.527-0.871 0.259-0.152 0.541-0.225 0.839-0.238 0.164-0.007 0.328-0.001 0.494-0.001-0.001-0.018 0.238 0.015 0.241 0.023 0.599 0.103 1.133 0.344 1.61 0.733-0.011-0.045-0.018-0.092-0.033-0.135-0.057-0.166-0.153-0.308-0.273-0.435-0.023-0.024-0.028-0.039-0.006-0.066 0.195-0.25 0.44-0.435 0.73-0.562 0.377-0.164 0.773-0.222 1.182-0.205 0.027 0.001 0.055 0 0.083-0.005-0.199-0.137-0.424-0.214-0.654-0.279 0.001-0.005 0.002-0.010 0.004-0.015 0.124-0.018 0.248-0.036 0.372-0.054v-0.015c-0.14-0.044-0.281-0.088-0.42-0.132 0.024-0.106 0.060-0.209 0.069-0.314 0.016-0.197 0.030-0.396 0.020-0.593-0.011-0.239-0.044-0.477-0.075-0.715-0.019-0.144-0.050-0.286-0.082-0.428-0.054-0.24-0.108-0.481-0.172-0.719-0.092-0.341-0.192-0.68-0.291-1.019-0.021-0.073-0.052-0.143-0.079-0.216 0.006 0.076 0.007 0.154 0.018 0.229 0.036 0.231 0.077 0.461 0.114 0.692 0.040 0.25 0.083 0.499 0.115 0.75 0.049 0.386 0.095 0.773 0.085 1.163-0.003 0.096-0.022 0.343-0.021 0.371 0.003 0.087 0.014 0.243-0.512 0.58-0.074 0.047-0.167 0.056-0.264 0.087 0.2 0.043 0.384 0.024 0.566-0.046-0.126 0.141-0.287 0.222-0.465 0.265s-0.361 0.041-0.543 0.008c0.163 0.113 0.544 0.181 0.857 0.114-0.018 0.017-0.033 0.038-0.053 0.051-0.181 0.111-0.378 0.159-0.589 0.131-0.418-0.056-0.709-0.286-0.901-0.656-0.14-0.269-0.234-0.553-0.302-0.847-0.046-0.196-0.092-0.393-0.128-0.591-0.032-0.176-0.053-0.355-0.076-0.532-0.021-0.157-0.039-0.315-0.055-0.473-0.017-0.171-0.033-0.342-0.044-0.514-0.012-0.191-0.018-0.382-0.027-0.573-0-0.008-0.003-0.016-0.017-0.025-0.008 0.055-0.018 0.109-0.025 0.164-0.048 0.403-0.046 0.808-0.032 1.213 0.009 0.251 0.037 0.501 0.060 0.752 0.022 0.239 0.050 0.477 0.073 0.716 0.014 0.147 0.024 0.293 0.035 0.44 0.001 0.020-0.002 0.039-0.009 0.059-0.122 0.415-0.47 0.528-0.583 0.568-0.088 0.032-0.18 0.049-0.269 0.072 0.079 0.055 0.303 0.051 0.631-0.008-0.29 0.278-0.646 0.318-1.025 0.287 0.257 0.149 0.53 0.2 0.828 0.138-0.025 0.014-0.051 0.028-0.077 0.040-0.029 0.014-0.058 0.027-0.088 0.039-0.166 0.066-0.337 0.114-0.516 0.111-0.373-0.007-0.642-0.183-0.804-0.52-0.116-0.241-0.182-0.497-0.237-0.757-0.032-0.149-0.068-0.298-0.095-0.448-0.034-0.186-0.062-0.372-0.088-0.559-0.041-0.299-0.083-0.599-0.116-0.899-0.036-0.326-0.062-0.654-0.091-0.982-0.010-0.115-0.018-0.23-0.027-0.345-0.002-0.018-0.005-0.036-0.009-0.064-0.091 0.282-0.157 1.243-0.129 1.809 0.030 0.602 0.117 1.196 0.268 1.78-0.005 0.002 0.040 0.361-0.324 0.694-0.086 0.079-0.179 0.134-0.288 0.169 0.199 0.025 0.387-0.004 0.553-0.133-0.070 0.16-0.197 0.247-0.355 0.301-0.153 0.052-0.312 0.066-0.473 0.064 0.116 0.052 0.239 0.076 0.364 0.075 0.123-0.001 0.245-0.021 0.361-0.032-0.056 0.058-0.139 0.093-0.225 0.117-0.214 0.061-0.431 0.058-0.643-0.001-0.237-0.066-0.438-0.195-0.6-0.381-0.153-0.177-0.257-0.382-0.329-0.603-0.057-0.175-0.114-0.351-0.159-0.529-0.046-0.186-0.075-0.377-0.114-0.565-0.008-0.039-0.018-0.077-0.029-0.115 0.001-0.001 0.001-0.002 0.001-0.003-0.001 0.001-0.001 0.001-0.002 0.001-0.008-0.030-0.009-0.030-0.017-0.060-0.003-0.009-0.063-0.498-0.078-0.72-0.010-0.147-0.032-0.293-0.041-0.44-0.020-0.313-0.035-0.627-0.053-0.94-0.001-0.016-0.005-0.033-0.008-0.059-0.142 0.657-0.052 2.742-0.024 2.905 0.028 0.161 0.063 0.321 0.085 0.485-0.087 0.204-0.358 0.267-0.58 0.313-0.095 0.020-0.193 0.028-0.297 0.042 0.193 0.090 0.391 0.114 0.599 0.079-0.122 0.079-0.25 0.132-0.392 0.158-0.143 0.026-0.283 0.022-0.426-0.001 0.101 0.066 0.213 0.105 0.331 0.114 0.116 0.009 0.233 0.002 0.36 0.002-0.059 0.065-0.129 0.094-0.2 0.114-0.206 0.059-0.415 0.057-0.62-0.001-0.207-0.059-0.364-0.189-0.479-0.37-0.159-0.253-0.256-0.53-0.321-0.819-0.050-0.222-0.087-0.448-0.124-0.672-0.074-0.461-0.083-0.926-0.068-1.391 0.008-0.243 0.040-0.485 0.066-0.727 0.019-0.177 0.064-0.347 0.128-0.513 0.084-0.216 0.24-0.349 0.466-0.387 0.167-0.028 0.337-0.045 0.506-0.051 0.156-0.006 0.308-0.027 0.457-0.072 0.043-0.013 0.297-0.179 0.379-0.24 0.045 0.229 0.121 0.427 0.183 0.48 0.032-0.117 0.060-0.236 0.097-0.351 0.083-0.263 0.202-0.506 0.416-0.688 0.179-0.153 0.379-0.19 0.607-0.114 0.144 0.047 0.296 0.072 0.447 0.094 0.147 0.021 0.298 0.020 0.446 0.039 0.132 0.017 0.154 0.070 0.147 0.17-0.012 0.173 0.027 0.341 0.069 0.508 0.006 0.024 0.012 0.047 0.022 0.083 0.011-0.017 0.021-0.026 0.023-0.036 0.064-0.331 0.177-0.641 0.378-0.914 0.132-0.18 0.299-0.314 0.52-0.374 0.117-0.032 0.225-0.007 0.332 0.033 0.197 0.072 0.363 0.199 0.539 0.309 0.115 0.072 0.236 0.135 0.358 0.196 0.044 0.022 0.101 0.018 0.146 0.041 0.106 0.053 0.127 0.16 0.147 0.263 0.028 0.138 0.053 0.277 0.080 0.416 0.002 0.011 0.007 0.020 0.008 0.024 0.037-0.098 0.067-0.202 0.115-0.297 0.084-0.169 0.233-0.273 0.41-0.316 0.27-0.066 0.516-0.178 0.75-0.325 0.128-0.080 0.268-0.135 0.418-0.085 0.099 0.033 0.196 0.087 0.282 0.148 0.207 0.145 0.382 0.327 0.554 0.511 0.054 0.058 0.109 0.115 0.167 0.169 0.079 0.075 0.088 0.175 0.092 0.271 0.008 0.211 0.004 0.423 0.009 0.635 0.008 0.333 0.011 0.665 0.030 0.998 0.017 0.294 0.065 0.585 0.152 0.867 0.070 0.228 0.162 0.45 0.289 0.653 0.187 0.3 0.387 0.593 0.577 0.891 0.050 0.078 0.091 0.164 0.119 0.252 0.017 0.051 0.012 0.118-0.006 0.169zM18.89 20.676c-0.017 0.070-0.043 0.139-0.072 0.206-0.006 0.015-0.038 0.025-0.059 0.026-0.172 0.008-0.344 0.011-0.515 0.021-0.068 0.004-0.136 0.021-0.204 0.032 0.316 0.061 0.649 0.148 0.701 0.197-0.337 0.019-0.672 0.037-0.997 0.136 0.374 0.023 0.75 0.035 1.076 0.25-0.001 0.006-0.002 0.011-0.003 0.017-0.082-0.010-0.165-0.021-0.248-0.028-0.271-0.023-0.541-0.059-0.814-0.037-0.102 0.008-0.172-0.030-0.214-0.139-0.032-0.083-0.049-0.175-0.051-0.264-0.004-0.189 0.046-0.367 0.146-0.531 0.056-0.092 0.141-0.14 0.239-0.161 0.183-0.038 0.366-0.023 0.544 0.028 0.138 0.039 0.274 0.090 0.41 0.138 0.050 0.018 0.072 0.061 0.060 0.109zM23.243 18.075c-0.149-0.183-0.299-0.366-0.438-0.556-0.34-0.464-0.547-0.981-0.605-1.557-0.031-0.31-0.033-0.619-0.022-0.929 0.011-0.312 0.017-0.623 0.025-0.935 0.001-0.026-0.004-0.053-0.008-0.079-0.017-0.117-0.070-0.216-0.144-0.307-0.029-0.035-0.044-0.083-0.073-0.119-0.193-0.244-0.419-0.456-0.664-0.647-0.207-0.162-0.422-0.313-0.674-0.399-0.096-0.032-0.194-0.042-0.287-0.001-0.125 0.055-0.248 0.115-0.369 0.178-0.218 0.116-0.432 0.24-0.677 0.296-0.112 0.026-0.224 0.036-0.337 0.012-0.252-0.053-0.473-0.175-0.687-0.311-0.183-0.117-0.363-0.239-0.576-0.302-0.124-0.037-0.253-0.051-0.374-0.012-0.149 0.048-0.293 0.114-0.435 0.181-0.207 0.096-0.407 0.208-0.617 0.298-0.211 0.090-0.436 0.086-0.658 0.045-0.147-0.027-0.291-0.066-0.437-0.099-0.007-0.002-0.083-0.019-0.105-0.023-0.133-0.019-0.267-0.027-0.398 0.020-0.167 0.060-0.317 0.15-0.442 0.273-0.154 0.152-0.296 0.318-0.447 0.473-0.159 0.163-0.342 0.285-0.577 0.309s-0.469 0.047-0.702 0.081c-0.127 0.019-0.255 0.049-0.367 0.121-0.17 0.109-0.278 0.269-0.364 0.447-0.124 0.258-0.193 0.532-0.243 0.813-0.060 0.34-0.091 0.683-0.083 1.027 0.007 0.296 0.028 0.593 0.052 0.888 0.015 0.176 0.042 0.352 0.076 0.526 0.034 0.171 0.080 0.341 0.127 0.509 0.096 0.345 0.231 0.673 0.445 0.963 0.113 0.153 0.243 0.293 0.422 0.363 0.16 0.062 0.329 0.108 0.497 0.145 0.289 0.063 0.584 0.078 0.879 0.083 0.233 0.004 0.442 0.080 0.65 0.168 0.076 0.032 0.141 0.089 0.213 0.132 0.164 0.098 0.326 0.198 0.492 0.292 0.357 0.202 0.736 0.315 1.153 0.265 0.005-0.001 0.011 0.002 0.018 0.004 0.022 0.082 0.044 0.164 0.067 0.245 0.067 0.24 0.154 0.471 0.308 0.67 0.074 0.096 0.16 0.184 0.287 0.202 0.192 0.027 0.385 0.055 0.579 0.064 0.483 0.023 0.967 0.045 1.443 0.14 0.234 0.046 0.465 0.107 0.697 0.164 0.152 0.037 0.302 0.076 0.461 0.081 0.24 0.006 0.447-0.069 0.615-0.235 0.141-0.139 0.269-0.292 0.399-0.441 0.184-0.209 0.386-0.396 0.629-0.536 0.222-0.128 0.445-0.256 0.658-0.398 0.201-0.134 0.361-0.311 0.416-0.556 0.032-0.145 0.035-0.296 0.061-0.442 0.034-0.194 0.075-0.387 0.118-0.58 0.044-0.196 0.098-0.39 0.141-0.586 0.036-0.162-0.019-0.302-0.121-0.428z"></path>
<path fill="#646a4c" style="fill: var(--color1, #646a4c)" d="M20.812 19.683c0.203-0.13 0.413-0.246 0.636-0.338 0.224-0.093 0.455-0.161 0.709-0.196-0.502-0.143-1.067 0.135-1.345 0.535zM13.408 16.285l-0.936 0.038 0.008 0.201 0.936-0.038-0.008-0.201zM13.431 15.862l-1.334 0.053-0.012-0.287 1.469-0.060c0.083-0.003 0.155 0.025 0.216 0.083s0.094 0.132 0.098 0.22l0.003 0.079c0.003 0.070-0.018 0.129-0.062 0.177 0.048 0.047 0.074 0.104 0.076 0.172l0.006 0.141c0.004 0.088-0.023 0.163-0.079 0.227s-0.126 0.098-0.208 0.101l-1.469 0.060-0.030-0.736 1.332-0.054-0.005-0.175zM16.066 15.249l-0.625 0.029 0.041 0.901-0.505 0.023-0.041-0.902-0.622 0.028-0.014-0.299 1.753-0.080zM17.559 15.164l0.009 0.255 0.955-0.027-0.009-0.255-0.955 0.027zM17.304 15.611l0.010 0.299-0.458 0.016-0.027-0.885c-0.003-0.088 0.025-0.163 0.085-0.227s0.133-0.097 0.219-0.1l1.453-0.050 0.005 0.299-1.308 0.045 0.021 0.603zM20.259 16.080h-0.406l-0.71-1.202h0.525l0.387 0.7 0.391-0.7h0.525z"></path>
</symbol>
<symbol id="armored-vehicle" viewBox="0 0 32 32">
<path fill="#b79950" style="fill: var(--color3, #b79950)" d="M0.615 21.93c0.305 0.441 0.618 0.875 0.907 1.332 0.185 0.297 0.409 0.425 0.762 0.417 0.578-0.024 1.155-0.008 1.757-0.008 0.241 1.147 0.826 2.062 1.805 2.704 0.722 0.473 1.525 0.69 2.391 0.658 1.838-0.056 3.121-1.163 3.868-3.338 2.752 0 5.505 0 8.209 0 0.233 0.514 0.393 1.043 0.69 1.476 0.987 1.468 2.407 2.102 4.14 1.781 1.693-0.313 2.776-1.38 3.226-3.057 0.040-0.152 0.112-0.209 0.265-0.265 0.826-0.305 1.645-0.626 2.447-0.979 0.144-0.064 0.289-0.305 0.289-0.465 0.016-2.375 0.016-4.742 0.008-7.117 0-0.144-0.080-0.321-0.177-0.425-0.441-0.465-0.891-0.923-1.356-1.356-0.112-0.104-0.297-0.177-0.449-0.185-2.166-0.152-4.333-0.297-6.499-0.433-0.257-0.016-0.401-0.104-0.538-0.337-0.971-1.693-1.966-3.37-2.937-5.055-0.177-0.305-0.393-0.433-0.746-0.433-3.611 0.008-7.222 0.008-10.84 0.008-0.193 0-0.337-0.048-0.473-0.193-0.497-0.514-1.003-1.011-1.5-1.508-0.313-0.305-0.538-0.305-0.851 0-1.388 1.388-2.776 2.776-4.164 4.164-0.072 0.072-0.144 0.161-0.217 0.241 0 0.12 0 0.241 0 0.361 0.626 0.634 1.252 1.276 1.886 1.918-0.642 0.698-1.26 1.372-1.886 2.046-0.016 2.68-0.016 5.36-0.016 8.048zM1.851 13.986c0.032-0.056 0.056-0.088 0.080-0.12 1.829-1.974 3.659-3.948 5.496-5.914 0.072-0.080 0.225-0.128 0.337-0.128 1.22-0.008 2.439-0.008 3.667-0.008 0.072 0 0.152 0.016 0.225 0.024 0 2.56 0 5.103 0 7.663 0 0.486-0.233 0.971-0.233 0.971-0.313 0.738-0.626 1.436-0.915 2.15-0.080 0.193-0.177 0.241-0.377 0.241-1.508-0.008-3.025-0.008-4.534-0.008-0.425 0-0.522 0.064-0.666 0.457-0.377 1.003-0.762 1.998-1.123 3.009-0.096 0.281-0.225 0.361-0.538 0.401-0.706 0.080-1.171-0.136-1.468-0.786-0.112-0.241-0.217-0.449-0.217-0.722 0.008-1.958 0.008-3.924 0.008-5.89 0-0.104 0-0.209 0-0.369 0.706 0.473 1.356 0.915 2.022 1.332 0.144 0.088 0.329 0.152 0.497 0.16 0.722 0.016 1.444 0.008 2.158 0.008 0.377 0 0.602-0.177 0.602-0.481 0-0.297-0.217-0.481-0.594-0.481-0.642 0-1.284 0-1.926 0-0.096 0-0.209 0-0.289-0.048-0.746-0.481-1.476-0.971-2.215-1.46zM12.627 7.824c0.080-0.008 0.128-0.008 0.177-0.008 1.862 0 3.723 0 5.585-0.008 0.193 0 0.257 0.096 0.337 0.225 0.947 1.637 1.91 3.266 2.849 4.903 0.072 0.128 0.080 0.321 0.048 0.465-0.096 0.465-0.313 0.923-0.329 1.388-0.048 1.412-0.016 2.824-0.016 4.237 0 0.136-0.016 0.281-0.064 0.409-0.377 1.019-0.762 2.038-1.139 3.065-0.064 0.177-0.152 0.217-0.329 0.217-2.343-0.008-4.686-0.008-7.029 0-0.177 0-0.265-0.056-0.321-0.225-0.353-0.963-0.722-1.926-1.075-2.897-0.048-0.144-0.048-0.337 0.016-0.473 0.377-0.915 0.778-1.821 1.155-2.728 0.080-0.201 0.128-0.425 0.128-0.634 0.008-2.038 0.008-4.084 0.008-6.122 0-0.602 0-1.188 0-1.813zM22.24 18.865c0-0.144 0-0.249 0-0.361 0-1.059 0.016-2.118-0.008-3.178-0.016-0.53 0.096-1.027 0.273-1.517 0.056-0.144 0.112-0.201 0.281-0.185 1.797 0.128 3.595 0.289 5.392 0.345 0.802 0.024 1.356 0.305 1.886 0.875 0.337 0.361 0.393 0.698 0.329 1.147-0.112 0-0.217 0-0.329 0-1.412 0-2.824 0-4.229 0-0.088 0-0.185-0.008-0.273 0.008-0.257 0.040-0.409 0.201-0.425 0.465-0.016 0.249 0.177 0.457 0.433 0.489 0.088 0.008 0.177 0.008 0.273 0.008 1.412 0 2.825 0 4.229 0 0.104 0 0.217 0 0.345 0 0 1.637 0 3.234-0.008 4.83 0 0.056-0.064 0.144-0.12 0.169-0.497 0.209-0.995 0.401-1.517 0.61-0.048-0.112-0.088-0.209-0.12-0.297-0.353-0.947-0.714-1.886-1.067-2.832-0.201-0.53-0.249-0.562-0.802-0.562-1.5-0.016-3.001-0.016-4.542-0.016zM21.277 22.957c-0.008-1.693 1.38-3.113 3.065-3.129 1.741-0.016 3.161 1.364 3.177 3.081 0.016 1.733-1.38 3.161-3.097 3.161-1.725 0.008-3.137-1.38-3.145-3.113zM4.94 22.957c-0.008-1.693 1.38-3.113 3.065-3.129 1.741-0.016 3.161 1.364 3.177 3.081 0.016 1.733-1.38 3.161-3.097 3.161-1.725 0.008-3.137-1.38-3.145-3.113zM3.199 11.081c-0.465-0.465-0.923-0.915-1.332-1.324 1.188-1.188 2.391-2.391 3.539-3.539 0.385 0.377 0.794 0.778 1.212 1.188-1.123 1.212-2.279 2.447-3.418 3.675z"></path>
<path fill="#b79950" style="fill: var(--color3, #b79950)" d="M8.070 13.577c0.666 0 1.34 0 2.006 0 0.457 0 0.626-0.161 0.626-0.602 0-1.196 0-2.399 0-3.595 0-0.433-0.168-0.602-0.594-0.602-0.409 0-0.818-0.024-1.228 0.008-0.177 0.016-0.401 0.104-0.506 0.241-0.955 1.236-1.878 2.487-2.816 3.731-0.128 0.168-0.217 0.377-0.072 0.546 0.112 0.128 0.321 0.257 0.489 0.265 0.698 0.024 1.396 0.008 2.094 0.008zM6.874 12.606c0.642-0.859 1.276-1.645 1.838-2.479 0.281-0.409 0.602-0.441 1.011-0.361 0 0.955 0 1.894 0 2.841-0.947 0-1.87 0-2.849 0z"></path>
<path fill="#b79950" style="fill: var(--color3, #b79950)" d="M13.59 15.262c0 1.942 0 3.884 0 5.825 0 0.514 0.152 0.666 0.658 0.666 1.332 0 2.664-0.008 3.988 0.008 0.337 0 0.538-0.12 0.658-0.441 0.273-0.73 0.578-1.444 0.867-2.174 0.048-0.128 0.072-0.273 0.072-0.409 0.008-0.971 0.032-1.942-0.008-2.913-0.032-0.81 0.064-1.597 0.385-2.335 0.128-0.289 0.088-0.546-0.056-0.826-0.594-1.155-1.171-2.319-1.741-3.482-0.144-0.289-0.337-0.409-0.658-0.409-1.18 0.008-2.359-0-3.539 0.008-0.465 0-0.626 0.161-0.626 0.634 0 1.95 0 3.9 0 5.849zM19.095 13.593c-0.072 0.457-0.177 0.915-0.209 1.372-0.040 0.473-0.008 0.963-0.008 1.436 0 0.177-0.016 0.361 0 0.538 0.136 1.284-0.145 2.471-0.706 3.619-0.080 0.169-0.16 0.233-0.345 0.233-1.011-0.008-2.022-0.008-3.033-0.008-0.072 0-0.152-0.016-0.217-0.016 0-2.407 0-4.79 0-7.173 1.533 0 3.041 0 4.517 0zM14.569 12.606c0-0.971 0-1.91 0-2.873 0.987 0 1.95-0.008 2.921 0.008 0.080 0 0.177 0.104 0.225 0.193 0.265 0.514 0.522 1.035 0.778 1.557 0.185 0.361 0.361 0.73 0.554 1.115-1.517 0-2.993 0-4.477 0z"></path>
<path fill="#b79950" style="fill: var(--color3, #b79950)" d="M22.481 22.957c0 1.059 0.875 1.918 1.942 1.91 1.051-0.008 1.902-0.867 1.902-1.918 0-1.059-0.867-1.926-1.926-1.926-1.067 0.008-1.926 0.875-1.918 1.934zM23.444 22.957c0-0.53 0.417-0.955 0.947-0.971 0.538-0.008 0.979 0.425 0.979 0.963 0 0.522-0.433 0.955-0.955 0.955-0.53 0.008-0.971-0.425-0.971-0.947z"></path>
<path fill="#b79950" style="fill: var(--color3, #b79950)" d="M8.062 24.875c1.059 0 1.926-0.867 1.926-1.926 0-1.051-0.859-1.91-1.902-1.918-1.075-0.008-1.95 0.859-1.942 1.942 0 1.043 0.867 1.894 1.918 1.902zM8.070 21.994c0.522 0 0.955 0.433 0.955 0.955 0 0.538-0.441 0.971-0.979 0.963-0.522-0.008-0.947-0.449-0.939-0.971 0.008-0.53 0.433-0.955 0.963-0.947z"></path>
</symbol>
<symbol id="ATV" viewBox="0 0 32 32">
<path fill="#b79950" style="fill: var(--color3, #b79950)" d="M2.63 21.598c0.063 0.281 0.112 0.562 0.197 0.843 0.625 2.092 2.626 3.475 4.774 3.3 2.198-0.175 3.946-1.839 4.241-4.030 0.091-0.66 0.014-1.306-0.168-1.966 0.386-0.225 0.772-0.442 1.165-0.667 0.26 0.33 0.512 0.646 0.751 0.969 0.126 0.169 0.281 0.246 0.492 0.239 0.92-0.007 1.839 0.007 2.759-0.014 0.161-0.007 0.351-0.105 0.463-0.225 0.281-0.295 0.527-0.625 0.793-0.955 0.386 0.225 0.758 0.435 1.123 0.646-0.793 2.724 0.864 5.118 3.019 5.792 2.254 0.709 4.648-0.365 5.624-2.492 0.969-2.127 0.232-4.865-2.212-6.108 0.211-0.351 0.421-0.702 0.646-1.081 0.4 0.302 0.793 0.597 1.18 0.885 0.323 0.239 0.414 0.246 0.751 0.021 0.351-0.232 0.702-0.463 1.046-0.702 0.323-0.225 0.351-0.477 0.077-0.758-0.583-0.59-1.18-1.172-1.762-1.769-0.084-0.084-0.147-0.239-0.147-0.358-0.014-0.814-0.007-1.629-0.007-2.443 0-0.358-0.105-0.477-0.463-0.541-0.639-0.105-1.278-0.218-1.917-0.316-0.211-0.028-0.337-0.119-0.435-0.309-0.456-0.85-0.934-1.685-1.397-2.528-0.386-0.702-0.969-1.053-1.776-1.046-1.229 0.007-2.45 0-3.679 0.007-0.555 0-1.032 0.351-1.201 0.864-0.169 0.52-0.014 1.095 0.449 1.397 0.232 0.147 0.534 0.246 0.807 0.253 0.927 0.028 1.854 0.014 2.787 0.007 0.175 0 0.26 0.042 0.323 0.218 0.14 0.393 0.302 0.786 0.463 1.172 0.063 0.14 0.049 0.232-0.063 0.344-0.281 0.274-0.548 0.569-0.772 0.814-0.498-0.239-0.92-0.499-1.383-0.646-1.474-0.47-2.794-0.14-3.946 0.892-0.267 0.239-0.52 0.498-0.765 0.758-0.119 0.126-0.225 0.154-0.393 0.105-1.594-0.442-3.187-0.871-4.781-1.306-1.531-0.421-2.801 0.105-3.588 1.474-0.056 0.091-0.147 0.175-0.232 0.239-0.814 0.59-1.636 1.172-2.457 1.762-0.14 0.098-0.26 0.225-0.393 0.337 0 0.105 0 0.211 0 0.316 0.288 0.421 0.576 0.85 0.871 1.271 0.19 0.274 0.351 0.316 0.653 0.169 0.19-0.091 0.372-0.19 0.562-0.281 0.491-0.246 0.976-0.484 1.481-0.737 0.154 0.393 0.302 0.751 0.442 1.116-0.035 0.021-0.049 0.028-0.063 0.035-0.070 0.014-0.14 0.028-0.204 0.042-1.804 0.407-2.984 1.488-3.553 3.244-0.084 0.267-0.126 0.541-0.19 0.814 0.007 0.302 0.007 0.618 0.007 0.934zM21.334 13.131c-0.154 0-0.288 0-0.414 0-1.123-0.028-2.015 0.407-2.675 1.327-0.456 0.632-0.927 1.25-1.404 1.868-0.070 0.084-0.211 0.161-0.316 0.161-1.481 0.014-2.963 0.007-4.437 0-0.098 0-0.225-0.049-0.295-0.119-0.498-0.506-1.095-0.835-1.776-1.018-1.018-0.274-2.050-0.541-3.061-0.843-0.407-0.119-0.744-0.098-1.116 0.112-0.576 0.323-1.179 0.597-1.79 0.906-0.14-0.211-0.267-0.4-0.4-0.597 0.042-0.035 0.063-0.063 0.091-0.084 0.737-0.534 1.474-1.067 2.226-1.587 0.084-0.056 0.232-0.063 0.337-0.042 2.036 0.506 4.072 1.004 6.108 1.531 0.33 0.084 0.555 0.021 0.793-0.218 0.885-0.899 1.762-1.804 2.682-2.675 1.144-1.081 2.97-1.109 4.149-0.070 0.435 0.414 0.842 0.878 1.299 1.348zM21.32 18.165c1.439-1.194 3.567-1.004 4.669 0.014-0.19 0.239-0.576 0.463-0.267 0.807 0.351 0.393 0.632 0.007 0.892-0.204 1.201 1.446 0.997 3.595-0.021 4.669-0.239-0.211-0.47-0.583-0.828-0.253-0.386 0.365 0.028 0.611 0.225 0.871-1.165 1.095-3.496 1.095-4.662 0 0.19-0.253 0.597-0.484 0.246-0.85-0.365-0.372-0.611 0.042-0.864 0.239-1.165-1.397-1.039-3.517 0.007-4.662 0.47 0.358 0.702 0.421 0.871 0.211 0.309-0.379-0.070-0.583-0.267-0.842zM6.829 17.393c0.021 0.323-0.077 0.765 0.428 0.772 0.499 0 0.407-0.442 0.428-0.765 1.538-0.028 3.447 1.889 3.286 3.3-0.309 0.021-0.73-0.070-0.751 0.393-0.028 0.541 0.442 0.435 0.779 0.463-0.14 1.854-1.832 3.251-3.307 3.3-0.028-0.323 0.077-0.772-0.435-0.765-0.505 0-0.4 0.449-0.428 0.772-1.825-0.098-3.286-1.875-3.286-3.293 0.604-0.063 0.779-0.147 0.765-0.428-0.028-0.527-0.463-0.414-0.786-0.442 0.126-1.79 1.762-3.237 3.307-3.307zM27.877 15.982c-0.442-0.33-0.871-0.667-1.313-0.976-0.154-0.105-0.365-0.183-0.548-0.183-1.706-0.014-3.412-0.007-5.125-0.014-0.26 0-0.442 0.077-0.604 0.281-1.13 1.397-2.275 2.78-3.405 4.17-0.105 0.126-0.211 0.183-0.372 0.175-0.695-0.007-1.383-0.007-2.078 0-0.168 0-0.274-0.042-0.372-0.175-0.435-0.583-0.892-1.151-1.334-1.727-0.042-0.056-0.077-0.119-0.133-0.204 1.432 0 2.815-0.007 4.198 0.007 0.253 0 0.428-0.084 0.576-0.288 0.548-0.751 1.109-1.488 1.671-2.226 0.414-0.541 0.962-0.843 1.643-0.85 2.008-0.014 4.009-0.007 6.017 0 0.077 0 0.183 0.021 0.232 0.077 0.512 0.498 1.018 1.011 1.545 1.538-0.218 0.133-0.407 0.26-0.597 0.393zM13.632 12.899c-0.33 0.323-0.618 0.604-0.899 0.892-0.105 0.105-0.19 0.133-0.344 0.098-1.306-0.337-2.612-0.653-3.911-0.983-0.604-0.154-1.215-0.302-1.825-0.456 0.407-0.667 1.327-1.060 2.12-0.857 1.601 0.407 3.202 0.857 4.858 1.306zM18.645 18.432c0.744-0.913 1.467-1.797 2.191-2.668 0.056-0.070 0.197-0.098 0.295-0.098 1.348-0.007 2.696-0.007 4.044-0.007 0.070 0 0.14 0.014 0.246 0.021-0.211 0.344-0.393 0.66-0.576 0.955-2.31-0.442-4.058 0.33-5.301 2.317-0.288-0.169-0.583-0.337-0.899-0.52zM23.777 9.768c-0.477 0-0.899-0.007-1.313 0.007-0.154 0.007-0.232-0.042-0.288-0.19-0.183-0.491-0.386-0.976-0.576-1.46-0.161-0.407-0.225-0.449-0.66-0.449-1.025 0-2.050 0-3.075 0-0.323 0-0.52-0.161-0.52-0.428 0-0.253 0.19-0.414 0.506-0.414 1.229 0 2.45 0 3.679 0 0.4 0 0.702 0.183 0.906 0.527 0.14 0.232 0.267 0.47 0.393 0.709 0.309 0.548 0.618 1.102 0.948 1.699zM24.065 13.131c-0.477 0-0.92 0-1.369 0-0.056 0-0.133-0.007-0.169-0.049-0.477-0.47-0.948-0.948-1.432-1.432 0.211-0.211 0.428-0.393 0.604-0.611 0.281-0.351 0.618-0.485 1.067-0.442 0.428 0.042 0.864 0.007 1.299 0.007 0 0.864 0 1.685 0 2.527zM11.35 18.959c-0.835-1.446-2.043-2.261-3.679-2.443-0.049-0.007-0.126-0.021-0.14-0.056-0.14-0.323-0.267-0.646-0.414-1.018 1.025 0.281 1.98 0.512 2.921 0.814 0.365 0.119 0.73 0.33 1.004 0.597 0.463 0.463 0.857 1.011 1.292 1.545-0.344 0.197-0.653 0.372-0.983 0.562zM24.928 10.688c0.562 0.091 1.109 0.183 1.657 0.274 0 0.737 0 1.439 0 2.148-0.562 0-1.109 0-1.657 0 0-0.807 0-1.601 0-2.422z"></path>
<path fill="#b79950" style="fill: var(--color3, #b79950)" d="M21.762 21.114c0 1.039 0.843 1.896 1.882 1.896 1.046 0.007 1.91-0.849 1.903-1.903 0-1.039-0.857-1.882-1.889-1.882-1.039 0.007-1.889 0.857-1.896 1.889zM23.665 22.174c-0.576 0.007-1.053-0.463-1.060-1.039s0.463-1.053 1.039-1.060 1.053 0.463 1.060 1.039c0.007 0.576-0.463 1.053-1.039 1.060z"></path>
<path fill="#b79950" style="fill: var(--color3, #b79950)" d="M7.25 19.233c-1.039 0-1.889 0.85-1.889 1.889 0 1.046 0.857 1.903 1.91 1.896 1.032-0.007 1.882-0.864 1.875-1.903 0-1.039-0.857-1.882-1.896-1.882zM7.264 20.075c0.576 0.007 1.046 0.484 1.039 1.060s-0.484 1.046-1.060 1.039c-0.576-0.007-1.046-0.484-1.039-1.060 0.007-0.583 0.484-1.046 1.060-1.039z"></path>
</symbol>
<symbol id="burger_menu_icon" viewBox="0 0 32 32">
<path d="M4 18L20 18" stroke="#000000" stroke-width="2" stroke-linecap="round"/>
<path d="M4 12L20 12" stroke="#000000" stroke-width="2" stroke-linecap="round"/>
<path d="M4 6L20 6" stroke="#000000" stroke-width="2" stroke-linecap="round"/></symbol>
<symbol id="drone" viewBox="0 0 32 32">
<path fill="#b79950" style="fill: var(--color3, #b79950)" d="M30.747 21.246c-1.092 1.099-2.191 2.205-3.29 3.297-0.152 0.152-0.188 0.26-0.094 0.463 0.296 0.665 0.13 1.446-0.383 1.967s-1.316 0.694-1.996 0.39c-0.195-0.087-0.304-0.051-0.441 0.087-0.991 1.005-1.996 2.003-2.994 3.001-0.058 0.058-0.123 0.123-0.188 0.181-0.202 0.159-0.405 0.166-0.6-0.014-0.166-0.152-0.166-0.398 0-0.6 0.058-0.065 0.116-0.123 0.181-0.188 0.947-0.954 1.902-1.902 2.856-2.849 0.072-0.072 0.166-0.13 0.282-0.224-0.152-0.087-0.246-0.145-0.333-0.195-1.576-0.853-3.16-1.699-4.736-2.553-0.166-0.087-0.289-0.079-0.47-0.014-0.369 0.137-0.766 0.26-1.157 0.275-0.933 0.036-1.866 0.014-2.791 0.014-0.441 0-0.853-0.094-1.244-0.318-0.065-0.036-0.188-0.051-0.253-0.014-1.692 0.904-3.384 1.815-5.069 2.726-0.022 0.014-0.036 0.043-0.065 0.080 0.629 0.622 1.251 1.251 1.873 1.873 0.441 0.441 0.889 0.882 1.323 1.323 0.239 0.239 0.231 0.528 0.007 0.701-0.195 0.152-0.405 0.123-0.636-0.108-0.542-0.535-1.070-1.070-1.612-1.612-0.506-0.506-1.020-1.012-1.526-1.533-0.109-0.116-0.195-0.13-0.347-0.065-0.723 0.318-1.518 0.166-2.046-0.369s-0.672-1.316-0.354-2.025c0.080-0.166 0.036-0.253-0.080-0.369-1.012-1.005-2.025-2.017-3.037-3.037-0.080-0.079-0.166-0.166-0.224-0.26-0.116-0.188-0.094-0.405 0.087-0.513 0.13-0.080 0.333-0.072 0.499-0.043 0.094 0.014 0.181 0.137 0.26 0.217 1.005 1.005 2.010 2.010 3.015 3.015 0.123 0.123 0.21 0.166 0.39 0.079 0.535-0.253 1.020-0.21 1.685 0.087 1.576-1.576 3.153-3.145 4.722-4.722 0.058-0.058 0.094-0.166 0.087-0.253-0.087-1.598-0.181-3.203-0.282-4.801-0.007-0.108-0.101-0.224-0.174-0.318-0.072-0.087-0.166-0.159-0.253-0.239-1.931-1.931-3.854-3.861-5.785-5.785-0.051-0.051-0.108-0.101-0.188-0.174-0.080 0.080-0.159 0.152-0.231 0.224-0.991 0.991-1.981 1.981-2.979 2.972-0.072 0.072-0.145 0.152-0.231 0.217-0.181 0.123-0.369 0.123-0.528-0.022-0.174-0.152-0.21-0.347-0.080-0.542 0.058-0.087 0.13-0.166 0.21-0.239 1.012-1.012 2.025-2.025 3.037-3.030 0.13-0.123 0.152-0.224 0.080-0.391-0.311-0.701-0.152-1.497 0.376-2.017s1.316-0.672 1.996-0.369c0.188 0.080 0.282 0.051 0.419-0.087 0.954-0.962 1.909-1.916 2.871-2.878 0.145-0.145 0.304-0.289 0.448-0.434 0.094 0 0.195 0 0.289 0 0.39 0.289 0.405 0.513 0.058 0.86-1.027 1.027-2.046 2.054-3.080 3.073-0.116 0.116-0.152 0.195-0.080 0.369 0.094 0.231 0.145 0.499 0.159 0.752 0.014 0.174 0.065 0.275 0.202 0.369 1.251 0.868 2.502 1.75 3.753 2.625 0.123 0.087 0.253 0.174 0.39 0.268 0.897-1.2 2.082-1.837 3.558-1.837 1.482 0 2.675 0.651 3.565 1.844 1.417-0.998 2.813-1.967 4.201-2.95 0.065-0.051 0.108-0.166 0.123-0.253 0.058-0.26 0.065-0.535 0.159-0.781 0.079-0.195 0.043-0.282-0.087-0.412-1.027-1.012-2.039-2.032-3.059-3.051-0.354-0.354-0.333-0.578 0.058-0.86 0.094 0 0.195 0 0.289 0 0.275 0.268 0.55 0.528 0.817 0.803 0.831 0.824 1.663 1.649 2.48 2.487 0.145 0.152 0.253 0.188 0.463 0.101 0.73-0.304 1.396-0.152 1.967 0.376 0.535 0.499 0.701 1.309 0.398 1.988-0.094 0.21-0.051 0.318 0.101 0.463 1.099 1.092 2.191 2.198 3.29 3.297 0 0.094 0 0.195 0 0.289-0.289 0.39-0.513 0.405-0.861 0.058-1.012-1.012-2.025-2.025-3.037-3.037-0.072-0.072-0.145-0.137-0.231-0.217-0.079 0.072-0.137 0.123-0.188 0.174-1.938 1.931-3.869 3.869-5.806 5.806-0.058 0.058-0.101 0.13-0.166 0.159-0.246 0.101-0.246 0.304-0.26 0.521-0.087 1.54-0.181 3.088-0.26 4.628-0.007 0.116 0.072 0.275 0.159 0.362 1.54 1.547 3.095 3.095 4.649 4.642 0.687-0.297 1.15-0.333 1.67-0.087 0.195 0.094 0.282 0.043 0.412-0.087 1.012-1.020 2.032-2.039 3.051-3.059 0.354-0.354 0.578-0.333 0.86 0.058-0.014 0.080-0.014 0.174-0.014 0.275zM17.413 23.408c0-0.137 0-0.26 0-0.376 0-3.478 0-6.956 0-10.434 0-0.123 0-0.253 0.014-0.376 0.036-0.224 0.188-0.333 0.398-0.34s0.376 0.094 0.419 0.318c0.029 0.13 0.029 0.268 0.029 0.398 0 3.391 0 6.783 0 10.174 0 0.108 0 0.217 0 0.383 0.376-0.267 0.571-0.586 0.6-0.969 0.065-0.889 0.123-1.779 0.174-2.675 0.108-1.815 0.224-3.623 0.318-5.438 0.043-0.803 0.108-1.612 0.072-2.415-0.043-0.86-0.463-1.576-1.164-2.22 0 0.354 0.007 0.636 0 0.918-0.007 0.347-0.174 0.528-0.448 0.513-0.268-0.007-0.412-0.181-0.412-0.513-0.007-0.419-0.007-0.846 0.007-1.265 0.007-0.152-0.022-0.224-0.166-0.275-0.846-0.311-1.692-0.318-2.531 0.014-0.072 0.029-0.152 0.159-0.152 0.239-0.014 0.448 0 0.904-0.007 1.352-0.007 0.289-0.166 0.448-0.419 0.456-0.268 0.007-0.427-0.166-0.441-0.492-0.007-0.289 0-0.578 0-0.875-0.036-0.022-0.072-0.036-0.108-0.058-0.065 0.094-0.123 0.195-0.195 0.275-0.658 0.745-0.947 1.613-0.889 2.596 0.145 2.502 0.289 5.004 0.434 7.506 0.043 0.788 0.094 1.569 0.159 2.357 0.029 0.39 0.224 0.701 0.6 0.962 0-0.166 0-0.275 0-0.383 0-3.391 0-6.782 0-10.174 0-0.13 0-0.268 0.029-0.398 0.043-0.217 0.21-0.318 0.419-0.311s0.362 0.123 0.39 0.347c0.014 0.123 0.014 0.246 0.014 0.376 0 3.478 0 6.956 0 10.434 0 0.123 0 0.246 0 0.376 0.976-0.007 1.894-0.007 2.856-0.007zM6.914 8.042c1.569 1.569 3.167 3.167 4.736 4.736 0-0.101 0.007-0.253 0-0.398-0.029-0.622 0.022-1.229 0.26-1.808 0.079-0.202 0.043-0.296-0.13-0.419-1.28-0.882-2.553-1.779-3.825-2.668-0.058-0.043-0.123-0.080-0.137-0.094-0.34 0.246-0.644 0.47-0.904 0.651zM20.313 12.822c1.605-1.605 3.203-3.196 4.765-4.765-0.275-0.202-0.586-0.434-0.911-0.665-1.381 0.962-2.777 1.945-4.194 2.936 0.39 0.81 0.398 1.656 0.34 2.495zM12.583 23.241c-0.535-0.846-0.304-1.808-0.485-2.719-1.417 1.425-2.82 2.842-4.216 4.245 0.087 0.268 0.174 0.557 0.268 0.868 1.468-0.803 2.943-1.591 4.433-2.393zM23.834 25.628c0.101-0.325 0.195-0.615 0.26-0.832-1.425-1.425-2.827-2.827-4.223-4.223-0.145 0.875 0.058 1.822-0.463 2.668 1.482 0.795 2.957 1.591 4.425 2.386zM7.239 6.307c0.007-0.521-0.419-0.954-0.94-0.962-0.513-0.007-0.954 0.434-0.962 0.947s0.427 0.954 0.947 0.954c0.521 0 0.947-0.412 0.954-0.94zM25.707 7.247c0.521-0.007 0.955-0.441 0.947-0.954s-0.456-0.947-0.962-0.947c-0.521 0.007-0.94 0.441-0.94 0.962 0 0.528 0.427 0.94 0.954 0.94zM6.292 24.753c-0.521 0-0.954 0.434-0.954 0.947s0.441 0.954 0.954 0.954c0.521 0 0.947-0.434 0.947-0.954 0-0.528-0.427-0.947-0.947-0.947zM24.753 25.7c0 0.521 0.427 0.954 0.947 0.954 0.513 0 0.954-0.441 0.954-0.954 0-0.521-0.434-0.947-0.954-0.947-0.528 0-0.947 0.419-0.947 0.947z"></path>
</symbol>
<symbol id="armour" viewBox="0 0 32 32">
<path fill="#b79950" style="fill: var(--color3, #b79950)" d="M24.080 0c0.971 0.415 1.934 0.83 2.906 1.254 0.996 0.44 1.37 1.395 0.93 2.391-0.407 0.921-0.739 1.876-1.262 2.731-0.49 0.789-0.855 1.627-1.229 2.457-0.888 1.967-0.631 3.786 0.747 5.446 0.722 0.872 1.453 1.727 2.159 2.607 0.249 0.315 0.423 0.681 0.648 1.013 0.058 0.091 0.183 0.174 0.291 0.191 0.183 0.033 0.374 0 0.556 0.008 0.523 0.033 0.888 0.398 0.905 0.921 0.017 0.556 0.008 1.121 0 1.677-0.008 0.548-0.374 0.913-0.922 0.93-0.174 0.008-0.349 0-0.54 0 0 0.722 0 1.403 0 2.134 0.149 0 0.299 0 0.448 0 0.656 0.008 1.005 0.374 1.013 1.038 0 0.49 0 0.971 0 1.461 0 0.673-0.357 1.029-1.029 1.046-0.133 0-0.266 0-0.448 0 0 0.482 0.008 0.93 0 1.386-0.033 1.461-0.988 2.665-2.408 3.022-0.207 0.050-0.432 0.083-0.639 0.091-0.722 0.008-1.453 0.008-2.175 0.008-0.332 0-0.548-0.191-0.548-0.465s0.216-0.457 0.548-0.465c0.664 0 1.328 0 1.993 0 1.336-0.008 2.291-0.955 2.3-2.291 0.008-0.415 0-0.822 0-1.278-0.291 0-0.556 0.008-0.822 0-0.672-0.017-1.029-0.374-1.038-1.046 0-0.498-0.008-0.996 0-1.494 0.008-0.639 0.374-0.996 1.013-1.004 0.265 0 0.531 0 0.822 0 0-0.714 0-1.403 0-2.134-0.274 0-0.54 0-0.805 0-0.672-0.008-1.029-0.365-1.029-1.046 0-0.49-0.008-0.971 0-1.461 0.008-0.672 0.374-1.029 1.046-1.038 0.158 0 0.307 0 0.54 0-0.158-0.232-0.274-0.423-0.415-0.589-0.706-0.855-1.411-1.71-2.125-2.557-1.677-2.001-1.993-4.184-0.922-6.567 0.075-0.166 0.15-0.34 0.249-0.556-0.764 0.199-1.486 0.149-2.175-0.158-0.681-0.307-1.187-0.814-1.536-1.469-0.033 0.017-0.058 0.025-0.075 0.042-0.93 1.295-2.2 1.851-3.777 1.81-0.888-0.025-1.785-0.017-2.673 0-1.528 0.025-2.756-0.548-3.661-1.793-0.017-0.025-0.050-0.042-0.075-0.058-0.838 1.42-2.059 1.968-3.703 1.652 0.149 0.365 0.315 0.706 0.44 1.054 0.731 2.009 0.457 3.885-0.789 5.612-0.033 0.050-1.702 2.051-1.743 2.084-0.216 0.191-0.49 0.183-0.664-0.041-0.133-0.166-0.133-0.332-0.058-0.49 0.025-0.050 1.685-2.059 1.718-2.117 0.448-0.581 0.747-1.237 0.897-1.959 0.208-0.988 0.116-1.959-0.282-2.889-0.299-0.706-0.515-1.469-0.946-2.084-0.731-1.054-1.121-2.258-1.669-3.387-0.349-0.714-0.208-1.469 0.315-1.976 0.174-0.166 0.39-0.307 0.614-0.407 0.98-0.415 1.951-0.83 2.922-1.245 0.208 0 0.415 0 0.623 0 0.755 0.208 1.187 0.722 1.461 1.436 0.257 0.672 0.589 1.32 0.872 1.984 0.116 0.266 0.183 0.548 0.274 0.822 0.133 0.39 0.208 0.805 0.399 1.162 0.515 0.98 1.353 1.602 2.457 1.669 1.328 0.075 2.673 0.058 4.001 0.008 1.295-0.058 2.557-1.245 2.831-2.491 0.116-0.548 0.307-1.088 0.506-1.619 0.199-0.523 0.473-1.013 0.664-1.536 0.266-0.714 0.706-1.229 1.453-1.436 0.207 0 0.415 0 0.623 0zM24.047 7.015c0.764-0.042 1.469-0.399 1.86-1.195 0.423-0.863 0.797-1.752 1.179-2.632 0.183-0.423 0.033-0.838-0.374-1.021-0.88-0.407-1.776-0.797-2.673-1.171-0.399-0.166-0.805 0-0.988 0.399-0.407 0.88-0.822 1.76-1.171 2.673-0.54 1.411 0.54 2.939 2.167 2.947zM7.941 7.015c1.627 0.008 2.723-1.544 2.167-2.972-0.349-0.897-0.755-1.768-1.162-2.64-0.191-0.423-0.606-0.581-1.046-0.399-0.863 0.365-1.727 0.747-2.582 1.137-0.44 0.199-0.598 0.614-0.407 1.063 0.374 0.872 0.747 1.752 1.162 2.607 0.39 0.789 1.088 1.154 1.868 1.204zM29.775 20.696c0-0.556 0-1.087 0-1.635-0.797 0-1.577 0-2.366 0 0 0.556 0 1.087 0 1.635 0.789 0 1.561 0 2.366 0zM29.775 26.366c0-0.565 0-1.096 0-1.66-0.747 0-1.486 0-2.217 0.008-0.058 0-0.158 0.083-0.158 0.133-0.008 0.498-0.008 1.005-0.008 1.519 0.814 0 1.586 0 2.383 0z"></path>
<path fill="#b79950" style="fill: var(--color3, #b79950)" d="M2.745 27.321c-0.208 0-0.365 0.008-0.531 0-0.581-0.033-0.938-0.398-0.946-0.98-0.008-0.515-0.008-1.038 0-1.552 0.008-0.631 0.365-0.996 1.005-1.005 0.141 0 0.282 0 0.448 0 0-0.722 0-1.403 0-2.134-0.191 0-0.374 0.008-0.556 0-0.506-0.025-0.88-0.382-0.888-0.897-0.017-0.581-0.017-1.162 0-1.743 0.017-0.515 0.399-0.93 0.921-0.888 0.556 0.041 0.805-0.166 1.071-0.639 0.374-0.648 0.905-1.204 1.386-1.785 0.174-0.208 0.448-0.216 0.639-0.066 0.199 0.166 0.241 0.432 0.058 0.664-0.324 0.407-0.664 0.797-0.988 1.204-0.141 0.174-0.257 0.365-0.432 0.606 0.266 0 0.448-0.008 0.631 0 0.581 0.017 0.955 0.374 0.963 0.955 0.017 0.548 0.017 1.096 0 1.644-0.017 0.565-0.382 0.921-0.946 0.938-0.291 0.008-0.573 0-0.888 0 0 0.722 0 1.403 0 2.134 0.282 0 0.556 0 0.838 0 0.623 0.008 0.988 0.365 0.996 0.98 0.008 0.531 0.008 1.054 0 1.586-0.008 0.59-0.365 0.946-0.955 0.971-0.291 0.017-0.573 0-0.938 0 0.042 0.672 0.008 1.32 0.125 1.934 0.183 0.913 1.063 1.578 2.001 1.627 0.133 0.008 0.266 0.008 0.407 0.008 5.106 0 10.211 0 15.317 0 0.116 0 3.42-0.017 3.528 0.008 0.241 0.050 0.382 0.199 0.382 0.457s-0.149 0.399-0.382 0.457c-0.091 0.017-3.379 0.008-3.47 0.008-5.172 0-10.336 0-15.508 0-1.943 0-3.296-1.353-3.304-3.296 0.017-0.374 0.017-0.755 0.017-1.195zM2.222 20.696c0.805 0 1.577 0 2.358 0 0-0.556 0-1.096 0-1.644-0.797 0-1.569 0-2.358 0 0 0.548 0 1.087 0 1.644zM4.588 26.366c0-0.556 0-1.088 0-1.636-0.797 0-1.577 0-2.366 0 0 0.556 0 1.087 0 1.636 0.789 0 1.569 0 2.366 0z"></path>
<path fill="#b79950" style="fill: var(--color3, #b79950)" d="M15.994 21.643c-2.084 0-4.159 0-6.243 0-0.797 0-1.088-0.291-1.088-1.087 0-0.465 0-0.93 0-1.395 0-0.747 0.307-1.063 1.054-1.063 3.943 0 7.887 0 11.83 0 0.291 0 0.581-0.008 0.872 0 0.556 0.017 0.888 0.349 0.897 0.905 0.008 0.548 0.008 1.096 0 1.644 0 0.672-0.316 0.988-0.988 0.988-2.109 0.008-4.217 0.008-6.334 0.008zM9.618 20.688c4.259 0 8.509 0 12.743 0 0-0.565 0-1.096 0-1.627-4.259 0-8.501 0-12.743 0 0 0.548 0 1.087 0 1.627z"></path>
<path fill="#b79950" style="fill: var(--color3, #b79950)" d="M16.002 23.776c2.075 0 4.143 0 6.218 0 0.822 0 1.104 0.282 1.104 1.096 0 0.473 0 0.955 0 1.428 0 0.689-0.316 1.005-1.013 1.013-0.672 0.008-1.345 0-2.017 0-3.495 0-6.982 0-10.477 0-0.872 0-1.146-0.274-1.146-1.154 0-0.465 0-0.93 0-1.395 0-0.664 0.324-0.988 0.996-0.988 2.109 0 4.226 0 6.334 0zM9.618 26.358c4.259 0 8.501 0 12.743 0 0-0.565 0-1.096 0-1.627-4.259 0-8.493 0-12.743 0 0 0.548 0 1.079 0 1.627z"></path>
<path fill="#b79950" style="fill: var(--color3, #b79950)" d="M11.793 11.008c0.249 0.066 0.498 0.116 0.739 0.208 1.079 0.39 2.15 0.797 3.229 1.187 0.141 0.050 0.324 0.050 0.465 0 1.146-0.415 2.291-0.847 3.437-1.262 0.706-0.257 1.461-0 1.868 0.598 0.398 0.589 0.357 1.403-0.133 1.926-0.166 0.174-0.374 0.34-0.598 0.423-1.42 0.54-2.848 1.054-4.276 1.586-0.365 0.133-0.731 0.125-1.096-0.008-1.395-0.515-2.798-1.021-4.192-1.552-0.772-0.291-1.171-1.021-1.021-1.81 0.141-0.722 0.814-1.262 1.577-1.295zM11.129 12.61c-0.008 0.315 0.149 0.523 0.515 0.656 1.345 0.498 2.698 1.005 4.051 1.486 0.166 0.058 0.382 0.083 0.54 0.025 1.411-0.506 2.823-1.021 4.217-1.561 0.174-0.066 0.357-0.307 0.398-0.498 0.116-0.523-0.373-0.872-0.921-0.672-1.054 0.382-2.109 0.739-3.138 1.171-0.556 0.232-1.029 0.208-1.569-0.008-1.038-0.415-2.092-0.789-3.138-1.162-0.515-0.183-0.946 0.091-0.955 0.565z"></path>
</symbol>
<symbol id="facebook_logo" viewBox="0 0 32 32">
<path fill="none" stroke="b59d5a" style="stroke: #b59d5a" stroke-linejoin="miter" stroke-linecap="butt" stroke-miterlimit="10" stroke-width="0.6838" d="M23.344 0.342h-14.769c-4.527 0-8.232 3.788-8.232 8.41v14.427c0 4.622 3.706 8.41 8.232 8.41h14.769c4.527 0 8.232-3.788 8.232-8.41v-14.427c0-4.622-3.706-8.41-8.232-8.41z"></path>
<path d="M17.737 10.639h2.366v-3.556h-2.721c-3.856 0-3.774 3.118-3.774 3.583v2.338h-1.791v3.556h1.791c0 3.897 0 8.287 0 8.287h3.542c0 0 0-4.472 0-8.287h2.366l0.588-3.556h-2.954v-1.778c0-0.383 0.219-0.588 0.588-0.588z"></path>
</symbol>
<symbol id="tire" viewBox="0 0 32 32">
<path fill="#b79950" style="fill: var(--color3, #b79950)" d="M30.933 15.893c-0-0.053-0.002-0.106-0.002-0.159-0.001-0.073-0.002-0.146-0.003-0.218-0-0.018-0.001-0.036-0.001-0.054-0.102-4.366-1.437-8.303-3.526-11.111-1.857-2.51-4.31-4.128-7.027-4.351-0.053 0-0.053 0-0.107 0-0.038 0.003-0.076 0.008-0.114 0.012-0.139-0.007-0.279-0.012-0.419-0.012h-7.467c-2.774 0-5.312 1.448-7.268 3.838-0.056 0.048-0.102 0.105-0.136 0.169-2.328 2.938-3.796 7.23-3.796 11.992 0 8.8 5.013 16 11.2 16h7.467c0.152 0 0.303-0.006 0.454-0.014 0.044 0.005 0.088 0.010 0.133 0.014 5.12-0.427 9.387-5.653 10.4-12.853 0.006-0.056 0.012-0.112 0.017-0.168 0.128-0.966 0.196-1.961 0.196-2.979v-0.107zM13.294 24.397c-0.011-0.062-0.035-0.12-0.069-0.172-0.945-2.361-1.491-5.187-1.491-8.225 0-7.874 3.718-14.333 8.455-14.918 5.388 0.352 9.678 6.928 9.678 14.918s-4.29 14.566-9.679 14.918c-2.896-0.353-5.382-2.855-6.894-6.521zM2.797 21.311c0.117-0.036 0.233-0.114 0.35-0.191l0.693-1.067 1.12 1.12c0.213 0.213 0.533 0.213 0.747 0l1.227-1.227 1.28 1.28c0.213 0.213 0.533 0.213 0.747 0l1.28-1.28 0.876 0.784c0.186 0.951 0.426 1.865 0.716 2.732l-0.953-0.476c-0.267-0.16-0.533-0.053-0.693 0.16l-0.693 1.067-1.12-1.12c-0.213-0.213-0.533-0.213-0.747 0l-1.227 1.227-1.227-1.227c-0.213-0.213-0.533-0.213-0.747 0l-0.77 0.77c-0.339-0.803-0.628-1.657-0.86-2.552zM2.136 16.262l1.331 0.751c0.213 0.107 0.48 0.053 0.64-0.107l1.227-1.227 1.28 1.227c0.213 0.213 0.533 0.213 0.747 0l1.28-1.28 2.041 1.234c0.026 0.767 0.085 1.52 0.177 2.255l-0.405-0.343c-0.213-0.16-0.533-0.107-0.693 0.053l-1.227 1.227-1.227-1.227c-0.213-0.213-0.533-0.213-0.747 0l-1.227 1.227-1.227-1.227c-0.107-0.107-0.267-0.16-0.427-0.16s-0.32 0.107-0.427 0.213l-0.749 1.124c-0.226-1.195-0.353-2.449-0.368-3.741zM3.878 7.634l1.189 0.793c0.16 0.107 0.427 0.107 0.587 0l1.28-0.853 1.333 0.907c0.16 0.107 0.427 0.107 0.587 0l1.333-0.907 1.699 0.825c-0.28 0.817-0.517 1.676-0.705 2.569l-0.675-0.675c-0.213-0.213-0.533-0.213-0.747 0l-1.227 1.227-1.227-1.227c-0.213-0.213-0.533-0.213-0.747 0l-1.226 1.227-1.227-1.227c-0.107-0.107-0.213-0.16-0.373-0.16s-0.267 0.053-0.373 0.16l-0.627 0.649c0.289-1.178 0.675-2.288 1.145-3.308zM5.595 4.77l3.365-0.984 1.387 0.907c0.16 0.107 0.427 0.107 0.587 0l1.333-0.907 1.488 0.723c-0.572 0.876-1.078 1.857-1.507 2.921l-1.954-0.977c-0.16-0.053-0.373-0.053-0.533 0.053l-1.28 0.853-1.28-0.853c-0.16-0.107-0.427-0.107-0.587 0l-1.28 0.853-0.972-0.689c0.373-0.685 0.786-1.322 1.234-1.901zM8.8 14.507c-0.213-0.107-0.48-0.053-0.64 0.107l-1.227 1.227-1.227-1.227c-0.213-0.213-0.533-0.213-0.747 0l-1.333 1.333-1.474-0.849c0.033-0.798 0.108-1.579 0.222-2.338 0.066-0.027 0.132-0.066 0.185-0.119l1.173-1.227 1.227 1.227c0.213 0.213 0.533 0.213 0.747 0l1.227-1.227 1.227 1.227c0.213 0.213 0.533 0.213 0.747 0l1.227-1.227 0.693 0.693c0.040 0.040 0.083 0.072 0.129 0.097-0.171 1.103-0.269 2.249-0.286 3.425l-1.87-1.122zM17.147 1.067c-1.022 0.628-1.962 1.509-2.791 2.591l-1.876-0.938c-0.16-0.053-0.373-0.053-0.533 0.053l-1.28 0.853-1.28-0.853c-0.16-0.107-0.32-0.107-0.48-0.107l-1.848 0.528c1.522-1.35 3.303-2.128 5.208-2.128l4.88 0zM4.128 24.885l0.672-0.672 1.227 1.227c0.213 0.213 0.533 0.213 0.747 0l1.227-1.227 1.227 1.227c0.107 0.107 0.213 0.16 0.373 0.16 0.213 0 0.373-0.107 0.427-0.267l0.8-1.227 1.54 0.77c0.401 0.947 0.865 1.823 1.383 2.614l-1.004 0.669-1.28-0.853c-0.16-0.107-0.427-0.107-0.587 0l-1.28 0.853-1.28-0.853c-0.16-0.107-0.427-0.107-0.587 0l-1.318 0.879c-0.875-0.916-1.648-2.031-2.287-3.3zM12.267 30.933c-1.852 0-3.588-0.736-5.081-2.017l0.814-0.543 1.333 0.853c0.16 0.107 0.427 0.107 0.587 0l1.28-0.853 1.227 0.907c0.16 0.107 0.427 0.107 0.587 0l1.363-0.909c0.828 1.070 1.767 1.94 2.789 2.562l-4.899-0z"></path>
<path fill="#b79950" style="fill: var(--color3, #b79950)" d="M20.8 4.267c-2.761 0-5.076 3.090-5.986 7.521-0.005 0.026-0.011 0.052-0.016 0.078-0.024 0.121-0.048 0.244-0.070 0.367-0.008 0.042-0.015 0.085-0.022 0.127-0.015 0.087-0.030 0.174-0.044 0.261-0.009 0.058-0.019 0.117-0.027 0.176-0.015 0.098-0.029 0.196-0.042 0.295-0.008 0.060-0.016 0.119-0.023 0.179-0.011 0.089-0.022 0.178-0.032 0.268-0.008 0.072-0.016 0.145-0.023 0.218-0.008 0.082-0.016 0.164-0.024 0.246-0.005 0.054-0.010 0.107-0.014 0.161-0.010 0.119-0.019 0.239-0.027 0.359-0.003 0.045-0.005 0.090-0.008 0.135-0.006 0.106-0.012 0.212-0.017 0.319-0.001 0.031-0.003 0.062-0.004 0.093-0.006 0.134-0.010 0.268-0.013 0.403-0.001 0.035-0.001 0.069-0.002 0.104-0.003 0.14-0.004 0.281-0.004 0.423s0.002 0.283 0.004 0.423c0.001 0.035 0.001 0.069 0.002 0.104 0.003 0.135 0.007 0.27 0.013 0.404 0.001 0.031 0.003 0.062 0.004 0.093 0.005 0.107 0.011 0.213 0.017 0.319 0.003 0.045 0.005 0.090 0.008 0.135 0.008 0.12 0.017 0.24 0.027 0.359 0.004 0.054 0.009 0.108 0.014 0.161 0.008 0.082 0.015 0.164 0.024 0.246 0.007 0.073 0.015 0.145 0.023 0.218 0.010 0.090 0.021 0.179 0.032 0.268 0.008 0.060 0.015 0.119 0.023 0.179 0.013 0.099 0.027 0.197 0.042 0.295 0.009 0.059 0.018 0.117 0.028 0.176 0.014 0.088 0.028 0.175 0.043 0.261 0.007 0.042 0.015 0.085 0.022 0.127 0.022 0.123 0.046 0.246 0.070 0.367 0.005 0.026 0.011 0.052 0.016 0.078 0.91 4.431 3.225 7.521 5.986 7.521 3.573 0 6.4-5.173 6.4-11.733s-2.827-11.733-6.4-11.733zM15.538 17.687c-0.003-0.033-0.006-0.066-0.008-0.099-0.004-0.049-0.007-0.098-0.011-0.147-0.005-0.069-0.010-0.138-0.014-0.208-0.002-0.039-0.005-0.078-0.007-0.118-0.006-0.108-0.011-0.217-0.016-0.326-0.001-0.020-0.001-0.040-0.002-0.060-0.003-0.096-0.006-0.193-0.008-0.29-0.001-0.031-0.001-0.062-0.002-0.093-0.002-0.115-0.003-0.23-0.003-0.346 0-0.101 0.001-0.201 0.002-0.302 0.030-1.989 0.351-3.867 0.879-5.464 0.783 1.336 1.252 3.446 1.252 5.765s-0.469 4.429-1.252 5.765c-0.403-1.221-0.686-2.605-0.81-4.079zM20.8 26.667c-1.569 0-3.011-1.456-3.999-3.712 1.13-1.388 1.865-4.033 1.865-6.954s-0.736-5.566-1.865-6.954c0.988-2.256 2.43-3.713 3.999-3.713 2.88 0 5.333 4.907 5.333 10.667s-2.453 10.667-5.333 10.667z"></path>
</symbol>
<symbol id="car-repair" viewBox="0 0 32 32">
<path fill="#b79950" style="fill: var(--color3, #b79950)" d="M24.627 6.111l-2.814-3.94h-4.882v5.131h7.696v-1.19zM20.923 6.276l-0.316-1.264 0.658-0.329-0.459-0.918-1.394 0.697 0.453 1.815h-1.908v-3.078h3.327l2.199 3.078h-2.56z"></path>
<path fill="#b79950" style="fill: var(--color3, #b79950)" d="M7.183 12.946c-0.849 0-1.539 0.691-1.539 1.539s0.691 1.539 1.539 1.539c0.849 0 1.539-0.691 1.539-1.539s-0.691-1.539-1.539-1.539zM7.183 14.998c-0.283 0-0.513-0.23-0.513-0.513s0.23-0.513 0.513-0.513c0.283 0 0.513 0.23 0.513 0.513s-0.23 0.513-0.513 0.513z"></path>
<path fill="#b79950" style="fill: var(--color3, #b79950)" d="M24.627 12.946c-0.849 0-1.539 0.691-1.539 1.539s0.691 1.539 1.539 1.539c0.849 0 1.539-0.691 1.539-1.539s-0.691-1.539-1.539-1.539zM24.627 14.998c-0.283 0-0.513-0.23-0.513-0.513s0.23-0.513 0.513-0.513c0.283 0 0.513 0.23 0.513 0.513s-0.23 0.513-0.513 0.513z"></path>
<path fill="#b79950" style="fill: var(--color3, #b79950)" d="M26.68 26.285h5.26l-0.142-0.627c-0.525-2.312-2.678-3.991-5.118-3.991-1.835 0-3.497 0.975-4.412 2.565h-9.134c-0.525-0.912-1.3-1.613-2.209-2.052h2.772l1.539 1.026h4.773v-5.131h11.288v-1.026h-4.162c0.551-0.539 0.927-1.254 1.042-2.052h2.093c1.272 0 1.539-0.837 1.539-1.539v-4.618c0-1.272-1.038-2.4-1.928-2.55l-2.051-0.513c-0.517-0.131-0.815-0.332-1.248-0.827l-2.579-3.609c-0.662-0.846-1.419-1.223-2.457-1.223h-9.748c-1.038 0-1.796 0.377-2.47 1.241l-2.535 3.553c-0.461 0.531-0.812 0.772-1.236 0.857l-3.098 0.517c-1.471 0.306-2.461 1.539-2.461 3.068v3.591c0 1.112 0.94 2.052 2.052 2.052h1.58c0.25 1.737 1.745 3.078 3.55 3.078h8.054l-1.539 1.026h-13.697v1.026h14.008l1.539-1.026h3.436v3.078h-3.436l-1.539-1.026h-14.008v1.026h6.45c-1.411 0.666-2.496 1.928-2.846 3.478l-0.142 0.626h5.259v1.026h-5.26l0.142 0.627c0.525 2.312 2.678 3.991 5.118 3.991 1.835 0 3.497-0.975 4.412-2.565h9.134c0.915 1.591 2.577 2.565 4.412 2.565 2.443 0 4.596-1.678 5.119-3.991l0.141-0.626h-5.26v-1.026zM24.627 17.050c-1.415 0-2.565-1.151-2.565-2.565s1.151-2.565 2.565-2.565c1.415 0 2.565 1.151 2.565 2.565s-1.151 2.565-2.565 2.565zM3.632 13.972h-1.58c-0.546 0-1.026-0.48-1.026-1.026v-2.565h1.026v1.026h1.026v-1.026c0-0.662-0.364-1.026-1.026-1.026h-1.026c0-1.269 0.849-1.898 1.624-2.059l3.095-0.516c0.67-0.134 1.215-0.491 1.856-1.231l2.552-3.574c0.472-0.604 0.919-0.829 1.648-0.829h9.748c0.729 0 1.175 0.225 1.635 0.811l2.596 3.63c0.503 0.579 0.98 0.979 1.802 1.187l2.090 0.521c0.438 0.075 1.113 0.773 1.113 1.547v0.513h-1.026v1.026h1.026v3.078c0 0.441-0.072 0.513-0.513 0.513h-2.093c-0.25-1.737-1.745-3.078-3.55-3.078s-3.3 1.341-3.55 3.078h-4.146v-1.17l2.648-0.882h1.457v-1.026h-1.119l-0.43-2.153-1.006 0.202 0.424 2.121-2.447 0.816-0.378-0.189 0.475-0.95-2.238-1.678-0.352-1.76h2.452v-5.131h-4.882l-2.814 3.94v1.19h4.197l0.36 1.798-1.858 1.115-1.262-1.682-0.821 0.616 1.817 2.423 2.666-1.6 1.434 1.075-0.551 1.102 1.202 0.6v1.222h-5.172c-0.25-1.737-1.745-3.078-3.55-3.078s-3.3 1.341-3.55 3.078zM9.866 6.276l2.199-3.078h3.327v3.078h-5.526zM7.183 17.050c-1.415 0-2.565-1.151-2.565-2.565s1.151-2.565 2.565-2.565 2.565 1.151 2.565 2.565c0 1.415-1.151 2.565-2.565 2.565zM9.691 17.050c0.551-0.539 0.927-1.254 1.042-2.052h10.343c0.115 0.798 0.49 1.513 1.042 2.052h-12.427zM30.596 28.338c-0.632 1.499-2.209 2.565-3.916 2.565-1.549 0-2.946-0.874-3.645-2.281l-0.142-0.285h-10.384l-0.142 0.285c-0.699 1.407-2.095 2.281-3.645 2.281-1.705 0-3.282-1.066-3.915-2.565h4.941v-3.078h-4.942c0.631-1.499 2.209-2.565 3.916-2.565 1.549 0 2.946 0.874 3.645 2.281l0.142 0.285h10.384l0.142-0.285c0.699-1.407 2.095-2.281 3.645-2.281 1.705 0 3.283 1.066 3.916 2.565h-4.942v3.078h4.942z"></path>
<path fill="#b79950" style="fill: var(--color3, #b79950)" d="M13.853 26.285h-1.026v1.026h1.026v-1.026z"></path>
<path fill="#b79950" style="fill: var(--color3, #b79950)" d="M15.905 26.285h-1.026v1.026h1.026v-1.026z"></path>
<path fill="#b79950" style="fill: var(--color3, #b79950)" d="M17.957 20.129h-1.026v1.026h1.026v-1.026z"></path>
<path fill="#b79950" style="fill: var(--color3, #b79950)" d="M3.592 17.050h-1.026v1.026h1.026v-1.026z"></path>
<path fill="#b79950" style="fill: var(--color3, #b79950)" d="M1.539 17.050h-1.026v1.026h1.026v-1.026z"></path>
</symbol>
<symbol id="instagram_logo" viewBox="0 0 32 32">
<path fill="none" stroke="#b59d5a" style="stroke: #b59d5a" stroke-linejoin="miter" stroke-linecap="butt" stroke-miterlimit="10" stroke-width="0.6838" d="M0.424 8.588v14.769c0 4.526 3.788 8.232 8.41 8.232h14.414c4.622 0 8.41-3.706 8.41-8.232v-14.769c0-4.527-3.788-8.232-8.41-8.232h-14.414c-4.636-0.014-8.41 3.692-8.41 8.232z"></path>
<path d="M20.39 6.769h-8.697c-2.667 0-4.841 2.229-4.841 4.95v8.492c0 2.721 2.188 4.95 4.841 4.95h8.697c2.667 0 4.841-2.229 4.841-4.95v-8.492c0-2.721-2.174-4.95-4.841-4.95zM23.59 20.089c0 1.887-1.504 3.432-3.35 3.432h-8.383c-1.846 0-3.35-1.545-3.35-3.432v-8.246c0-1.887 1.504-3.432 3.35-3.432h8.383c1.846 0 3.35 1.545 3.35 3.432v8.246z"></path>
<path d="M16.041 11.241c-2.557 0-4.622 2.12-4.622 4.718 0 2.612 2.065 4.718 4.622 4.718s4.622-2.12 4.622-4.718c0-2.598-2.065-4.718-4.622-4.718zM16.041 19.022c-1.641 0-2.981-1.368-2.981-3.050s1.34-3.050 2.981-3.050c1.641 0 2.981 1.367 2.981 3.050s-1.34 3.050-2.981 3.050z"></path>
<path d="M20.909 12.062c0.574 0 1.039-0.478 1.039-1.067s-0.465-1.067-1.039-1.067c-0.574 0-1.039 0.478-1.039 1.067s0.465 1.067 1.039 1.067z"></path>
</symbol>
<symbol id="main-idea" viewBox="0 0 32 32">
<path d="M19.351 6.028c-1.202-1.185-2.795-1.825-4.483-1.801-1.625 0.023-3.159 0.671-4.32 1.826s-1.817 2.686-1.848 4.311c-0.001 0.036-0.001 0.078-0.001 0.12 0 1.836 0.79 3.487 2.048 4.632l0.005 0.005c0.511 0.464 0.804 1.129 0.804 1.824v0.831c0 0.536 0.253 1.014 0.646 1.321v1.907c0 0.869 0.707 1.575 1.575 1.575h2.359c0.869 0 1.575-0.707 1.575-1.575v-1.907c0.393-0.307 0.646-0.785 0.646-1.321v-0.831c0-0.694 0.296-1.362 0.814-1.833 1.299-1.184 2.044-2.87 2.044-4.626 0-1.688-0.662-3.271-1.864-4.456zM16.137 21.328h-2.359c-0.18-0-0.325-0.146-0.325-0.325v-1.551h3.010v1.551h0c-0 0.18-0.146 0.325-0.325 0.325h-0zM18.329 14.187c-0.776 0.707-1.221 1.712-1.221 2.757v0.831c-0 0.235-0.191 0.426-0.426 0.426h-3.45c-0.235 0-0.426-0.191-0.426-0.426v-0.831c0-1.047-0.442-2.050-1.214-2.75-1.011-0.92-1.643-2.242-1.643-3.711 0-0.034 0-0.067 0.001-0.101l-0 0.005c0.051-2.67 2.265-4.873 4.936-4.91 0.024-0 0.048-0 0.072-0 1.325 0 2.571 0.511 3.516 1.442 0.962 0.949 1.492 2.215 1.492 3.566 0 1.405-0.596 2.755-1.636 3.702z"></path>
<path d="M27.34 16.462l-1.942-3.547v-2.431c0-5.781-4.703-10.485-10.485-10.485s-10.485 4.703-10.485 10.485v1.8c0 2.237 0.672 4.376 1.947 6.201v5.161c0 0.345 0.28 0.625 0.625 0.625s0.625-0.28 0.625-0.625v-5.361c0 0 0-0 0-0 0-0.138-0.045-0.266-0.121-0.369l0.001 0.002c-1.195-1.646-1.827-3.594-1.827-5.634v-1.8c-0-5.092 4.143-9.235 9.235-9.235s9.235 4.143 9.235 9.235v2.591c0 0 0 0 0 0 0 0.11 0.028 0.213 0.078 0.303l-0.002-0.003 2.018 3.687c0.152 0.279 0.043 0.52-0.011 0.611s-0.213 0.301-0.529 0.301h-0.003l-0.924-0.004c-0.169-0.001-0.326 0.065-0.444 0.182-0.114 0.113-0.184 0.27-0.184 0.443v0 2.789c0 1.491-1.213 2.703-2.703 2.703h-1.876c-0.852 0-1.544 0.693-1.544 1.544v4.777l-8.496-3.819c-0.315-0.142-0.685-0.001-0.826 0.314s-0.001 0.685 0.314 0.826l9.378 4.215c0.075 0.035 0.163 0.055 0.256 0.055 0.345 0 0.625-0.28 0.625-0.625v0-5.743c0-0.162 0.132-0.294 0.294-0.294h1.876c2.18 0 3.953-1.773 3.953-3.953v-2.161l0.305 0.001c0.664 0 1.263-0.34 1.603-0.911 0.342-0.573 0.354-1.265 0.034-1.851z"></path>
<path d="M7.682 26.093c0 0.345-0.28 0.625-0.625 0.625s-0.625-0.28-0.625-0.625c0-0.345 0.28-0.625 0.625-0.625s0.625 0.28 0.625 0.625z"></path>
</symbol>
<symbol id="gearwheel" viewBox="0 0 32 32">
<path d="M17.96 28.24h-3.84l-0.24-2.32c-1.2-0.24-2.32-0.72-3.28-1.36l-1.76 1.44-2.72-2.72 1.44-1.76c-0.64-1.040-1.12-2.16-1.36-3.28l-2.32-0.24v-3.84l2.32-0.24c0.24-1.2 0.72-2.32 1.36-3.28l-1.52-1.92 2.72-2.72 1.76 1.44c1.040-0.64 2.16-1.12 3.28-1.36l0.24-2.32h3.84l0.24 2.32c1.2 0.24 2.32 0.72 3.28 1.36l1.76-1.44 2.72 2.72-1.44 1.76c0.64 1.040 1.12 2.16 1.36 3.28l2.32 0.24v3.84l-2.32 0.24c-0.24 1.2-0.72 2.32-1.36 3.28l1.44 1.76-2.72 2.72-1.76-1.44c-1.040 0.64-2.16 1.12-3.28 1.36l-0.16 2.48zM15.16 27.040h1.68l0.24-2.080 0.48-0.080c1.36-0.24 2.56-0.72 3.68-1.52l0.4-0.24 1.68 1.36 1.2-1.2-1.36-1.68 0.24-0.4c0.8-1.12 1.28-2.32 1.52-3.68l0.080-0.48 2.080-0.24v-1.68l-2.080-0.24-0.16-0.4c-0.24-1.36-0.72-2.56-1.52-3.68l-0.24-0.4 1.36-1.6-1.2-1.2-1.68 1.36-0.4-0.24c-1.12-0.8-2.32-1.28-3.68-1.52l-0.48-0.080-0.24-2.080h-1.68l-0.24 2.080-0.32 0.080c-1.36 0.24-2.56 0.72-3.68 1.52l-0.32 0.24-1.68-1.36-1.2 1.2 1.36 1.68-0.24 0.4c-0.8 1.12-1.28 2.32-1.52 3.68l-0.080 0.48-2.080 0.24v1.68l2.080 0.24 0.080 0.32c0.24 1.36 0.72 2.56 1.52 3.68l0.24 0.4-1.36 1.6 1.2 1.2 1.68-1.36 0.4 0.24c1.12 0.8 2.32 1.28 3.68 1.52l0.48 0.080 0.080 2.16z"></path>
<path d="M16.040 21.92c-3.28 0-5.92-2.64-5.92-5.92s2.64-5.92 5.92-5.92c3.28 0 5.92 2.64 5.92 5.92s-2.64 5.92-5.92 5.92zM16.040 11.28c-2.64 0-4.72 2.080-4.72 4.72s2.080 4.72 4.72 4.72c2.64 0 4.72-2.080 4.72-4.72s-2.080-4.72-4.72-4.72z"></path>
</symbol>
<symbol id="network" viewBox="0 0 32 32">
<path d="M15.44 6.16h1.2v13.36h-1.2v-13.36z"></path>
<path d="M25.76 19.44h-1.2v-6h-17.12v6h-1.2v-7.2h19.52z"></path>
<path d="M16 6.72c-1.68 0-3.040-1.36-3.040-3.040s1.36-3.040 3.040-3.040 3.040 1.36 3.040 3.040c0 1.68-1.36 3.040-3.040 3.040zM16 1.84c-1.040 0-1.84 0.8-1.84 1.84s0.8 1.84 1.84 1.84 1.84-0.8 1.84-1.84c0-1.040-0.8-1.84-1.84-1.84z"></path>
<path d="M6.88 25.040c-1.68 0-3.040-1.36-3.040-3.040s1.36-3.040 3.040-3.040c1.68 0 3.040 1.36 3.040 3.040 0 1.6-1.36 3.040-3.040 3.040zM6.88 20.080c-1.040 0-1.84 0.8-1.84 1.84s0.8 1.84 1.84 1.84c1.040 0 1.84-0.8 1.84-1.84s-0.8-1.84-1.84-1.84z"></path>
<path d="M16 25.040c-1.68 0-3.040-1.36-3.040-3.040s1.36-3.040 3.040-3.040 3.040 1.36 3.040 3.040c0 1.6-1.36 3.040-3.040 3.040zM16 20.080c-1.040 0-1.84 0.8-1.84 1.84s0.8 1.84 1.84 1.84 1.84-0.8 1.84-1.84-0.8-1.84-1.84-1.84z"></path>
<path d="M25.12 25.040c-1.68 0-3.040-1.36-3.040-3.040s1.36-3.040 3.040-3.040 3.040 1.36 3.040 3.040c0.080 1.6-1.36 3.040-3.040 3.040zM25.12 20.080c-1.040 0-1.84 0.8-1.84 1.84s0.8 1.84 1.84 1.84 1.84-0.8 1.84-1.84-0.8-1.84-1.84-1.84z"></path>
</symbol>
<symbol id="radio" viewBox="0 0 32 32">
<path fill="#b79950" style="fill: var(--color3, #b79950)" d="M11.258 8.801c0.016-0.323 0.032-0.621 0.040-0.919 0.048-1.685 0.089-3.379 0.137-5.064 0.024-0.822 0.685-1.322 1.395-1.072 0.435 0.153 0.693 0.524 0.71 1.016 0.056 1.927 0.113 3.862 0.177 5.79 0 0.073 0.008 0.137 0.008 0.234 1.5 0 2.992 0 4.524 0 0-0.492-0.008-0.992 0-1.492 0.016-0.831 0.814-1.379 1.564-1.072 0.46 0.185 0.718 0.548 0.726 1.048s0 1 0 1.54c0.315 0 0.597 0 0.887 0 1.137 0.008 1.943 0.798 1.951 1.935 0 2.121 0.024 4.249-0.016 6.37-0.016 1.121-0.169 2.242-0.226 3.371-0.056 1.064-0.081 2.129-0.089 3.193-0.016 1.508 0 3.016-0.008 4.524 0 1.347-0.75 2.096-2.088 2.096-3.298 0-6.604 0-9.902 0-1.322 0-2.080-0.75-2.080-2.072-0.008-2.242 0-4.483-0.032-6.733-0.016-0.831-0.137-1.661-0.177-2.5-0.056-1.097-0.105-2.193-0.113-3.282-0.016-1.661-0.008-3.322 0-4.983 0-1.121 0.806-1.919 1.927-1.927 0.226 0 0.443 0 0.685 0zM16.023 9.648c-1.798 0-3.604 0-5.403 0-0.71 0-1.121 0.411-1.121 1.129 0 1.637-0.016 3.282 0.008 4.919 0.016 1.089 0.056 2.169 0.113 3.258 0.040 0.831 0.169 1.661 0.177 2.5 0.032 2.266 0.024 4.524 0.040 6.789 0 0.831 0.387 1.218 1.218 1.218 3.314 0 6.62 0 9.934 0 0.855 0 1.234-0.379 1.234-1.234 0-1.782-0.016-3.564 0.008-5.338 0.008-0.935 0.064-1.871 0.113-2.806 0.065-1.177 0.185-2.346 0.202-3.524 0.032-1.911 0.008-3.822 0.008-5.733 0-0.774-0.403-1.169-1.169-1.169-1.798-0.008-3.58-0.008-5.362-0.008zM12.822 8.793c0-0.702 0.016-1.371 0-2.048-0.032-1.306-0.073-2.613-0.121-3.919 0-0.097-0.121-0.194-0.177-0.298-0.073 0.097-0.161 0.194-0.226 0.298-0.024 0.040-0.008 0.097-0.008 0.145-0.056 1.855-0.105 3.717-0.161 5.572 0 0.073 0.008 0.153 0.016 0.242 0.234 0.008 0.468 0.008 0.677 0.008zM19.709 8.793c0-0.524 0-1.016 0-1.508 0-0.194-0.113-0.331-0.298-0.29-0.113 0.024-0.282 0.169-0.29 0.266-0.032 0.508-0.016 1.016-0.016 1.532 0.218 0 0.387 0 0.605 0z"></path>
<path fill="#b79950" style="fill: var(--color3, #b79950)" d="M15.991 16.404c-1.758 0-3.524 0-5.282 0-0.476 0-0.605-0.129-0.605-0.605 0-1.653 0-3.298 0-4.951 0-0.476 0.129-0.605 0.605-0.605 3.54 0 7.080 0 10.62 0 0.476 0 0.605 0.129 0.605 0.605 0 1.653 0 3.298 0 4.951 0 0.476-0.129 0.605-0.613 0.605-1.774 0-3.556 0-5.33 0zM10.96 15.541c3.387 0 6.749 0 10.112 0 0-1.492 0-2.967 0-4.435-3.379 0-6.741 0-10.112 0 0 1.484 0 2.951 0 4.435z"></path>
<path fill="#b79950" style="fill: var(--color3, #b79950)" d="M11.984 19.976c-0.339 0-0.685 0-1.024 0-0.331-0.008-0.484-0.145-0.492-0.468-0.008-0.452-0.008-0.903 0-1.355 0.008-0.29 0.153-0.46 0.444-0.46 0.702-0.008 1.403-0.008 2.113 0 0.306 0.008 0.46 0.169 0.46 0.476 0.008 0.444 0.008 0.887 0 1.322-0.008 0.339-0.153 0.484-0.508 0.484-0.331 0-0.661 0-0.992 0zM11.323 18.541c0 0.21 0 0.387 0 0.573 0.444 0 0.863 0 1.29 0 0-0.202 0-0.387 0-0.573-0.435 0-0.847 0-1.29 0z"></path>
<path fill="#b79950" style="fill: var(--color3, #b79950)" d="M15.999 19.976c-0.339 0-0.685 0.008-1.024 0-0.306-0.008-0.46-0.153-0.468-0.468-0.008-0.452-0.008-0.903 0-1.355 0.008-0.306 0.161-0.468 0.468-0.468 0.693-0.008 1.387-0.008 2.080 0 0.306 0.008 0.46 0.169 0.468 0.476 0.008 0.452 0.008 0.903 0 1.355-0.008 0.306-0.161 0.452-0.468 0.46-0.347 0.008-0.702 0-1.056 0zM16.669 18.549c-0.46 0-0.879 0-1.298 0 0 0.202 0 0.379 0 0.564 0.444 0 0.863 0 1.298 0 0-0.194 0-0.371 0-0.564z"></path>
<path fill="#b79950" style="fill: var(--color3, #b79950)" d="M20.055 19.976c-0.331 0-0.661 0-0.992 0-0.347 0-0.5-0.145-0.508-0.484-0.008-0.444-0.008-0.887 0-1.322 0.008-0.306 0.153-0.468 0.46-0.476 0.693-0.008 1.387-0.008 2.080 0 0.323 0.008 0.468 0.169 0.476 0.492 0.008 0.435 0.008 0.863 0 1.298 0 0.347-0.153 0.492-0.492 0.5-0.339-0.008-0.685-0.008-1.024-0.008zM20.717 18.549c-0.435 0-0.863 0-1.29 0 0 0.202 0 0.387 0 0.564 0.444 0 0.871 0 1.29 0 0-0.202 0-0.379 0-0.564z"></path>
<path fill="#b79950" style="fill: var(--color3, #b79950)" d="M11.976 22.992c-0.355 0-0.702 0.008-1.056 0-0.29-0.008-0.452-0.153-0.452-0.444-0.008-0.46-0.008-0.927 0-1.387 0.008-0.29 0.161-0.452 0.452-0.46 0.702-0.008 1.403-0.008 2.113 0 0.306 0.008 0.452 0.169 0.46 0.484 0.008 0.443 0.008 0.887 0 1.322-0.008 0.331-0.153 0.476-0.484 0.476-0.347 0.016-0.693 0.008-1.032 0.008zM11.323 22.129c0.452 0 0.879 0 1.298 0 0-0.202 0-0.371 0-0.564-0.443 0-0.863 0-1.298 0 0 0.194 0 0.371 0 0.564z"></path>
<path fill="#b79950" style="fill: var(--color3, #b79950)" d="M16.016 22.992c-0.355 0-0.702 0.008-1.056 0-0.29-0.008-0.444-0.153-0.452-0.444-0.008-0.46-0.008-0.927 0-1.387 0.008-0.29 0.161-0.452 0.452-0.452 0.702-0.008 1.403-0.008 2.113 0 0.306 0.008 0.452 0.169 0.452 0.484 0.008 0.443 0.008 0.887 0 1.322-0.008 0.323-0.153 0.476-0.484 0.476-0.339 0.008-0.677 0-1.024 0zM15.37 22.121c0.46 0 0.879 0 1.298 0 0-0.202 0-0.379 0-0.556-0.443 0-0.863 0-1.298 0 0 0.194 0 0.371 0 0.556z"></path>
<path fill="#b79950" style="fill: var(--color3, #b79950)" d="M20.071 22.992c-0.355 0-0.702 0.008-1.056 0-0.29-0.008-0.452-0.153-0.452-0.444-0.008-0.46-0.008-0.927 0-1.387 0.008-0.29 0.161-0.452 0.452-0.46 0.701-0.008 1.403-0.008 2.113 0 0.306 0.008 0.452 0.169 0.452 0.484 0.008 0.443 0.008 0.887 0 1.322-0.008 0.331-0.153 0.476-0.484 0.476-0.347 0.016-0.685 0.008-1.024 0.008zM20.708 22.137c0-0.21 0-0.387 0-0.564-0.444 0-0.871 0-1.282 0 0 0.202 0 0.387 0 0.564 0.444 0 0.855 0 1.282 0z"></path>
<path fill="#b79950" style="fill: var(--color3, #b79950)" d="M11.96 26.016c-0.339 0-0.685 0.008-1.024 0-0.306-0.008-0.468-0.153-0.468-0.46-0.008-0.452-0.008-0.903 0-1.355 0.008-0.306 0.161-0.468 0.468-0.476 0.693-0.008 1.387-0.008 2.080 0 0.306 0.008 0.468 0.161 0.468 0.468 0.008 0.452 0.008 0.903 0 1.355-0.008 0.306-0.153 0.46-0.468 0.468-0.355 0-0.702 0-1.056 0zM11.323 24.581c0 0.21 0 0.387 0 0.573 0.444 0 0.863 0 1.29 0 0-0.202 0-0.387 0-0.573-0.435 0-0.847 0-1.29 0z"></path>
<path fill="#b79950" style="fill: var(--color3, #b79950)" d="M16.032 26.016c-0.355 0-0.702 0.008-1.056 0-0.306-0.008-0.46-0.153-0.468-0.468-0.008-0.452-0.008-0.903 0-1.355 0.008-0.306 0.161-0.468 0.468-0.468 0.693-0.008 1.387-0.008 2.080 0 0.306 0.008 0.46 0.169 0.468 0.476 0.008 0.452 0.008 0.903 0 1.355-0.008 0.306-0.161 0.451-0.468 0.46-0.339 0-0.685 0-1.024 0zM16.669 24.589c-0.451 0-0.871 0-1.29 0 0 0.202 0 0.387 0 0.564 0.444 0 0.855 0 1.29 0 0-0.194 0-0.371 0-0.564z"></path>
<path fill="#b79950" style="fill: var(--color3, #b79950)" d="M20.039 26.016c-0.339 0-0.685 0.008-1.024 0-0.29-0.008-0.444-0.153-0.452-0.443-0.008-0.46-0.008-0.927 0-1.387 0.008-0.29 0.161-0.452 0.452-0.452 0.701-0.008 1.403-0.008 2.113 0 0.306 0.008 0.452 0.169 0.452 0.484 0.008 0.444 0.008 0.887 0 1.322-0.008 0.323-0.153 0.476-0.484 0.476-0.355 0-0.71 0-1.056 0zM19.418 25.145c0.452 0 0.871 0 1.298 0 0-0.202 0-0.371 0-0.564-0.435 0-0.863 0-1.298 0 0 0.193 0 0.371 0 0.564z"></path>
<path fill="#b79950" style="fill: var(--color3, #b79950)" d="M19.072 28.846c-0.371 0-0.742 0.008-1.113 0-0.298-0.008-0.484-0.177-0.484-0.419 0-0.25 0.185-0.419 0.484-0.419 0.742-0.008 1.484-0.008 2.226 0 0.298 0 0.484 0.169 0.484 0.419s-0.185 0.419-0.484 0.419c-0.371 0-0.742 0-1.113 0z"></path>
</symbol>
<symbol id="truck" viewBox="0 0 32 32">
<path fill="#b79950" style="fill: var(--color3, #b79950)" d="M28.114 16.958c0.444 0.243 0.741 0.647 0.849 1.146 0.041 0.216 0.108 0.472 0.135 0.58 0.094 0.27-0.135 0.823-0.445 1.16-0.876 0.917-2.479 0.661-3.004-0.472-0.202-0.432-0.216-1.146-0.027-1.578 0.418-0.971 1.536-1.335 2.492-0.836zM0.7 10.903c-0.242 0.014-0.471 0.067-0.525 0.108-0.121 0.108-0.135 5.003 0 5.125 0.068 0.067 0.93 0.081 3.489 0.081h3.408v2.913l-0.242 0.175c-0.593 0.459-0.579 1.214 0.054 1.605 0.674 0.418 1.617-0.283 1.401-1.052-0.067-0.229-0.418-0.647-0.539-0.647-0.040 0-0.067-0.62-0.067-1.497v-1.497h9.753v1.214c0 1.092 0.013 1.227 0.121 1.322s0.296 0.121 1.118 0.121h0.983l0.108 0.364c0.202 0.701 0.808 1.349 1.522 1.618 0.31 0.121 0.498 0.135 0.93 0.121 0.674-0.041 1.172-0.27 1.63-0.742 0.323-0.351 0.633-0.931 0.633-1.2 0-0.121 0.040-0.148 0.202-0.148 0.175 0 0.202 0.041 0.242 0.216 0.148 0.647 0.633 1.281 1.266 1.618 0.404 0.216 0.458 0.229 1.105 0.229 0.606 0 0.714-0.027 1.024-0.189 0.674-0.364 1.145-0.917 1.32-1.564l0.094-0.324h0.728v0.297c0 0.513 0.013 0.513 0.714 0.513 0.512 0 0.633-0.027 0.674-0.108 0.027-0.067 0.040-1.982 0.040-4.288 0-3.682-0.014-4.194-0.108-4.288s-1.684-0.108-15.371-0.108c-8.406 0-15.465 0-15.708 0.014zM22.725 16.85c0.418 0.108 0.889 0.593 1.037 1.052 0.067 0.189 0.121 0.539 0.135 0.768 0.014 0.701-0.377 1.295-1.078 1.592-0.606 0.256-1.536 0.081-2.021-0.364-0.66-0.62-0.687-1.942-0.054-2.616 0.512-0.539 1.131-0.674 1.98-0.431zM7.692 19.911c0.121 0.27-0.027 0.513-0.31 0.513-0.256 0-0.391-0.108-0.391-0.31 0-0.297 0.067-0.364 0.35-0.364 0.216 0 0.283 0.027 0.35 0.162zM31.266 12.899c0 1.227-0.013 1.43-0.107 1.43s-0.108-0.202-0.108-1.376c0-0.755 0.027-1.403 0.054-1.429 0.135-0.135 0.162 0.067 0.162 1.375zM31.266 17.673c0 1.254-0.013 1.457-0.107 1.457s-0.108-0.216-0.108-1.457c0-1.24 0.014-1.456 0.108-1.456s0.107 0.216 0.107 1.456zM30.31 17.241v1.011h-0.296c-0.296 0-0.296-0.013-0.35-0.256-0.108-0.58-0.62-1.24-1.226-1.591l-0.337-0.202h2.209v1.038zM26.134 16.365c-0.62 0.31-1.105 0.89-1.32 1.605-0.108 0.364-0.256 0.351-0.364-0.027-0.202-0.688-0.66-1.254-1.253-1.564l-0.31-0.162 1.765-0.014h1.765l-0.283 0.162zM20.961 16.365c-0.593 0.297-1.105 0.931-1.28 1.605l-0.081 0.283h-1.549v-2.023h3.22l-0.31 0.135zM30.741 14.976l0.525 0.054v0.593h-30.566v-0.607l0.364-0.027c0.633-0.054 29.152-0.054 29.677-0.013zM30.364 11.456c0.067 0.014 0.081 0.351 0.081 1.443v1.43h-28.869v-1.416c0-0.782 0.014-1.429 0.041-1.443 0.027-0.041 28.532-0.041 28.748-0.014zM0.956 12.912c0.013 1.376 0.013 1.403-0.121 1.403s-0.135-0.041-0.135-1.429c0-1.322 0.013-1.43 0.121-1.403 0.094 0.027 0.108 0.148 0.135 1.429zM22.483 18.158c0.31 0.297 0.202 0.782-0.189 0.904-0.418 0.148-0.728-0.081-0.728-0.513 0-0.229 0.041-0.323 0.175-0.431 0.256-0.175 0.539-0.175 0.741 0.041zM21.756 17.47c-1.145 0.418-0.983 2.064 0.189 2.198 0.404 0.041 0.593-0.027 0.889-0.27 0.445-0.391 0.539-0.823 0.296-1.335-0.269-0.526-0.862-0.782-1.374-0.594zM26.929 17.484c-0.714 0.31-0.97 1.119-0.552 1.699 0.458 0.634 1.307 0.674 1.792 0.094 0.498-0.593 0.283-1.443-0.458-1.767-0.337-0.162-0.471-0.162-0.781-0.027zM27.71 18.118c0.148 0.121 0.189 0.459 0.108 0.674-0.148 0.337-0.687 0.418-0.93 0.135-0.216-0.283-0.148-0.715 0.135-0.863 0.162-0.081 0.552-0.054 0.687 0.054z"></path>
</symbol>
<symbol id="close-icon" viewBox="0 0 22 22">
<path fill="none" d="M16.5 5.5L5.5 16.5" stroke="#EFEDE8" stroke-width="2" stroke-linecap="round" stroke-linejoin="round"/>
<path fill="none" d="M5.5 5.5L16.5 16.5" stroke="#EFEDE8" stroke-width="2" stroke-linecap="round" stroke-linejoin="round"/>
</symbol>
<symbol id="arrow-right" viewBox="0 0 32 32">
<path fill="#2b2a29" d="M16 0c-8.837 0-16 7.163-16 16s7.163 16 16 16 16-7.163 16-16-7.163-16-16-16zM16 29c-7.18 0-13-5.82-13-13s5.82-13 13-13 13 5.82 13 13-5.82 13-13 13z"></path>
<path fill="#2b2a29" d="M11.086 22.086l2.829 2.829 8.914-8.914-8.914-8.914-2.828 2.828 6.086 6.086z"></path>
</symbol>
<symbol id="arrow-left" viewBox="0 0 32 32">
<path fill="#2b2a29" d="M16 32c8.837 0 16-7.163 16-16s-7.163-16-16-16-16 7.163-16 16 7.163 16 16 16zM16 3c7.18 0 13 5.82 13 13s-5.82 13-13 13-13-5.82-13-13 5.82-13 13-13z"></path>
<path fill="#2b2a29" d="M20.914 9.914l-2.829-2.829-8.914 8.914 8.914 8.914 2.828-2.828-6.086-6.086z"></path>
</symbol>
</defs>
</svg>
