<?xml version="1.0" encoding="UTF-8"?> <svg xmlns="http://www.w3.org/2000/svg" width="52" height="48" viewBox="0 0 52 48" fill="none"> <path d="M1 33.6361C1.49548 34.3533 2.004 35.0574 2.4734 35.8006C2.7733 36.283 3.13839 36.4917 3.7121 36.4786C4.65091 36.4395 5.58972 36.4656 6.56764 36.4656C6.95881 38.3302 7.91066 39.8166 9.50141 40.8597C10.6749 41.629 11.9788 41.9811 13.387 41.9289C16.373 41.8376 18.4592 40.0383 19.6718 36.5047C24.1442 36.5047 28.6166 36.5047 33.0107 36.5047C33.3888 37.3392 33.6496 38.1998 34.132 38.9039C35.7358 41.29 38.0437 42.3201 40.8602 41.7985C43.6114 41.29 45.3716 39.5558 46.1018 36.8307C46.167 36.5829 46.2844 36.4917 46.5321 36.4004C47.8751 35.9049 49.2051 35.3833 50.509 34.8096C50.7437 34.7053 50.9784 34.3141 50.9784 34.0534C51.0045 30.1938 51.0045 26.3473 50.9914 22.4878C50.9914 22.2531 50.861 21.9662 50.7046 21.7967C49.9874 21.0405 49.2573 20.2972 48.501 19.5931C48.3184 19.4236 48.0186 19.3063 47.7708 19.2932C44.2503 19.0455 40.7298 18.8108 37.2092 18.5891C36.792 18.5631 36.5573 18.4196 36.3356 18.0415C34.7579 15.2903 33.1411 12.5651 31.5634 9.82694C31.2765 9.33146 30.9245 9.12284 30.3507 9.12284C24.4832 9.13588 18.6157 9.13587 12.7351 9.13587C12.4221 9.13587 12.1874 9.05764 11.9658 8.82294C11.1574 7.98844 10.3359 7.18003 9.52749 6.37161C9.01897 5.87613 8.65388 5.87613 8.14536 6.37161C5.88962 8.62735 3.63388 10.8831 1.37813 13.1388C1.26078 13.2562 1.14343 13.3996 1.02608 13.53C1.02608 13.7256 1.02608 13.9212 1.02608 14.1168C2.04312 15.1468 3.06016 16.19 4.09024 17.2331C3.04712 18.3675 2.04312 19.4627 1.02608 20.558C1 24.913 1 29.2681 1 33.6361ZM3.00801 20.7275C3.06016 20.6363 3.09928 20.5841 3.1384 20.5319C6.11128 17.3244 9.08417 14.1168 12.0701 10.9222C12.1874 10.7918 12.4352 10.7136 12.6177 10.7136C14.5996 10.7005 16.5816 10.7005 18.5765 10.7005C18.6939 10.7005 18.8243 10.7266 18.9416 10.7397C18.9416 14.8991 18.9416 19.0325 18.9416 23.1919C18.9416 23.9822 18.5635 24.7696 18.5635 24.7696C18.055 25.9692 17.5465 27.1036 17.0771 28.2641C16.9467 28.577 16.7902 28.6552 16.4642 28.6552C14.0129 28.6422 11.5485 28.6422 9.0972 28.6422C8.40614 28.6422 8.24967 28.7465 8.01497 29.3854C7.40214 31.0153 6.77627 32.6321 6.18951 34.275C6.03304 34.7314 5.82442 34.8618 5.3159 34.927C4.16847 35.0574 3.41221 34.7053 2.92977 33.6492C2.74722 33.258 2.57771 32.919 2.57771 32.4756C2.59075 29.2941 2.59076 26.0996 2.59076 22.905C2.59076 22.7355 2.59076 22.566 2.59076 22.3052C3.73819 23.0745 4.79435 23.7917 5.87658 24.4697C6.11128 24.6131 6.41117 24.7175 6.68499 24.7305C7.8585 24.7566 9.03201 24.7435 10.1925 24.7435C10.8053 24.7435 11.1704 24.4567 11.1704 23.9612C11.1704 23.4788 10.8183 23.1789 10.2055 23.1789C9.1624 23.1789 8.11928 23.1789 7.07616 23.1789C6.91969 23.1789 6.73715 23.1789 6.60676 23.1006C5.39413 22.3183 4.20759 21.5229 3.00801 20.7275ZM20.5193 10.7136C20.6497 10.7005 20.728 10.7005 20.8062 10.7005C23.8312 10.7005 26.8563 10.7006 29.8813 10.6875C30.1943 10.6875 30.2986 10.844 30.429 11.0526C31.9676 13.7126 33.5322 16.3595 35.0578 19.0194C35.1752 19.228 35.1882 19.541 35.136 19.7757C34.9796 20.5319 34.6275 21.2752 34.6014 22.0314C34.5232 24.3263 34.5754 26.6211 34.5754 28.916C34.5754 29.1377 34.5493 29.3724 34.4711 29.581C33.8582 31.2369 33.2323 32.8929 32.6195 34.5619C32.5152 34.8487 32.3718 34.9139 32.0849 34.9139C28.2775 34.9009 24.4702 34.9009 20.6628 34.9139C20.3759 34.9139 20.2325 34.8227 20.1412 34.5488C19.5675 32.9842 18.9677 31.4195 18.394 29.8418C18.3158 29.6071 18.3158 29.2941 18.4201 29.0725C19.0329 27.586 19.6849 26.1126 20.2977 24.6392C20.4281 24.3132 20.5063 23.9482 20.5063 23.6091C20.5193 20.2972 20.5193 16.9723 20.5193 13.6604C20.5193 12.6825 20.5193 11.7306 20.5193 10.7136ZM36.14 28.6552C36.14 28.4205 36.14 28.251 36.14 28.0685C36.14 26.3473 36.1661 24.6262 36.127 22.905C36.1009 22.0445 36.2835 21.236 36.5703 20.4407C36.6616 20.206 36.7529 20.1147 37.0267 20.1408C39.9474 20.3494 42.8682 20.6102 45.7889 20.7014C47.0928 20.7406 47.9925 21.1969 48.853 22.1227C49.4007 22.7094 49.492 23.2571 49.3876 23.9873C49.2051 23.9873 49.0356 23.9873 48.853 23.9873C46.5582 23.9873 44.2633 23.9873 41.9815 23.9873C41.8381 23.9873 41.6816 23.9742 41.5382 24.0003C41.1209 24.0655 40.8732 24.3263 40.8471 24.7566C40.821 25.1608 41.134 25.4998 41.5512 25.552C41.6946 25.565 41.8381 25.565 41.9945 25.565C44.2894 25.565 46.5843 25.565 48.8661 25.565C49.0356 25.565 49.2181 25.565 49.4268 25.565C49.4268 28.2249 49.4268 30.8197 49.4137 33.4145C49.4137 33.5057 49.3094 33.6492 49.2181 33.6883C48.4097 34.0273 47.6013 34.3402 46.7538 34.6792C46.6755 34.4967 46.6103 34.3402 46.5582 34.1968C45.9845 32.6582 45.3977 31.1326 44.824 29.594C44.498 28.7335 44.4198 28.6813 43.5201 28.6813C41.0818 28.6552 38.6435 28.6552 36.14 28.6552ZM34.5754 35.3051C34.5623 32.5539 36.8181 30.246 39.5563 30.2199C42.3857 30.1938 44.6936 32.4365 44.7197 35.2269C44.7458 38.0433 42.477 40.3642 39.6866 40.3642C36.8833 40.3773 34.5884 38.1215 34.5754 35.3051ZM8.02801 35.3051C8.01497 32.5539 10.2707 30.246 13.0089 30.2199C15.8384 30.1938 18.1463 32.4365 18.1723 35.2269C18.1984 38.0433 15.9296 40.3642 13.1393 40.3642C10.3359 40.3773 8.04105 38.1215 8.02801 35.3051ZM5.19855 16.0074C4.44229 15.2512 3.69907 14.521 3.03408 13.856C4.96385 11.9262 6.9197 9.97037 8.78427 8.10579C9.41014 8.71863 10.0751 9.37058 10.7532 10.0356C8.92769 12.0045 7.05009 14.0125 5.19855 16.0074Z" fill="#B79950"></path> <path d="M13.1134 20.0624C14.1956 20.0624 15.2909 20.0624 16.3731 20.0624C17.1163 20.0624 17.3901 19.8016 17.3901 19.0844C17.3901 17.1416 17.3901 15.1858 17.3901 13.243C17.3901 12.5389 17.1163 12.2651 16.4252 12.2651C15.7603 12.2651 15.0953 12.2259 14.4303 12.2781C14.1434 12.3042 13.7783 12.4476 13.6088 12.6693C12.0572 14.6773 10.5577 16.7114 9.03215 18.7324C8.82352 19.0062 8.6801 19.3452 8.9148 19.619C9.09735 19.8277 9.43636 20.0363 9.71018 20.0493C10.8446 20.0884 11.979 20.0624 13.1134 20.0624ZM11.1705 18.4847C12.2137 17.0895 13.2437 15.8117 14.1565 14.4556C14.6128 13.7906 15.1344 13.7385 15.7994 13.8689C15.7994 15.4205 15.7994 16.9461 15.7994 18.4847C14.2608 18.4847 12.7613 18.4847 11.1705 18.4847Z" fill="#B79950"></path> <path d="M22.0842 22.8005C22.0842 25.9559 22.0842 29.1114 22.0842 32.2668C22.0842 33.1013 22.3319 33.349 23.1534 33.349C25.3178 33.349 27.4823 33.336 29.6337 33.3621C30.1814 33.3621 30.5073 33.1665 30.7029 32.6449C31.1463 31.4584 31.6417 30.2979 32.1111 29.1114C32.1894 28.9027 32.2285 28.668 32.2285 28.4464C32.2415 26.8686 32.2806 25.2909 32.2155 23.7132C32.1633 22.3963 32.3198 21.1185 32.8413 19.9189C33.0499 19.4495 32.9848 19.0322 32.75 18.5759C31.7852 16.6982 30.8464 14.8076 29.9206 12.9169C29.6859 12.4475 29.373 12.252 28.8514 12.252C26.9347 12.265 25.0179 12.2519 23.1012 12.265C22.3449 12.265 22.0842 12.5258 22.0842 13.2951C22.0842 16.4635 22.0842 19.632 22.0842 22.8005ZM31.0289 20.0884C30.9116 20.8316 30.742 21.5748 30.6899 22.318C30.6247 23.0873 30.6769 23.8827 30.6769 24.652C30.6769 24.9389 30.6508 25.2388 30.6769 25.5256C30.8985 27.6119 30.4421 29.5416 29.5294 31.4062C29.399 31.68 29.2686 31.7843 28.9687 31.7843C27.3258 31.7713 25.6829 31.7713 24.04 31.7713C23.9227 31.7713 23.7923 31.7452 23.688 31.7452C23.688 27.8335 23.688 23.961 23.688 20.0884C26.1784 20.0884 28.6297 20.0884 31.0289 20.0884ZM23.6749 18.4846C23.6749 16.9069 23.6749 15.3813 23.6749 13.8166C25.2787 13.8166 26.8434 13.8036 28.4211 13.8297C28.5515 13.8297 28.708 13.9992 28.7862 14.1426C29.2165 14.9771 29.6337 15.8246 30.051 16.6722C30.3509 17.2589 30.6377 17.8587 30.9507 18.4846C28.4863 18.4846 26.0871 18.4846 23.6749 18.4846Z" fill="#B79950"></path> <path d="M36.5312 35.3045C36.5312 37.0256 37.9524 38.4208 39.6866 38.4078C41.3947 38.3947 42.7769 36.9996 42.7769 35.2915C42.7769 33.5703 41.3686 32.1621 39.6475 32.1621C37.9133 32.1751 36.5181 33.5834 36.5312 35.3045ZM38.0959 35.3045C38.0959 34.4439 38.7739 33.7529 39.6345 33.7268C40.5081 33.7137 41.2252 34.4179 41.2252 35.2915C41.2252 36.139 40.5211 36.8431 39.6736 36.8431C38.813 36.8561 38.0959 36.152 38.0959 35.3045Z" fill="#B79950"></path> <path d="M13.1003 38.4215C14.8214 38.4215 16.2296 37.0133 16.2296 35.2922C16.2296 33.5841 14.8344 32.1889 13.1394 32.1759C11.3922 32.1628 9.97091 33.571 9.98395 35.3313C9.98395 37.0264 11.3922 38.4085 13.1003 38.4215ZM13.1133 33.7405C13.9608 33.7405 14.6649 34.4447 14.6649 35.2922C14.6649 36.1658 13.9478 36.8699 13.0742 36.8569C12.2266 36.8438 11.5356 36.1267 11.5486 35.2791C11.5617 34.4186 12.2527 33.7275 13.1133 33.7405Z" fill="#B79950"></path> </svg> 