<?xml version="1.0" encoding="UTF-8"?> <svg xmlns="http://www.w3.org/2000/svg" width="52" height="48" viewBox="0 0 52 48" fill="none"> <path d="M4.27373 33.0973C4.37642 33.5537 4.45628 34.0101 4.59318 34.4664C5.60858 37.8663 8.86014 40.1139 12.3513 39.8286C15.9223 39.5434 18.7631 36.8395 19.2423 33.2799C19.3906 32.2074 19.2651 31.1578 18.9685 30.0854C19.596 29.7203 20.2235 29.3666 20.8624 29.0015C21.2845 29.5377 21.6952 30.0511 22.0831 30.576C22.2885 30.8498 22.5395 30.9753 22.8818 30.9639C24.3763 30.9525 25.8709 30.9753 27.3655 30.941C27.6279 30.9296 27.9359 30.7699 28.1185 30.576C28.5748 30.0968 28.9741 29.5606 29.4077 29.0243C30.0352 29.3894 30.6399 29.7317 31.2331 30.074C29.9439 34.5006 32.6364 38.3911 36.139 39.4864C39.8013 40.6387 43.6917 38.8931 45.2776 35.4362C46.852 31.9793 45.6541 27.5298 41.6837 25.5104C42.026 24.9399 42.3683 24.3695 42.7334 23.7534C43.3837 24.244 44.0226 24.7232 44.6501 25.1909C45.1749 25.5788 45.3232 25.5902 45.8708 25.2252C46.4413 24.8487 47.0117 24.4722 47.5708 24.0843C48.0956 23.7192 48.1412 23.3084 47.6963 22.8521C46.7493 21.8937 45.7796 20.9468 44.8326 19.977C44.6957 19.8401 44.593 19.5891 44.593 19.3952C44.5702 18.0717 44.5816 16.7483 44.5816 15.4249C44.5816 14.843 44.4105 14.649 43.8286 14.5464C42.7904 14.3752 41.7522 14.1927 40.714 14.033C40.3717 13.9873 40.1663 13.839 40.0066 13.531C39.265 12.1505 38.4892 10.7928 37.7362 9.42374C37.1087 8.28284 36.1618 7.71239 34.8498 7.7238C32.8532 7.73521 30.868 7.7238 28.8715 7.73521C27.9702 7.73521 27.1943 8.30566 26.9205 9.13852C26.6467 9.98278 26.8977 10.9183 27.6507 11.4089C28.0272 11.6485 28.5178 11.8082 28.9627 11.8196C30.4687 11.8653 31.9747 11.8424 33.4921 11.831C33.7773 11.831 33.9142 11.8995 34.0169 12.1847C34.2451 12.8236 34.5075 13.4625 34.7699 14.09C34.8726 14.3182 34.8498 14.4665 34.6672 14.649C34.2109 15.094 33.7773 15.5732 33.4122 15.9725C32.6022 15.5846 31.9177 15.1624 31.1647 14.9229C28.7688 14.1585 26.6239 14.6947 24.7528 16.3718C24.3193 16.7597 23.9086 17.1818 23.5092 17.604C23.3153 17.8093 23.1442 17.855 22.8703 17.7751C20.2805 17.0563 17.6907 16.3604 15.1008 15.653C12.6137 14.9685 10.5487 15.8242 9.27086 18.0489C9.17959 18.1972 9.03127 18.3341 8.89437 18.4368C7.57093 19.3952 6.23608 20.3421 4.90123 21.3005C4.67305 21.4602 4.4791 21.6656 4.26233 21.8481C4.26233 22.0192 4.26233 22.1904 4.26233 22.3615C4.7301 23.046 5.19786 23.742 5.67704 24.4265C5.98508 24.8715 6.24748 24.9399 6.73807 24.7003C7.04611 24.552 7.34274 24.3923 7.65079 24.244C8.44941 23.8447 9.23664 23.4568 10.0581 23.046C10.3091 23.6849 10.5487 24.2668 10.7768 24.8601C10.7198 24.8943 10.697 24.9057 10.6742 24.9171C10.5601 24.9399 10.446 24.9627 10.3433 24.9856C7.4112 25.6473 5.49449 27.4043 4.57036 30.2565C4.43346 30.69 4.36501 31.135 4.26233 31.58C4.27374 32.0705 4.27373 32.5839 4.27373 33.0973ZM34.6672 19.3381C34.4162 19.3381 34.1995 19.3381 33.9941 19.3381C32.1687 19.2925 30.7197 19.9998 29.6473 21.4944C28.9057 22.5212 28.1413 23.5252 27.3655 24.5292C27.2514 24.6661 27.0232 24.7916 26.8521 24.7916C24.4448 24.8144 22.0375 24.803 19.6416 24.7916C19.4819 24.7916 19.2765 24.7118 19.1624 24.5977C18.3524 23.7762 17.3826 23.24 16.276 22.9434C14.6217 22.4984 12.9445 22.0649 11.3017 21.5743C10.6399 21.3803 10.0923 21.4146 9.48763 21.7568C8.5521 22.2816 7.57093 22.7266 6.57835 23.2286C6.35017 22.8863 6.1448 22.5783 5.92803 22.2588C5.99649 22.2018 6.03071 22.1561 6.07635 22.1219C7.27429 21.2548 8.47223 20.3878 9.69299 19.5435C9.8299 19.4522 10.0695 19.4408 10.2406 19.475C13.5492 20.2965 16.8578 21.1065 20.1664 21.9622C20.7026 22.0991 21.0677 21.9964 21.4556 21.6085C22.8932 20.1482 24.3193 18.6764 25.8139 17.2617C27.6735 15.5047 30.6399 15.4591 32.5566 17.1476C33.2639 17.8207 33.9256 18.5737 34.6672 19.3381ZM34.6444 27.5184C36.9832 25.5788 40.4402 25.8869 42.2314 27.5412C41.9233 27.9291 41.2958 28.2942 41.7978 28.8532C42.3683 29.4921 42.8246 28.8646 43.2468 28.5223C45.1977 30.8726 44.8668 34.3637 43.2125 36.1093C42.8246 35.767 42.4481 35.1624 41.8663 35.6986C41.2388 36.2919 41.9119 36.6912 42.2314 37.1133C40.3375 38.8931 36.5497 38.8931 34.6558 37.1133C34.9639 36.7026 35.6256 36.3261 35.0551 35.7328C34.4619 35.1281 34.0625 35.8013 33.6518 36.1207C31.7579 33.8503 31.9633 30.4048 33.6632 28.5452C34.4276 29.127 34.8041 29.2297 35.0779 28.8874C35.5799 28.2713 34.9639 27.9405 34.6444 27.5184ZM11.0963 26.2634C11.1305 26.7882 10.9708 27.5069 11.7922 27.5184C12.6023 27.5184 12.454 26.7996 12.4882 26.2748C14.9868 26.2291 18.09 29.3438 17.8276 31.637C17.3256 31.6712 16.6411 31.5229 16.6068 32.2759C16.5612 33.1544 17.3256 32.9832 17.8732 33.0289C17.645 36.0409 14.8955 38.3112 12.4996 38.3911C12.454 37.8663 12.6251 37.1361 11.7922 37.1475C10.9708 37.1475 11.1419 37.8777 11.0963 38.4025C8.12996 38.2428 5.7569 35.3563 5.7569 33.0517C6.73807 32.949 7.0233 32.8121 7.00048 32.3558C6.95484 31.5001 6.24749 31.6826 5.72267 31.637C5.92804 28.7277 8.58632 26.3775 11.0963 26.2634ZM45.3004 23.9702C44.5816 23.4339 43.8857 22.8863 43.1669 22.3843C42.9159 22.2132 42.5736 22.0877 42.277 22.0877C39.5046 22.0649 36.7322 22.0763 33.9485 22.0649C33.5263 22.0649 33.2297 22.1904 32.9673 22.5212C31.1304 24.7916 29.2708 27.0392 27.4339 29.2982C27.2628 29.5035 27.0917 29.5948 26.8293 29.5834C25.6998 29.572 24.5817 29.572 23.4522 29.5834C23.1784 29.5834 23.0073 29.5149 22.8475 29.2982C22.1402 28.3512 21.3986 27.4271 20.6798 26.4915C20.6114 26.4003 20.5543 26.2976 20.4631 26.1607C22.7905 26.1607 25.0381 26.1493 27.2856 26.1721C27.6963 26.1721 27.9816 26.0352 28.2212 25.7043C29.1111 24.4836 30.0238 23.2856 30.9365 22.0877C31.6096 21.2092 32.4995 20.7186 33.6062 20.7072C36.8691 20.6844 40.1207 20.6958 43.3837 20.7072C43.5092 20.7072 43.6803 20.7414 43.7602 20.8327C44.593 21.6427 45.4145 22.4756 46.2701 23.3313C45.9165 23.548 45.6084 23.7534 45.3004 23.9702ZM22.1516 18.9616C21.6154 19.4864 21.1476 19.9428 20.6912 20.4106C20.5201 20.5817 20.3832 20.6273 20.1322 20.5703C18.0101 20.0227 15.8881 19.5093 13.7774 18.973C12.7962 18.722 11.8037 18.4825 10.8111 18.2315C11.4728 17.1476 12.9674 16.5087 14.2566 16.8396C16.8578 17.5013 19.4591 18.2315 22.1516 18.9616ZM30.2976 27.9519C31.5069 26.4687 32.6821 25.0312 33.8572 23.6165C33.9485 23.5024 34.1766 23.4568 34.3364 23.4568C36.5269 23.4454 38.7174 23.4454 40.9079 23.4454C41.022 23.4454 41.1361 23.4682 41.3072 23.4796C40.965 24.0386 40.6683 24.552 40.3717 25.0312C36.6182 24.3124 33.7773 25.5674 31.7579 28.7962C31.2902 28.5223 30.811 28.2485 30.2976 27.9519ZM38.6375 13.8732C37.8617 13.8732 37.1772 13.8618 36.5041 13.8846C36.2531 13.8961 36.1276 13.8162 36.0363 13.5766C35.7397 12.778 35.4088 11.9908 35.1008 11.2035C34.8384 10.5418 34.7357 10.4734 34.0283 10.4734C32.3626 10.4734 30.6969 10.4734 29.0312 10.4734C28.5064 10.4734 28.1869 10.211 28.1869 9.77741C28.1869 9.36669 28.495 9.10429 29.0084 9.10429C31.0049 9.10429 32.9901 9.10429 34.9867 9.10429C35.637 9.10429 36.1276 9.40092 36.4584 9.95996C36.6866 10.3365 36.892 10.7244 37.0973 11.1123C37.5993 12.0022 38.1013 12.9035 38.6375 13.8732ZM39.1053 19.3381C38.3295 19.3381 37.6107 19.3381 36.8806 19.3381C36.7893 19.3381 36.6638 19.3267 36.6067 19.2583C35.8309 18.4939 35.0665 17.7181 34.2793 16.9308C34.6216 16.5886 34.9753 16.2919 35.2605 15.9383C35.7168 15.3678 36.2645 15.151 36.9946 15.2195C37.6906 15.2879 38.3979 15.2309 39.1053 15.2309C39.1053 16.6342 39.1053 17.9691 39.1053 19.3381ZM18.4437 28.8076C17.086 26.4573 15.1237 25.1339 12.4654 24.8372C12.3855 24.8258 12.26 24.803 12.2372 24.746C12.009 24.2212 11.8037 23.6964 11.5641 23.0917C13.2298 23.548 14.7814 23.9245 16.3102 24.4151C16.9035 24.6091 17.4967 24.9513 17.9417 25.3849C18.6947 26.1379 19.3336 27.0278 20.0409 27.8949C19.4819 28.2143 18.9799 28.4995 18.4437 28.8076ZM40.5086 15.3678C41.4213 15.5161 42.3112 15.6644 43.2011 15.8128C43.2011 17.0107 43.2011 18.1516 43.2011 19.3039C42.2884 19.3039 41.3985 19.3039 40.5086 19.3039C40.5086 17.9919 40.5086 16.7027 40.5086 15.3678Z" fill="#B79950"></path> <path d="M35.3632 32.3102C35.3632 33.9987 36.7323 35.3906 38.4208 35.3906C40.1207 35.402 41.524 34.0102 41.5126 32.2988C41.5126 30.6103 40.1207 29.2412 38.4436 29.2412C36.7551 29.2526 35.3746 30.6331 35.3632 32.3102ZM38.455 34.033C37.5195 34.0444 36.7437 33.28 36.7323 32.3444C36.7209 31.4089 37.4853 30.6331 38.4208 30.6217C39.3563 30.6103 40.1321 31.3747 40.1436 32.3102C40.155 33.2458 39.3906 34.0216 38.455 34.033Z" fill="#B79950"></path> <path d="M11.7808 29.2529C10.0923 29.2529 8.71183 30.6334 8.71183 32.3219C8.71183 34.0219 10.1037 35.4138 11.8151 35.4024C13.4922 35.391 14.8727 33.9991 14.8613 32.3105C14.8613 30.622 13.4694 29.2529 11.7808 29.2529ZM11.8037 30.622C12.7392 30.6334 13.5036 31.4092 13.4922 32.3448C13.4808 33.2803 12.705 34.0447 11.7694 34.0333C10.8339 34.0219 10.0695 33.2461 10.0809 32.3105C10.0923 31.3636 10.8681 30.6106 11.8037 30.622Z" fill="#B79950"></path> </svg> 