<svg xmlns="http://www.w3.org/2000/svg" xmlns:xlink="http://www.w3.org/1999/xlink" version="1.1" x="0px" y="0px" viewBox="0 0 32 40" enable-background="new 0 0 32 32" xml:space="preserve"><g><g><path fill="#000000" d="M18.4,31.3h-4.8l-0.3-2.9c-1.5-0.3-2.9-0.9-4.1-1.7l-2.2,1.8l-3.4-3.4l1.8-2.2c-0.8-1.3-1.4-2.7-1.7-4.1    l-2.9-0.3v-4.8l2.9-0.3c0.3-1.5,0.9-2.9,1.7-4.1L3.5,6.9l3.4-3.4l2.2,1.8c1.3-0.8,2.7-1.4,4.1-1.7l0.3-2.9h4.8l0.3,2.9    c1.5,0.3,2.9,0.9,4.1,1.7l2.2-1.8l3.4,3.4l-1.8,2.2c0.8,1.3,1.4,2.7,1.7,4.1l2.9,0.3v4.8l-2.9,0.3c-0.3,1.5-0.9,2.9-1.7,4.1    l1.8,2.2l-3.4,3.4l-2.2-1.8c-1.3,0.8-2.7,1.4-4.1,1.7L18.4,31.3z M14.9,29.8h2.1l0.3-2.6l0.6-0.1c1.7-0.3,3.2-0.9,4.6-1.9l0.5-0.3    l2.1,1.7l1.5-1.5l-1.7-2.1l0.3-0.5c1-1.4,1.6-2.9,1.9-4.6l0.1-0.6l2.6-0.3v-2.1l-2.6-0.3L27,14.1c-0.3-1.7-0.9-3.2-1.9-4.6    l-0.3-0.5L26.5,7L25,5.5l-2.1,1.7l-0.5-0.3c-1.4-1-2.9-1.6-4.6-1.9l-0.6-0.1l-0.3-2.6h-2.1l-0.3,2.6L14.1,5    c-1.7,0.3-3.2,0.9-4.6,1.9L9.1,7.2L7,5.5L5.5,7l1.7,2.1L6.9,9.6c-1,1.4-1.6,2.9-1.9,4.6l-0.1,0.6l-2.6,0.3v2.1l2.6,0.3L5,17.9    c0.3,1.7,0.9,3.2,1.9,4.6l0.3,0.5L5.5,25L7,26.5l2.1-1.7l0.5,0.3c1.4,1,2.9,1.6,4.6,1.9l0.6,0.1L14.9,29.8z"/></g><g><path fill="#000000" d="M16,23.4c-4.1,0-7.4-3.3-7.4-7.4s3.3-7.4,7.4-7.4c4.1,0,7.4,3.3,7.4,7.4S20.1,23.4,16,23.4z M16,10.1    c-3.3,0-5.9,2.6-5.9,5.9s2.6,5.9,5.9,5.9c3.3,0,5.9-2.6,5.9-5.9S19.3,10.1,16,10.1z"/></g></g><text x="0" y="47" fill="#000000" font-size="5px" font-weight="bold" font-family="'Helvetica Neue', Helvetica, Arial-Unicode, Arial, Sans-serif">Created by Creative Stall</text><text x="0" y="52" fill="#000000" font-size="5px" font-weight="bold" font-family="'Helvetica Neue', Helvetica, Arial-Unicode, Arial, Sans-serif">from the Noun Project</text></svg>