<svg width="488" height="158" viewBox="0 0 407 132" fill="none" xmlns="http://www.w3.org/2000/svg"><g clip-path="url(#clip0_2_2)"><path fill-rule="evenodd" clip-rule="evenodd" d="M357.578 78.1836C363.23 81.2734 367 86.418 368.371 92.7617C368.887 95.5078 369.742 98.7656 370.086 100.141C371.285 103.57 368.371 110.602 364.43 114.891C353.293 126.551 332.902 123.293 326.223 108.887C323.652 103.398 323.48 94.3086 325.879 88.8164C331.191 76.4688 345.41 71.8359 357.578 78.1836ZM8.90234 1.17188C5.82031 1.34375 2.90625 2.02734 2.21875 2.54297C0.679684 3.91406 0.507808 66.1758 2.21875 67.7227C3.07812 68.5781 14.043 68.75 46.5977 68.75H89.9453V105.801L86.8633 108.027C79.3242 113.859 79.4961 123.465 87.5469 128.438C96.1133 133.758 108.109 124.836 105.367 115.062C104.512 112.145 100.055 106.828 98.5117 106.828C98 106.828 97.6562 98.9375 97.6562 87.7891V68.75H221.707V84.1875C221.707 98.082 221.875 99.7969 223.246 100.996C224.617 102.195 227.016 102.539 237.469 102.539H249.977L251.348 107.172C253.918 116.09 261.629 124.324 270.707 127.754C274.648 129.297 277.047 129.469 282.531 129.297C291.098 128.781 297.437 125.867 303.262 119.863C307.375 115.402 311.316 108.027 311.316 104.598C311.316 103.055 311.828 102.711 313.887 102.711C316.113 102.711 316.457 103.227 316.969 105.457C318.855 113.688 325.023 121.75 333.074 126.039C338.215 128.781 338.902 128.953 347.125 128.953C354.836 128.953 356.207 128.609 360.148 126.551C368.715 121.922 374.711 114.891 376.938 106.656L378.137 102.539H387.391V106.312C387.391 112.832 387.562 112.832 396.469 112.832C402.98 112.832 404.523 112.488 405.039 111.457C405.379 110.602 405.551 86.2461 405.551 56.9141C405.551 10.0898 405.379 3.57422 404.18 2.37109C402.98 1.17188 382.766 1 208.684 1C101.77 1 11.9883 1 8.90234 1.17188ZM289.039 76.8125C294.352 78.1836 300.352 84.3594 302.234 90.1914C303.09 92.5898 303.777 97.0508 303.949 99.9648C304.121 108.887 299.148 116.434 290.242 120.207C282.531 123.465 270.707 121.234 264.539 115.574C256.145 107.684 255.801 90.875 263.855 82.3008C270.367 75.4414 278.246 73.7227 289.039 76.8125ZM97.8281 115.746C99.3711 119.176 97.4844 122.266 93.8867 122.266C90.6328 122.266 88.918 120.891 88.918 118.32C88.918 114.547 89.7734 113.688 93.3711 113.688C96.1133 113.688 96.9727 114.031 97.8281 115.746ZM397.668 26.5547C397.668 42.1641 397.5 44.7383 396.301 44.7383C395.102 44.7383 394.93 42.1641 394.93 27.2422C394.93 17.6367 395.27 9.40234 395.613 9.0625C397.328 7.34766 397.668 9.91797 397.668 26.5547ZM397.668 87.2734C397.668 103.227 397.5 105.801 396.301 105.801C395.102 105.801 394.93 103.055 394.93 87.2734C394.93 71.4961 395.102 68.75 396.301 68.75C397.5 68.75 397.668 71.4961 397.668 87.2734ZM385.504 81.7852V94.6484H381.734C377.965 94.6484 377.965 94.4805 377.281 91.3906C375.91 84.0156 369.398 75.6133 361.688 71.1523L357.406 68.5781H385.504V81.7852ZM332.391 70.6367C324.508 74.582 318.34 81.957 315.598 91.0469C314.23 95.6797 312.344 95.5078 310.973 90.707C308.402 81.957 302.578 74.7539 295.039 70.8086L291.098 68.75L313.543 68.5781H335.988L332.391 70.6367ZM266.598 70.6367C259.059 74.4102 252.547 82.4727 250.32 91.0469L249.293 94.6484H229.586V68.9219H270.535L266.598 70.6367ZM390.988 52.9727L397.668 53.6562V61.2031H8.90234V53.4844L13.5273 53.1406C21.582 52.457 384.305 52.457 390.988 52.9727ZM386.191 8.20312C387.047 8.375 387.219 12.6641 387.219 26.5547V44.7383H20.0391V26.7266C20.0391 16.7813 20.2109 8.54688 20.5547 8.375C20.8945 7.85938 383.449 7.85938 386.191 8.20312ZM12.1562 26.7266C12.3281 44.2227 12.3281 44.5664 10.6172 44.5664C8.90234 44.5664 8.90234 44.0508 8.90234 26.3867C8.90234 9.57812 9.07421 8.20312 10.4453 8.54688C11.6445 8.89062 11.8164 10.4336 12.1562 26.7266ZM285.957 93.4492C289.898 97.2227 288.527 103.398 283.559 104.941C278.246 106.828 274.305 103.91 274.305 98.4219C274.305 95.5078 274.82 94.3086 276.535 92.9336C279.789 90.707 283.387 90.707 285.957 93.4492ZM276.703 84.6992C262.141 90.0195 264.195 110.945 279.105 112.66C284.246 113.176 286.645 112.316 290.41 109.23C296.066 104.254 297.266 98.7656 294.18 92.25C290.754 85.5586 283.215 82.3008 276.703 84.6992ZM342.5 84.875C333.418 88.8164 330.164 99.1094 335.473 106.484C341.301 114.547 352.094 115.062 358.262 107.684C364.602 100.141 361.859 89.332 352.438 85.2148C348.152 83.1562 346.441 83.1562 342.5 84.875ZM352.438 92.9336C354.32 94.4766 354.836 98.7656 353.809 101.512C351.922 105.801 345.07 106.828 341.984 103.227C339.242 99.625 340.102 94.1367 343.699 92.25C345.754 91.2188 350.723 91.5625 352.438 92.9336Z" fill="#B79950" stroke="#B79950" stroke-width="2" /></g><defs><clipPath id="clip0_2_2"><rect width="407" height="132" fill="white" /></clipPath></defs></svg>