<?xml version="1.0" encoding="UTF-8"?> <svg xmlns="http://www.w3.org/2000/svg" width="52" height="48" viewBox="0 0 52 48" fill="none"> <path d="M49.9636 32.5242C48.1894 34.3102 46.4034 36.108 44.6174 37.8823C44.3706 38.129 44.3119 38.3053 44.4646 38.6343C44.9464 39.7153 44.6761 40.9843 43.8419 41.8303C43.0076 42.6763 41.7033 42.9583 40.5988 42.4648C40.2816 42.3238 40.1053 42.3825 39.8821 42.6058C38.2723 44.2391 36.6391 45.8606 35.0175 47.4821C34.9235 47.5761 34.8178 47.6818 34.712 47.7758C34.383 48.0343 34.054 48.0461 33.7368 47.7523C33.4665 47.5056 33.4665 47.1061 33.7368 46.7771C33.8308 46.6713 33.9248 46.5773 34.0305 46.4716C35.5698 44.9206 37.1208 43.3813 38.6718 41.842C38.7893 41.7245 38.9421 41.6305 39.1301 41.4778C38.8833 41.3368 38.7306 41.2428 38.5896 41.1605C36.0281 39.774 33.4548 38.3993 30.8933 37.0127C30.623 36.8717 30.4233 36.8835 30.1295 36.9892C29.5303 37.2125 28.884 37.4123 28.2495 37.4358C26.7337 37.4945 25.218 37.4593 23.714 37.4593C22.9972 37.4593 22.3275 37.3065 21.693 36.9422C21.5872 36.8835 21.3875 36.86 21.2817 36.9188C18.5322 38.3875 15.7827 39.868 13.0449 41.3485C13.0097 41.372 12.9862 41.419 12.9392 41.4778C13.9614 42.4883 14.9719 43.5105 15.9824 44.5211C16.6992 45.2378 17.4277 45.9546 18.1327 46.6713C18.5204 47.0591 18.5087 47.5291 18.1444 47.8111C17.8272 48.0578 17.4864 48.0108 17.1104 47.6348C16.2292 46.7653 15.3714 45.8958 14.4902 45.0146C13.6677 44.1921 12.8334 43.3695 12.0109 42.5235C11.8346 42.3355 11.6936 42.312 11.4469 42.4178C10.2719 42.9348 8.97938 42.688 8.12163 41.8185C7.26387 40.949 7.02887 39.68 7.54587 38.5285C7.67512 38.2583 7.60462 38.1173 7.41662 37.9293C5.77161 36.296 4.1266 34.651 2.48159 32.9942C2.35234 32.865 2.21134 32.724 2.11734 32.5712C1.92934 32.2657 1.96458 31.9132 2.25834 31.737C2.46984 31.6077 2.79884 31.6195 3.06909 31.6665C3.22184 31.69 3.36284 31.8897 3.49209 32.019C5.12535 33.6522 6.75862 35.2855 8.39188 36.9188C8.59163 37.1185 8.73263 37.189 9.02638 37.048C9.89588 36.6367 10.6831 36.7072 11.7641 37.189C14.3257 34.6275 16.8872 32.0777 19.4369 29.5162C19.5309 29.4222 19.5897 29.2459 19.5779 29.1049C19.4369 26.5082 19.2842 23.8997 19.1197 21.3029C19.1079 21.1266 18.9552 20.9386 18.8377 20.7859C18.7202 20.6449 18.5674 20.5274 18.4264 20.3981C15.2892 17.2609 12.1636 14.1236 9.02638 10.9981C8.94413 10.9158 8.85013 10.8336 8.72088 10.7161C8.59163 10.8453 8.46238 10.9628 8.34488 11.0803C6.73512 12.6901 5.12535 14.2998 3.50384 15.9096C3.38634 16.0271 3.26884 16.1564 3.12784 16.2621C2.83409 16.4619 2.52859 16.4619 2.27009 16.2269C1.98808 15.9801 1.92933 15.6629 2.14083 15.3456C2.23484 15.2046 2.35234 15.0754 2.48159 14.9579C4.1266 13.3128 5.77161 11.6678 7.41662 10.0346C7.62812 9.83482 7.66337 9.67031 7.54587 9.40006C7.04062 8.26031 7.29912 6.9678 8.15687 6.12179C9.01463 5.27579 10.2954 5.02903 11.3999 5.52254C11.7054 5.65179 11.8581 5.60479 12.0814 5.38154C13.6324 3.81878 15.1834 2.26777 16.7462 0.705005C16.9812 0.470003 17.2397 0.235002 17.4747 0C17.6274 0 17.7919 0 17.9447 0C18.5792 0.470003 18.6027 0.834258 18.0387 1.39826C16.3702 3.06677 14.7134 4.73528 13.0332 6.39205C12.8452 6.58005 12.7864 6.7093 12.9039 6.9913C13.0567 7.3673 13.1389 7.80206 13.1624 8.21331C13.1859 8.49531 13.2682 8.65981 13.4914 8.81256C15.5242 10.2226 17.5569 11.6561 19.5897 13.0778C19.7894 13.2188 20.001 13.3598 20.2242 13.5126C21.6812 11.5621 23.6082 10.5281 26.0052 10.5281C28.414 10.5281 30.3528 11.5856 31.798 13.5243C34.101 11.9028 36.3688 10.3283 38.6248 8.73031C38.7306 8.64806 38.8011 8.46006 38.8246 8.31906C38.9186 7.89606 38.9303 7.44955 39.0831 7.05005C39.2123 6.7328 39.1536 6.5918 38.9421 6.38029C37.2736 4.73528 35.6286 3.07852 33.9718 1.42176C33.396 0.846006 33.4313 0.481755 34.0658 0.0235016C34.2185 0.0235016 34.383 0.0235016 34.5358 0.0235016C34.9823 0.458255 35.4288 0.881258 35.8636 1.32776C37.2148 2.66727 38.5661 4.00678 39.8938 5.36979C40.1288 5.61654 40.3051 5.67529 40.6458 5.53429C41.8326 5.04078 42.9136 5.28754 43.8419 6.14529C44.7114 6.95605 44.9816 8.27206 44.4881 9.37656C44.3354 9.71732 44.4059 9.89357 44.6526 10.1286C46.4386 11.9028 48.2129 13.7006 49.9989 15.4866C49.9989 15.6394 49.9989 15.8039 49.9989 15.9566C49.5289 16.5911 49.1646 16.6146 48.6006 16.0506C46.9556 14.4056 45.3106 12.7606 43.6656 11.1156C43.5481 10.9981 43.4306 10.8923 43.2896 10.7631C43.1604 10.8806 43.0664 10.9628 42.9841 11.0451C39.8351 14.1823 36.6978 17.3314 33.5488 20.4804C33.4548 20.5744 33.3843 20.6919 33.2785 20.7389C32.879 20.9034 32.879 21.2324 32.8555 21.5849C32.7145 24.0877 32.5618 26.6022 32.4325 29.1049C32.4208 29.2929 32.55 29.5515 32.691 29.6925C35.1938 32.207 37.7201 34.7215 40.2463 37.236C41.3626 36.7542 42.1146 36.6955 42.9606 37.095C43.2779 37.2478 43.4189 37.1655 43.6304 36.954C45.2754 35.2972 46.9321 33.6405 48.5889 31.9837C49.1646 31.408 49.5289 31.4432 49.9871 32.0777C49.9636 32.207 49.9636 32.3597 49.9636 32.5242ZM28.2965 36.0375C28.2965 35.8142 28.2965 35.6145 28.2965 35.4265C28.2965 29.7747 28.2965 24.1229 28.2965 18.4711C28.2965 18.2714 28.2965 18.0599 28.32 17.8601C28.3787 17.4959 28.6255 17.3196 28.9663 17.3079C29.307 17.2961 29.5773 17.4606 29.6478 17.8249C29.6948 18.0364 29.6948 18.2596 29.6948 18.4711C29.6948 23.9819 29.6948 29.4927 29.6948 35.0035C29.6948 35.1797 29.6948 35.356 29.6948 35.6262C30.3058 35.1915 30.623 34.6745 30.67 34.0517C30.7758 32.6065 30.8698 31.1612 30.952 29.7042C31.1283 26.7549 31.3163 23.8174 31.469 20.8681C31.5395 19.5639 31.6453 18.2479 31.5865 16.9436C31.516 15.5454 30.8345 14.3821 29.6948 13.3363C29.6948 13.9121 29.7065 14.3703 29.6948 14.8286C29.683 15.3926 29.4128 15.6864 28.9663 15.6629C28.5315 15.6511 28.2965 15.3691 28.2965 14.8286C28.2848 14.1471 28.2848 13.4538 28.3083 12.7723C28.32 12.5256 28.273 12.4081 28.038 12.3258C26.6632 11.8206 25.2885 11.8088 23.9255 12.3493C23.808 12.3963 23.6787 12.6078 23.6787 12.7371C23.6552 13.4656 23.6787 14.2058 23.667 14.9344C23.6552 15.4044 23.3967 15.6629 22.9855 15.6746C22.5507 15.6864 22.2922 15.4044 22.2687 14.8756C22.257 14.4056 22.2687 13.9356 22.2687 13.4538C22.21 13.4186 22.1512 13.3951 22.0925 13.3598C21.9867 13.5126 21.8927 13.6771 21.7752 13.8063C20.706 15.0166 20.236 16.4266 20.33 18.0246C20.565 22.0902 20.8 26.1557 21.035 30.2212C21.1055 31.502 21.1877 32.771 21.2935 34.0517C21.3405 34.6862 21.6577 35.1915 22.2687 35.6145C22.2687 35.3442 22.2687 35.168 22.2687 34.9917C22.2687 29.4809 22.2687 23.9702 22.2687 18.4594C22.2687 18.2479 22.2687 18.0246 22.3157 17.8131C22.3862 17.4606 22.6565 17.2961 22.9972 17.3079C23.338 17.3196 23.5847 17.5076 23.6317 17.8719C23.6552 18.0716 23.6552 18.2714 23.6552 18.4829C23.6552 24.1347 23.6552 29.7865 23.6552 35.4382C23.6552 35.638 23.6552 35.8377 23.6552 36.0492C25.2415 36.0375 26.7337 36.0375 28.2965 36.0375ZM11.2354 11.0686C13.7852 13.6183 16.3819 16.2151 18.9317 18.7649C18.9317 18.6004 18.9434 18.3536 18.9317 18.1186C18.8847 17.1081 18.9669 16.1211 19.3547 15.1811C19.4839 14.8521 19.4252 14.6994 19.1432 14.4996C17.0634 13.0661 14.9954 11.6091 12.9274 10.1638C12.8334 10.0933 12.7277 10.0346 12.7042 10.0111C12.1519 10.4106 11.6584 10.7748 11.2354 11.0686ZM33.0083 18.8354C35.6168 16.2269 38.2136 13.6418 40.7516 11.0921C40.3051 10.7631 39.7998 10.3871 39.2711 10.0111C37.0268 11.5738 34.759 13.1718 32.456 14.7816C33.0905 16.0976 33.1023 17.4724 33.0083 18.8354ZM20.4475 35.7672C19.5779 34.3925 19.9539 32.8297 19.6602 31.3492C17.3572 33.664 15.0777 35.967 12.8099 38.2465C12.9509 38.6813 13.0919 39.1513 13.2447 39.6565C15.6299 38.3523 18.0269 37.0715 20.4475 35.7672ZM38.7306 39.6448C38.8951 39.116 39.0478 38.646 39.1536 38.2935C36.8388 35.9787 34.5593 33.6992 32.2915 31.4315C32.0565 32.8532 32.3855 34.3925 31.5395 35.7672C33.9483 37.0598 36.3453 38.3523 38.7306 39.6448ZM11.7641 8.24856C11.7759 7.40255 11.0826 6.69755 10.2366 6.6858C9.40238 6.67405 8.68563 7.3908 8.67388 8.22506C8.66213 9.05931 9.36713 9.77607 10.2131 9.77607C11.0591 9.77607 11.7524 9.10631 11.7641 8.24856ZM41.7738 9.77607C42.6198 9.76432 43.3249 9.05931 43.3131 8.22506C43.3014 7.3908 42.5728 6.6858 41.7503 6.6858C40.9043 6.69755 40.2228 7.40255 40.2228 8.24856C40.2228 9.10631 40.9161 9.77607 41.7738 9.77607ZM10.2249 38.223C9.37888 38.223 8.67388 38.928 8.67388 39.7623C8.67388 40.5965 9.39063 41.3133 10.2249 41.3133C11.0709 41.3133 11.7641 40.6083 11.7641 39.7623C11.7641 38.9045 11.0709 38.223 10.2249 38.223ZM40.2228 39.7623C40.2228 40.6083 40.9161 41.3133 41.7621 41.3133C42.5963 41.3133 43.3131 40.5965 43.3131 39.7623C43.3131 38.9163 42.6081 38.223 41.7621 38.223C40.9043 38.223 40.2228 38.9045 40.2228 39.7623Z" fill="#B79950"></path> </svg> 