<!-- Generated by IcoMoon.io -->
<svg version="1.1" xmlns="http://www.w3.org/2000/svg" width="1024" height="1024" viewBox="0 0 1024 1024">
<title></title>
<g id="icomoon-ignore">
</g>
<path fill="none" stroke-linejoin="miter" stroke-linecap="butt" stroke-miterlimit="10" stroke-width="21.8803" stroke="#000" d="M746.995 10.94h-472.615c-144.848 0-263.439 121.217-263.439 269.128v461.675c0 147.911 118.591 269.128 263.439 269.128h472.615c144.848 0 263.439-121.217 263.439-269.128v-461.675c0-147.911-118.591-269.128-263.439-269.128z"></path>
<path fill="#000" d="M567.576 340.457h75.706v-113.778h-87.084c-123.406 0-120.78 99.774-120.78 114.653v74.831h-57.326v113.779h57.326c0 124.718 0 265.19 0 265.19h113.341c0 0 0-143.097 0-265.19h75.706l18.817-113.779h-94.523v-56.889c0-12.253 7.002-18.817 18.817-18.817z"></path>
</svg>
