<svg width="297" height="296" viewBox="0 0 297 296" fill="none" xmlns="http://www.w3.org/2000/svg">
<path d="M228.571 56.222L202.452 19.651H157.142V67.27H228.571V56.222ZM194.195 57.746L191.262 46.013L197.372 42.956L193.11 34.437L180.172 40.904L184.377 57.747H166.667V29.175H197.548L217.958 57.746H194.195Z" fill="#B79950"/>
<path d="M66.667 119.651C58.791 119.651 52.381 126.061 52.381 133.937C52.381 141.813 58.791 148.223 66.667 148.223C74.543 148.223 80.953 141.813 80.953 133.937C80.953 126.061 74.543 119.651 66.667 119.651ZM66.667 138.699C64.043 138.699 61.905 136.566 61.905 133.937C61.905 131.308 64.043 129.175 66.667 129.175C69.291 129.175 71.429 131.308 71.429 133.937C71.429 136.566 69.29 138.699 66.667 138.699Z" fill="#B79950"/>
<path d="M228.571 119.651C220.695 119.651 214.285 126.061 214.285 133.937C214.285 141.813 220.695 148.223 228.571 148.223C236.447 148.223 242.857 141.813 242.857 133.937C242.857 126.061 236.448 119.651 228.571 119.651ZM228.571 138.699C225.947 138.699 223.809 136.566 223.809 133.937C223.809 131.308 225.947 129.175 228.571 129.175C231.195 129.175 233.333 131.308 233.333 133.937C233.333 136.566 231.195 138.699 228.571 138.699Z" fill="#B79950"/>
<path d="M247.62 243.461H296.443L295.124 237.642C290.253 216.18 270.272 200.604 247.619 200.604C230.59 200.604 215.162 209.652 206.671 224.414H121.9C117.029 215.947 109.833 209.443 101.4 205.366H127.129L141.415 214.89H185.715V167.271H290.477V157.747H251.853C256.967 152.742 260.453 146.109 261.524 138.699H280.953C292.758 138.699 295.239 130.928 295.239 124.413V81.556C295.239 69.751 285.606 59.285 277.349 57.889L258.316 53.127C253.521 51.913 250.749 50.041 246.735 45.456L222.802 11.956C216.662 4.103 209.629 0.602997 200 0.602997H109.524C99.891 0.602997 92.857 4.103 86.6 12.122L63.071 45.099C58.795 50.023 55.533 52.261 51.595 53.051L22.838 57.846C9.181 60.689 0 72.131 0 86.318V119.651C0 129.975 8.724 138.699 19.048 138.699H33.715C36.039 154.823 49.91 167.27 66.667 167.27H141.415L127.129 176.794H0V186.318H130.014L144.3 176.794H176.19V205.365H144.3L130.014 195.841H0V205.365H59.867C46.767 211.546 36.7 223.26 33.453 237.646L32.139 243.46H80.953V252.984H32.133L33.452 258.803C38.323 280.265 58.304 295.841 80.952 295.841C97.981 295.841 113.409 286.793 121.9 272.031H206.676C215.166 286.793 230.595 295.841 247.624 295.841C270.3 295.841 290.281 280.265 295.134 258.798L296.439 252.984H247.62V243.461ZM228.571 157.746C215.442 157.746 204.761 147.065 204.761 133.936C204.761 120.807 215.442 110.126 228.571 110.126C241.7 110.126 252.381 120.807 252.381 133.936C252.381 147.064 241.7 157.746 228.571 157.746ZM33.714 129.173H19.048C13.976 129.174 9.524 124.721 9.524 119.65V95.84H19.048V105.364H28.572V95.84C28.572 89.697 25.191 86.316 19.048 86.316H9.524C9.524 74.535 17.405 68.702 24.595 67.202L53.319 62.412C59.533 61.164 64.6 57.855 70.543 50.988L94.229 17.817C98.61 12.212 102.758 10.127 109.524 10.127H200C206.762 10.127 210.91 12.213 215.171 17.656L239.261 51.346C243.932 56.717 248.356 60.432 255.985 62.36L275.385 67.198C279.452 67.898 285.714 74.369 285.714 81.555V86.317H276.19V95.841H285.714V124.412C285.714 128.502 285.047 129.174 280.952 129.174H261.523C259.199 113.05 245.328 100.603 228.571 100.603C211.814 100.603 197.942 113.051 195.619 129.174H157.143V118.317L181.719 110.127H195.238V100.603H184.857L180.862 80.622L171.524 82.493L175.462 102.183L152.752 109.754L149.247 108.002L153.657 99.183L132.886 83.607L129.619 67.269H152.381V19.651H107.071L80.952 56.222V67.27H119.904L123.242 83.96L105.994 94.312L94.284 78.698L86.665 84.412L103.527 106.898L128.275 92.05L141.58 102.031L136.466 112.26L147.618 117.831V129.174H99.618C97.294 113.05 83.423 100.603 66.666 100.603C49.909 100.603 36.037 113.05 33.714 129.173ZM91.567 57.746L111.977 29.175H142.858V57.746H91.567ZM66.667 157.746C53.538 157.746 42.857 147.064 42.857 133.936C42.857 120.807 53.538 110.126 66.667 110.126C79.796 110.126 90.477 120.807 90.477 133.936C90.477 147.066 79.796 157.746 66.667 157.746ZM89.948 157.746C95.062 152.741 98.548 146.108 99.619 138.698H147.619H157.143H195.619C196.686 146.108 200.171 152.741 205.29 157.746H89.948ZM283.967 262.508C278.105 276.422 263.462 286.318 247.619 286.318C233.238 286.318 220.276 278.209 213.79 265.151L212.476 262.508H116.095L114.781 265.151C108.295 278.208 95.333 286.318 80.952 286.318C65.128 286.318 50.49 276.423 44.614 262.508H90.476V233.937H44.61C50.467 220.023 65.115 210.127 80.953 210.127C95.334 210.127 108.296 218.237 114.782 231.294L116.096 233.937H212.477L213.791 231.294C220.277 218.237 233.239 210.127 247.62 210.127C263.444 210.127 278.087 220.022 283.963 233.937H238.096V262.508H283.967Z" fill="#B79950"/>
<path d="M128.572 243.461H119.048V252.985H128.572V243.461Z" fill="#B79950"/>
<path d="M147.619 243.461H138.095V252.985H147.619V243.461Z" fill="#B79950"/>
<path d="M166.667 186.318H157.143V195.842H166.667V186.318Z" fill="#B79950"/>
<path d="M33.334 157.746H23.81V167.27H33.334V157.746Z" fill="#B79950"/>
<path d="M14.286 157.746H4.76202V167.27H14.286V157.746Z" fill="#B79950"/>
</svg>
