<?xml version="1.0" encoding="UTF-8"?>
<!DOCTYPE svg PUBLIC "-//W3C//DTD SVG 1.1//EN" "http://www.w3.org/Graphics/SVG/1.1/DTD/svg11.dtd">
<!-- Creator: CorelDRAW 2020 (64-Bit) -->
<svg xmlns="http://www.w3.org/2000/svg" xml:space="preserve" width="3780px" height="5315px" version="1.1" shape-rendering="geometricPrecision" text-rendering="geometricPrecision" image-rendering="optimizeQuality" fill-rule="evenodd" clip-rule="evenodd"
viewBox="0 0 3780 5315.63"
 xmlns:xlink="http://www.w3.org/1999/xlink"
 xmlns:xodm="http://www.corel.com/coreldraw/odm/2003">
 <g id="Слой_x0020_1">
  <metadata id="CorelCorpID_0Corel-Layer"/>
  <g id="лого_військова_пошта_12.0.cdr">
   <path fill="#779066" d="M288.48 112.61l3216.08 0c73.86,0 134.12,60.27 134.12,134.14l0 3484.69c0,56.41 -35.53,99.03 -85.6,125.02l-1607.97 835c-30.87,16.04 -66.17,16.04 -97.04,0l-1608.1 -835.01c-50.1,-26.01 -85.62,-68.55 -85.62,-125.03l0 -3484.67c0,-73.88 60.26,-134.14 134.13,-134.14z"/>
   <path fill="#2B2A29" d="M1884.71 1816.19l-371.39 -214.51c-8.69,-5 -13.65,-13.61 -13.65,-23.62l0 -452.8c0,-10 4.96,-18.63 13.65,-23.61 8.66,-5.04 18.59,-5.04 27.27,0l74.66 43.1 269.49 155.58c8.69,5 18.62,5 27.3,0l276.37 -159.56 0 0 67.78 -39.12c8.68,-5.04 18.61,-5.04 27.28,0 8.68,4.98 13.65,13.61 13.65,23.61l0 451.59c0,10 -4.94,18.58 -13.6,23.61l-371.46 215.67c-8.7,5.06 -18.65,5.06 -27.35,0.06zm-199.27 -226.55c66.45,38.37 132.81,76.74 199.3,115.17 8.69,4.98 18.62,4.98 27.3,0 66.35,-38.34 132.57,-76.66 198.86,-114.94 8.7,-5 13.67,-13.63 13.65,-23.67 -0.02,-10.04 -5.02,-18.65 -13.72,-23.65l-76.3 -43.68c-8.71,-5 -13.72,-13.61 -13.72,-23.63 -0.03,-10.04 4.95,-18.67 13.63,-23.67l42.2 -24.39c8.64,-4.98 18.54,-5 27.21,-0.03l55.5 31.79c8.68,4.97 18.6,4.97 27.26,-0.07 8.65,-5.02 13.59,-13.61 13.59,-23.59l0 -189.92 -11.79 6.81 0 -0.91 -276.37 159.56c-8.68,5 -18.61,5 -27.3,0l-269.49 -155.61 0 0.94 -18.67 -10.79 0 189.4c0,10.05 4.98,18.68 13.7,23.67 8.72,5.02 18.69,4.96 27.37,-0.11l54.07 -31.62c8.69,-5.11 18.69,-5.14 27.43,-0.09l41.96 24.22c8.64,5.01 13.61,13.58 13.63,23.55 0.03,9.98 -4.88,18.6 -13.51,23.65l-75.92 44.41c-8.63,5.06 -13.54,13.63 -13.5,23.64 0.03,9.96 4.98,18.54 13.63,23.56zm0 -563.06l199.3 -115.06c8.69,-5 18.62,-5 27.3,0l199.29 115.06c8.68,5.01 13.65,13.62 13.65,23.66 0,9.98 -4.97,18.59 -13.65,23.59l-42.1 24.32c-8.67,5.02 -18.6,5.02 -27.28,0l-129.91 -75.01c-8.68,-4.99 -18.61,-4.99 -27.3,0l-129.9 75.01c-8.68,5.02 -18.62,5.03 -27.28,0l-42.12 -24.32c-8.67,-5 -13.63,-13.61 -13.63,-23.61 0,-10.02 4.96,-18.63 13.63,-23.64zm722.24 2.59l194.73 -112.43c8.68,-5 18.61,-5 27.3,0 8.68,5.04 13.64,13.61 13.64,23.63l0 48.4c0,10.03 -4.96,18.63 -13.64,23.65l-194.76 112.43c-8.68,5.02 -18.61,5.02 -27.27,0 -8.69,-5.02 -13.65,-13.61 -13.65,-23.63l0 -48.39c0,-10.04 4.96,-18.62 13.65,-23.66zm0 189.08l194.73 -112.46c8.68,-4.98 18.61,-4.98 27.3,0 8.68,5.02 13.64,13.61 13.64,23.64l0 48.41c0,10.02 -4.96,18.61 -13.64,23.63l-194.76 112.42c-8.68,5.04 -18.61,5.04 -27.27,0 -8.69,-5.02 -13.65,-13.61 -13.65,-23.62l0 -48.39c0,-10.02 4.96,-18.65 13.65,-23.63zm0 194.8l194.73 -112.42c8.68,-5.01 18.61,-5.01 27.3,0 8.68,5.01 13.64,13.62 13.64,23.62l0 48.39c0,10.03 -4.96,18.65 -13.64,23.64l-194.76 112.45c-8.68,5 -18.61,5 -27.27,0 -8.69,-5 -13.65,-13.61 -13.65,-23.63l0 -48.41c0,-10.03 4.96,-18.62 13.65,-23.64zm-1023.09 -383.88l-194.75 -112.43c-8.69,-5 -18.62,-5 -27.28,0 -8.68,5.04 -13.65,13.61 -13.65,23.63l0 48.4c0,10.03 4.97,18.63 13.65,23.65l194.73 112.43c8.69,5.02 18.62,5.02 27.3,0 8.68,-5.02 13.63,-13.61 13.63,-23.63l0 -48.39c0,-10.04 -4.95,-18.62 -13.63,-23.66zm0 189.08l-194.75 -112.46c-8.69,-4.98 -18.62,-4.98 -27.28,0 -8.68,5.02 -13.65,13.61 -13.65,23.64l0 48.41c0,10.02 4.97,18.61 13.65,23.63l194.73 112.42c8.69,5.04 18.62,5.04 27.3,0 8.68,-5.02 13.63,-13.61 13.63,-23.62l0 -48.39c0,-10.02 -4.95,-18.65 -13.63,-23.63zm0 194.8l-194.75 -112.42c-8.69,-5.01 -18.62,-5.01 -27.28,0 -8.68,5.01 -13.65,13.62 -13.65,23.62l0 48.39c0,10.03 4.97,18.65 13.65,23.64l194.73 112.45c8.69,5 18.62,5 27.3,0 8.68,-5 13.63,-13.61 13.63,-23.63l0 -48.41c0,-10.03 -4.95,-18.62 -13.63,-23.64zm-275.84 -670.16l1575.53 0c70.99,0 128.8,57.79 128.8,128.78l0 585.26c0,51.69 -30.6,92.41 -74.71,116.56l-787.73 431.88c-33.81,18.5 -74.36,18.5 -108.18,0l-787.8 -431.88c-44.11,-24.17 -74.69,-64.85 -74.69,-116.56l0 -585.26c0,-71.01 57.77,-128.78 128.78,-128.78z"/>
   <path fill="#2B2A29" d="M492.59 463.3l0 3132.12c0,9.2 5.52,15.63 13.65,19.95l1382.61 735.1c5.11,2.7 10.35,2.7 15.45,0l1382.5 -735.1c8.12,-4.32 13.64,-10.73 13.64,-19.95l0 -3132.12c0,-11.76 -9.64,-21.39 -21.38,-21.39l-2765.09 0c-11.73,0 -21.38,9.63 -21.38,21.39zm-164.4 -112.76c0,-40.23 32.78,-73.03 73.04,-73.03l2990.57 0c40.27,0 73.05,32.8 73.05,73.03l0 3322.09c0,30.51 -19.57,53.98 -46.63,68.09l-1495.23 778.84c-16.56,8.62 -36.26,8.62 -52.82,0l-1495.36 -778.84c-27.06,-14.11 -46.62,-37.58 -46.62,-68.09l0 -3322.09z"/>
   <path fill="#2B2A29" fill-rule="nonzero" d="M630.78 2895.8l131.16 0c80.62,0 136.91,-55.53 136.91,-130.84l0 -31.17c0,-41.79 -17.36,-77.21 -47.02,-100.74 -3.14,-2.48 -4.87,-5.89 -5.05,-9.91 -0.16,-4.02 1.27,-7.52 4.19,-10.29 24.25,-22.8 38.75,-54.9 38.75,-92.04l0 -29.67c0,-73.76 -56.29,-127.76 -136.91,-127.76l-122.03 0c-7.36,0 -13.36,5.98 -13.36,13.34l0 505.7c0,7.36 6,13.38 13.36,13.38zm125.07 -228.18c27.38,0 41.07,22.04 41.07,50.97l0 45.62c0,27.4 -13.69,47.93 -41.07,47.93l-23.13 0c-7.36,0 -13.38,-6.02 -13.38,-13.36l0 -117.78c0,-7.4 6.02,-13.38 13.38,-13.38l23.13 0zm-9.13 -220.6c27.39,0 41.07,20.54 41.07,47.18l0 38.8c0,29.63 -13.68,50.94 -41.07,50.94l-14 0c-7.36,0 -13.38,-6 -13.38,-13.36l0 -110.17c0,-7.35 6.02,-13.39 13.38,-13.39l14 0zm199.72 448.78l75.19 0c7.36,0 13.36,-6.02 13.36,-13.38l0 -505.7c0,-7.36 -6,-13.34 -13.36,-13.34l-75.19 0c-7.36,0 -13.36,5.98 -13.36,13.34l0 505.7c0,7.36 6,13.38 13.36,13.38zm218.76 -8.85l66.71 -184.75c2.23,-6.16 8.43,-9.73 14.88,-8.62 6.46,1.14 11.07,6.64 11.07,13.16l0 175.68c0,7.36 6,13.38 13.36,13.38l75.19 0c7.36,0 13.37,-6.02 13.37,-13.38l0 -505.7c0,-7.36 -6.01,-13.34 -13.37,-13.34l-60.93 0c-5.72,0 -10.61,3.39 -12.56,8.79l-67.47 185.91c-2.23,6.16 -8.43,9.75 -14.88,8.63 -6.45,-1.16 -11.06,-6.61 -11.06,-13.17l0 -176.82c0,-7.36 -6,-13.34 -13.36,-13.34l-75.19 0c-7.36,0 -13.36,5.98 -13.36,13.34l0 505.7c0,7.36 6,13.38 13.36,13.38l61.67 0c5.75,0 10.62,-3.43 12.57,-8.85zm406.8 -145.86l0 33.78c0,29.64 -16.74,44.86 -35,44.86 -20.52,0 -35.74,-14.45 -35.74,-44.11l0 -292.09c0,-28.88 15.22,-44.09 35.74,-44.09 18.26,0 35,15.21 35,44.09l0 34.57c0,7.36 6,13.38 13.36,13.38l75.19 0c7.36,0 13.36,-6.02 13.36,-13.38l0 -22.39c0,-84.44 -58.55,-139.96 -136.91,-139.96 -79.1,0 -136.9,55.52 -136.9,139.96l0 267.75c0,84.41 57.8,139.93 136.9,139.93 78.36,0 136.91,-55.52 136.91,-139.93l0 -22.37c0,-7.37 -6,-13.39 -13.36,-13.39l-75.19 0c-7.36,0 -13.36,6.02 -13.36,13.39zm628.1 154.71l79.15 0c4.56,0 8.47,-2.06 11.04,-5.85 2.57,-3.77 3.07,-8.18 1.41,-12.41l-98.98 -252.29c-1.25,-3.22 -1.27,-6.38 -0.06,-9.6l88 -234.21c1.59,-4.23 1.06,-8.61 -1.53,-12.31 -2.58,-3.71 -6.47,-5.75 -10.99,-5.75l-78.6 0c-5.72,0 -10.59,3.39 -12.54,8.77l-49.22 134.73c-2.23,6.14 -8.45,9.72 -14.88,8.56 -6.45,-1.13 -11.04,-6.63 -11.04,-13.17l0 -125.55c0,-7.36 -6.02,-13.34 -13.38,-13.34l-75.19 0c-7.36,0 -13.36,5.98 -13.36,13.34l0 505.7c0,7.36 6,13.38 13.36,13.38l75.19 0c7.36,0 13.38,-6.02 13.38,-13.38l0 -149.11c0,-6.51 4.56,-11.99 10.97,-13.17 6.41,-1.16 12.61,2.36 14.9,8.43l59.86 158.58c2,5.29 6.83,8.65 12.51,8.65zm373.33 -132.34l0 -267.75c0,-84.44 -58.55,-139.96 -136.9,-139.96 -79.11,0 -136.91,55.52 -136.91,139.96l0 267.75c0,84.41 57.8,139.93 136.91,139.93 78.35,0 136.9,-55.52 136.9,-139.93zm-101.91 11.41c0,29.64 -16.74,44.86 -34.99,44.86 -20.55,0 -35.75,-14.45 -35.75,-44.11l0 -292.09c0,-28.88 15.2,-44.09 35.75,-44.09 18.25,0 34.99,15.21 34.99,44.09l0 291.34zm154.85 120.93l131.14 0c80.63,0 136.92,-55.53 136.92,-130.84l0 -31.17c0,-41.79 -17.36,-77.21 -47.02,-100.74 -3.16,-2.48 -4.89,-5.89 -5.05,-9.91 -0.18,-4.02 1.27,-7.52 4.2,-10.29 24.22,-22.8 38.73,-54.9 38.73,-92.04l0 -29.67c0,-73.76 -56.28,-127.76 -136.91,-127.76l-122.01 0c-7.36,0 -13.38,5.98 -13.38,13.34l0 505.7c0,7.36 6.02,13.38 13.38,13.38zm125.06 -228.18c27.39,0 41.07,22.04 41.07,50.97l0 45.62c0,27.4 -13.68,47.93 -41.07,47.93l-23.15 0c-7.36,0 -13.36,-6.02 -13.36,-13.36l0 -117.78c0,-7.4 6,-13.38 13.36,-13.38l23.15 0zm-9.13 -220.6c27.37,0 41.07,20.54 41.07,47.18l0 38.8c0,29.63 -13.7,50.94 -41.07,50.94l-14.02 0c-7.36,0 -13.36,-6 -13.36,-13.36l0 -110.17c0,-7.35 6,-13.39 13.36,-13.39l14.02 0zm255.97 437.68l11.37 -65.29c1.12,-6.47 6.61,-11.09 13.16,-11.09l74.21 0c6.52,0 11.97,4.57 13.15,10.98l11.97 65.55c1.18,6.41 6.62,10.95 13.14,10.95l77.21 0c4.18,0 7.79,-1.74 10.42,-4.97 2.62,-3.27 3.55,-7.16 2.64,-11.26l-110.52 -505.69c-1.36,-6.2 -6.7,-10.5 -13.06,-10.5l-84.18 0c-6.37,0 -11.72,4.3 -13.07,10.52l-109.81 505.69c-0.9,4.09 0.03,7.99 2.66,11.24 2.62,3.23 6.21,4.97 10.4,4.97l77.13 0c6.58,0 12.06,-4.63 13.18,-11.1zm74.52 -273.16l17.36 97.4c0.71,4.04 -0.29,7.81 -2.91,10.95 -2.65,3.13 -6.17,4.79 -10.26,4.79l-34.31 0c-4.08,0 -7.59,-1.65 -10.24,-4.77 -2.63,-3.15 -3.62,-6.9 -2.93,-10.92l16.95 -97.41c1.13,-6.43 6.6,-11.04 13.15,-11.06 6.56,-0.02 12.04,4.56 13.19,11.02zm-1791.35 -367.05l0 75.19c0,7.38 -6,13.37 -13.36,13.37l-102.97 0c-7.36,0 -13.38,-5.99 -13.38,-13.37l0 -75.19c0,-7.36 6.02,-13.34 13.38,-13.34l102.97 0c7.36,0 13.36,5.98 13.36,13.34zm432.31 651.98l75.19 0 55.63 0c80.64,0 136.91,-55.52 136.91,-130.83l0 -31.16c0,-75.6 -25.05,-149.86 -152.11,-149.86l-14.01 0c-6.36,0 -11.7,-4.48 -13.06,-10.43l0 -196.77c0,-7.36 -6,-13.36 -13.36,-13.36l-75.19 0c-7.54,0 -13.7,5.71 -13.7,13.36l0 505.69c0,7.63 6.16,13.36 13.7,13.36zm88.55 -94.1l0 -123.64c1.36,-5.95 6.7,-10.45 13.06,-10.45l23.13 0c27.39,0 41.07,22.06 41.07,50.98l0 45.63c0,27.38 -13.68,47.93 -41.07,47.93l-23.13 0c-6.36,0 -11.7,-4.47 -13.06,-10.45zm792.21 533.16l17.35 97.42c0.72,4.02 -0.29,7.79 -2.91,10.93 -2.63,3.13 -6.18,4.8 -10.26,4.8l-34.29 0c-4.08,0 -7.61,-1.66 -10.24,-4.78 -2.64,-3.11 -3.65,-6.86 -2.95,-10.88l16.96 -97.41c1.12,-6.47 6.6,-11.06 13.14,-11.1 6.56,-0.02 12.06,4.61 13.2,11.02zm-74.52 273.2l11.36 -65.31c1.12,-6.45 6.61,-11.08 13.16,-11.08l74.21 0c6.52,0 11.99,4.56 13.15,10.97l11.97 65.52c1.18,6.4 6.64,10.99 13.16,10.99l77.19 0c4.2,0 7.79,-1.73 10.43,-4.98 2.63,-3.29 3.54,-7.18 2.65,-11.24l-110.54 -505.71c-1.34,-6.22 -6.72,-10.52 -13.06,-10.52l-84.18 0c-6.36,0 -11.72,4.32 -13.07,10.54l-109.81 505.69c-0.88,4.07 0.03,7.99 2.66,11.24 2.62,3.27 6.23,4.98 10.41,4.98l77.14 0c6.56,0 12.04,-4.63 13.17,-11.09zm-90.61 -521.36l-234.14 0c-7.35,0 -13.36,6.02 -13.36,13.36l0 56.93c0,7.36 6,13.38 13.36,13.38l53.12 0c7.36,0 13.37,6.01 13.37,13.38l0 422.02c0,7.34 6.02,13.38 13.38,13.38l74.42 0c7.36,0 13.36,-6.04 13.36,-13.38l0 -422.02c0,-7.37 6,-13.38 13.38,-13.38l53.11 0c7.38,0 13.38,-6.02 13.38,-13.38l0 -56.93c0,-7.34 -6.04,-13.36 -13.38,-13.36zm-376.82 13.36l0 422.05c0,7.33 -6.02,13.35 -13.38,13.35l-36.39 0c-7.34,0 -13.36,-5.99 -13.36,-13.35l0 -422.05c0,-7.34 -6.02,-13.36 -13.38,-13.36l-74.41 0c-7.36,0 -13.38,6.02 -13.38,13.36l0 422.05c0,7.33 -6.02,13.35 -13.38,13.35l-36.37 0c-7.36,0 -13.38,-5.99 -13.38,-13.35l0 -422.05c0,-7.34 -6.02,-13.36 -13.36,-13.36l-75.19 0c-7.34,0 -13.36,6.02 -13.36,13.36l0 505.71c0,7.34 6,13.38 13.36,13.38l404.53 0c7.36,0 13.38,-6.04 13.38,-13.38l0 -505.71c0,-7.34 -6.02,-13.36 -13.38,-13.36l-75.19 0c-7.34,0 -13.36,6.04 -13.36,13.36zm-470.82 398.13c0,29.66 -16.74,44.9 -34.98,44.9 -20.55,0 -35.77,-14.46 -35.77,-44.15l0 -292.05c0,-28.92 15.22,-44.13 35.77,-44.13 18.24,0 34.98,15.22 34.98,44.13l0 291.3zm101.91 -11.39l0 -267.77c0,-84.4 -58.56,-139.92 -136.89,-139.92 -79.12,0 -136.93,55.54 -136.93,139.92l0 267.77c0,84.4 57.81,139.94 136.93,139.94 78.33,0 136.89,-55.54 136.89,-139.94zm-486.02 118.97l0 -422.02c0,-7.37 6,-13.38 13.36,-13.38l43.25 0c7.36,0 13.36,6.01 13.36,13.38l0 422.02c0,7.34 6,13.38 13.38,13.38l75.17 0c7.36,0 13.38,-6.04 13.38,-13.38l0 -505.71c0,-7.34 -6.02,-13.36 -13.38,-13.36l-247.08 0c-7.36,0 -13.38,6.02 -13.38,13.36l0 505.71c0,7.34 6.02,13.38 13.38,13.38l75.17 0c7.38,0 13.39,-6.04 13.39,-13.38z"/>
   <path fill="#779066" d="M1162.56 1012.42l194.73 112.43c8.69,5.02 18.62,5.02 27.3,0 8.68,-5.02 13.63,-13.61 13.63,-23.63l0 -48.39c0,-10.04 -4.95,-18.62 -13.63,-23.66l-194.75 -112.43c-8.69,-5 -18.62,-5 -27.28,0 -8.68,5.04 -13.65,13.61 -13.65,23.63l0 48.4c0,10.03 4.97,18.63 13.65,23.65zm222.03 205.83l-194.75 -112.46c-8.69,-4.98 -18.62,-4.98 -27.28,0 -8.68,5.02 -13.65,13.61 -13.65,23.64l0 48.41c0,10.02 4.97,18.61 13.65,23.63l194.73 112.42c8.69,5.04 18.62,5.04 27.3,0 8.68,-5.02 13.63,-13.61 13.63,-23.62l0 -48.39c0,-10.02 -4.95,-18.65 -13.63,-23.63zm0 194.8l-194.75 -112.42c-8.69,-5.01 -18.62,-5.01 -27.28,0 -8.68,5.01 -13.65,13.62 -13.65,23.62l0 48.39c0,10.03 4.97,18.65 13.65,23.64l194.73 112.45c8.69,5 18.62,5 27.3,0 8.68,-5 13.63,-13.61 13.63,-23.63l0 -48.41c0,-10.03 -4.95,-18.62 -13.63,-23.64zm527.45 -389.91l129.91 75.01c8.68,5.02 18.61,5.02 27.28,0l42.1 -24.32c8.68,-5 13.65,-13.61 13.65,-23.59 0,-10.04 -4.97,-18.65 -13.65,-23.66l-199.29 -115.06c-8.68,-5 -18.61,-5 -27.3,0l-199.3 115.06c-8.67,5.01 -13.63,13.62 -13.63,23.64 0,10 4.96,18.61 13.63,23.61l42.12 24.32c8.66,5.03 18.6,5.02 27.28,0l129.9 -75.01c8.69,-4.99 18.62,-4.99 27.3,0zm690.37 -106.4l-194.73 112.43c-8.69,5.04 -13.65,13.62 -13.65,23.66l0 48.39c0,10.02 4.96,18.61 13.65,23.63 8.66,5.02 18.59,5.02 27.27,0l194.76 -112.43c8.68,-5.02 13.64,-13.62 13.64,-23.65l0 -48.4c0,-10.02 -4.96,-18.59 -13.64,-23.63 -8.69,-5 -18.62,-5 -27.3,0zm0 189.05l-194.73 112.46c-8.69,4.98 -13.65,13.61 -13.65,23.63l0 48.39c0,10.01 4.96,18.6 13.65,23.62 8.66,5.04 18.59,5.04 27.27,0l194.76 -112.42c8.68,-5.02 13.64,-13.61 13.64,-23.63l0 -48.41c0,-10.03 -4.96,-18.62 -13.64,-23.64 -8.69,-4.98 -18.62,-4.98 -27.3,0zm0 194.84l-194.73 112.42c-8.69,5.02 -13.65,13.61 -13.65,23.64l0 48.41c0,10.02 4.96,18.63 13.65,23.63 8.66,5 18.59,5 27.27,0l194.76 -112.45c8.68,-4.99 13.64,-13.61 13.64,-23.64l0 -48.39c0,-10 -4.96,-18.61 -13.64,-23.62 -8.69,-5.01 -18.62,-5.01 -27.3,0zm-305.29 276.22l0 -451.59c0,-10 -4.97,-18.63 -13.65,-23.61 -8.67,-5.04 -18.6,-5.04 -27.28,0l-67.78 39.12 -276.37 159.56c-8.68,5 -18.61,5 -27.3,0l-269.49 -155.58 -74.66 -43.1c-8.68,-5.04 -18.61,-5.04 -27.27,0 -8.69,4.98 -13.65,13.61 -13.65,23.61l0 452.8c0,10.01 4.96,18.62 13.65,23.62l371.39 214.51c8.7,5 18.65,5 27.35,-0.06l371.46 -215.67c8.66,-5.03 13.6,-13.61 13.6,-23.61zm-172.57 -10.65c0.02,10.04 -4.95,18.67 -13.65,23.67 -66.29,38.28 -132.51,76.6 -198.86,114.94 -8.68,4.98 -18.61,4.98 -27.3,0 -66.49,-38.43 -132.85,-76.8 -199.3,-115.17 -8.65,-5.02 -13.6,-13.6 -13.63,-23.56 -0.04,-10.01 4.87,-18.58 13.5,-23.64l75.92 -44.41c8.63,-5.05 13.54,-13.67 13.51,-23.65 -0.02,-9.97 -4.99,-18.54 -13.63,-23.55l-41.96 -24.22c-8.74,-5.05 -18.74,-5.02 -27.43,0.09l-54.07 31.62c-8.68,5.07 -18.65,5.13 -27.37,0.11 -8.72,-4.99 -13.7,-13.62 -13.7,-23.67l0 -189.4 18.67 10.79 0 -0.94 269.49 155.61c8.69,5 18.62,5 27.3,0l276.37 -159.56 0 0.91 11.79 -6.81 0 189.92c0,9.98 -4.94,18.57 -13.59,23.59 -8.66,5.04 -18.58,5.04 -27.26,0.07l-55.5 -31.79c-8.67,-4.97 -18.57,-4.95 -27.21,0.03l-42.2 24.39c-8.68,5 -13.66,13.63 -13.63,23.67 0,10.02 5.01,18.63 13.72,23.63l76.3 43.68c8.7,5 13.7,13.61 13.72,23.65z"/>
  </g>
 </g>
</svg>
