<?xml version="1.0" encoding="UTF-8"?> <svg xmlns="http://www.w3.org/2000/svg" width="52" height="48" viewBox="0 0 52 48" fill="none"> <path d="M18.2942 12.3017C18.3204 11.7776 18.3466 11.2928 18.3597 10.8079C18.4384 8.06939 18.5039 5.31773 18.5825 2.57918C18.6218 1.24266 19.6963 0.430266 20.8493 0.836463C21.5569 1.08542 21.9762 1.68817 22.0024 2.48746C22.0941 5.61911 22.1859 8.76385 22.2907 11.8955C22.2907 12.0134 22.3038 12.1183 22.3038 12.2755C24.741 12.2755 27.165 12.2755 29.6546 12.2755C29.6546 11.4762 29.6415 10.6638 29.6546 9.85141C29.6808 8.50179 30.9781 7.61078 32.1967 8.1087C32.9435 8.41007 33.3628 8.99971 33.3759 9.8121C33.389 10.6245 33.3759 11.4369 33.3759 12.3148C33.887 12.3148 34.3456 12.3148 34.8173 12.3148C36.6648 12.3279 37.9751 13.612 37.9882 15.4596C37.9882 18.9057 38.0275 22.3649 37.962 25.811C37.9358 27.6324 37.6869 29.4537 37.5951 31.2881C37.5034 33.0177 37.4641 34.7474 37.451 36.477C37.4248 38.9273 37.451 41.3775 37.4379 43.8278C37.4379 46.016 36.2193 47.2346 34.0442 47.2346C28.685 47.2346 23.3127 47.2346 17.9536 47.2346C15.8046 47.2346 14.5729 46.016 14.5729 43.8671C14.5598 40.2245 14.5729 36.5818 14.5205 32.926C14.4943 31.5764 14.2978 30.2268 14.2323 28.8641C14.1405 27.082 14.0619 25.3 14.0488 23.5311C14.0226 20.8318 14.0357 18.1326 14.0488 15.4333C14.0488 13.612 15.3591 12.3148 17.1805 12.3017C17.5474 12.3017 17.9011 12.3017 18.2942 12.3017ZM26.0382 13.6775C23.1162 13.6775 20.1811 13.6775 17.2591 13.6775C16.106 13.6775 15.4378 14.3458 15.4378 15.512C15.4378 18.1719 15.4115 20.8449 15.4509 23.5049C15.4771 25.2738 15.5426 27.0296 15.6343 28.7985C15.6998 30.1482 15.9095 31.4978 15.9226 32.8605C15.975 36.5425 15.9619 40.2114 15.9881 43.8933C15.9881 45.243 16.617 45.8719 17.9667 45.8719C23.352 45.8719 28.7243 45.8719 34.1097 45.8719C35.4986 45.8719 36.1145 45.2561 36.1145 43.8671C36.1145 40.9713 36.0883 38.0756 36.1276 35.1929C36.1407 33.6729 36.2324 32.1529 36.311 30.633C36.4159 28.7199 36.6124 26.82 36.6386 24.9069C36.691 21.8015 36.6517 18.696 36.6517 15.5906C36.6517 14.3327 35.9966 13.6906 34.7518 13.6906C31.8298 13.6775 28.934 13.6775 26.0382 13.6775ZM20.8362 12.2886C20.8362 11.1486 20.8624 10.0611 20.8362 8.9604C20.7838 6.83769 20.7183 4.71499 20.6397 2.59228C20.6397 2.43504 20.4431 2.27781 20.3514 2.10747C20.2335 2.26471 20.0894 2.42194 19.9845 2.59228C19.9452 2.6578 19.9714 2.74952 19.9714 2.82814C19.8797 5.84186 19.8011 8.86868 19.7094 11.8824C19.7094 12.0003 19.7225 12.1314 19.7356 12.2755C20.1156 12.2886 20.4956 12.2886 20.8362 12.2886ZM32.0263 12.2886C32.0263 11.4369 32.0263 10.6376 32.0263 9.83831C32.0263 9.52384 31.8429 9.30108 31.5415 9.3666C31.3581 9.40591 31.0829 9.64176 31.0698 9.799C31.0174 10.6245 31.0436 11.45 31.0436 12.2886C31.3974 12.2886 31.6725 12.2886 32.0263 12.2886Z" fill="#B79950"></path> <path d="M25.9857 24.6563C23.1292 24.6563 20.2596 24.6563 17.4031 24.6563C16.6301 24.6563 16.4204 24.4466 16.4204 23.6736C16.4204 20.9874 16.4204 18.3144 16.4204 15.6282C16.4204 14.8552 16.6301 14.6455 17.4031 14.6455C23.1554 14.6455 28.9077 14.6455 34.66 14.6455C35.433 14.6455 35.6427 14.8552 35.6427 15.6282C35.6427 18.3144 35.6427 20.9874 35.6427 23.6736C35.6427 24.4466 35.433 24.6563 34.6469 24.6563C31.7642 24.6563 28.8684 24.6563 25.9857 24.6563ZM17.8093 23.2543C23.3127 23.2543 28.7767 23.2543 34.2407 23.2543C34.2407 20.8302 34.2407 18.4323 34.2407 16.0475C28.7504 16.0475 23.2864 16.0475 17.8093 16.0475C17.8093 18.4585 17.8093 20.8433 17.8093 23.2543Z" fill="#B79950"></path> <path d="M19.4737 30.4612C18.9234 30.4612 18.3599 30.4612 17.8096 30.4612C17.2724 30.4481 17.0234 30.2253 17.0103 29.7012C16.9972 28.9674 16.9972 28.2336 17.0103 27.4999C17.0234 27.0282 17.2593 26.753 17.731 26.753C18.871 26.7399 20.0109 26.7399 21.164 26.753C21.6619 26.7661 21.9109 27.0282 21.9109 27.5261C21.924 28.2468 21.924 28.9674 21.9109 29.675C21.8978 30.2253 21.6619 30.4612 21.0854 30.4612C20.5482 30.4612 20.0109 30.4612 19.4737 30.4612ZM18.3992 28.1288C18.3992 28.4695 18.3992 28.7578 18.3992 29.0591C19.1199 29.0591 19.8013 29.0591 20.4957 29.0591C20.4957 28.7316 20.4957 28.4302 20.4957 28.1288C19.7882 28.1288 19.1199 28.1288 18.3992 28.1288Z" fill="#B79950"></path> <path d="M25.9991 30.4616C25.4488 30.4616 24.8853 30.4747 24.335 30.4616C23.8371 30.4485 23.5881 30.2126 23.575 29.7016C23.5619 28.9678 23.5619 28.2341 23.575 27.5003C23.5881 27.0024 23.8371 26.7403 24.335 26.7403C25.4619 26.7272 26.5887 26.7272 27.7156 26.7403C28.2135 26.7534 28.4625 27.0155 28.4756 27.5134C28.4887 28.2472 28.4887 28.9809 28.4756 29.7147C28.4625 30.2126 28.2135 30.4485 27.7156 30.4616C27.1522 30.4747 26.5756 30.4616 25.9991 30.4616ZM27.0866 28.1423C26.3398 28.1423 25.6584 28.1423 24.977 28.1423C24.977 28.4699 24.977 28.7582 24.977 29.0596C25.6977 29.0596 26.3791 29.0596 27.0866 29.0596C27.0866 28.7451 27.0866 28.4568 27.0866 28.1423Z" fill="#B79950"></path> <path d="M32.59 30.4612C32.0527 30.4612 31.5155 30.4612 30.9783 30.4612C30.4148 30.4612 30.1659 30.2253 30.1528 29.675C30.1397 28.9543 30.1397 28.2336 30.1528 27.5261C30.1659 27.0282 30.4017 26.7661 30.8996 26.753C32.0265 26.7399 33.1534 26.7399 34.2803 26.753C34.8044 26.7661 35.0402 27.0282 35.0533 27.5523C35.0664 28.2599 35.0664 28.9543 35.0533 29.6619C35.0533 30.2253 34.8044 30.4612 34.254 30.4743C33.7037 30.4612 33.1403 30.4612 32.59 30.4612ZM33.6644 28.1419C32.9568 28.1419 32.2624 28.1419 31.5679 28.1419C31.5679 28.4695 31.5679 28.7709 31.5679 29.0591C32.2886 29.0591 32.983 29.0591 33.6644 29.0591C33.6644 28.7316 33.6644 28.4433 33.6644 28.1419Z" fill="#B79950"></path> <path d="M19.4606 35.362C18.8841 35.362 18.3206 35.3751 17.7441 35.362C17.2724 35.3489 17.0103 35.113 17.0103 34.6413C16.9972 33.8944 16.9972 33.1344 17.0103 32.3876C17.0234 31.9159 17.2724 31.6538 17.7441 31.6407C18.8841 31.6276 20.024 31.6276 21.1771 31.6407C21.675 31.6538 21.9109 31.9159 21.924 32.4269C21.9371 33.1475 21.9371 33.8682 21.924 34.5758C21.9109 35.113 21.675 35.3489 21.1378 35.3489C20.5744 35.3751 20.0109 35.362 19.4606 35.362ZM18.3992 33.9599C19.133 33.9599 19.8275 33.9599 20.5088 33.9599C20.5088 33.6324 20.5088 33.3572 20.5088 33.0427C19.7882 33.0427 19.1068 33.0427 18.3992 33.0427C18.3992 33.3572 18.3992 33.6455 18.3992 33.9599Z" fill="#B79950"></path> <path d="M26.0253 35.3616C25.4488 35.3616 24.8853 35.3747 24.3088 35.3616C23.8371 35.3485 23.5881 35.1126 23.575 34.6409C23.5619 33.894 23.5619 33.134 23.575 32.3872C23.5881 31.9154 23.8371 31.6534 24.3088 31.6534C25.4488 31.6403 26.5887 31.6403 27.7418 31.6534C28.2397 31.6665 28.4756 31.9285 28.4756 32.4396C28.4887 33.1602 28.4887 33.8809 28.4756 34.5885C28.4625 35.1126 28.2266 35.3616 27.6894 35.3616C27.1391 35.3747 26.5887 35.3616 26.0253 35.3616ZM24.977 33.9464C25.7239 33.9464 26.4053 33.9464 27.0866 33.9464C27.0866 33.6189 27.0866 33.3306 27.0866 33.0423C26.366 33.0423 25.6846 33.0423 24.977 33.0423C24.977 33.3568 24.977 33.6451 24.977 33.9464Z" fill="#B79950"></path> <path d="M32.6159 35.362C32.0393 35.362 31.4759 35.3751 30.8994 35.362C30.4276 35.3489 30.1656 35.113 30.1656 34.6413C30.1525 33.8944 30.1525 33.1344 30.1656 32.3876C30.1787 31.9159 30.4276 31.6538 30.8994 31.6407C32.0393 31.6276 33.1793 31.6276 34.3324 31.6407C34.8303 31.6538 35.0662 31.9159 35.0662 32.4269C35.0793 33.1475 35.0793 33.8682 35.0662 34.5758C35.0531 35.113 34.8172 35.3489 34.28 35.3489C33.7165 35.3751 33.1662 35.362 32.6159 35.362ZM33.651 33.973C33.651 33.6324 33.651 33.3441 33.651 33.0558C32.9303 33.0558 32.2359 33.0558 31.5676 33.0558C31.5676 33.3834 31.5676 33.6848 31.5676 33.973C32.2883 33.973 32.9566 33.973 33.651 33.973Z" fill="#B79950"></path> <path d="M19.4344 40.276C18.8841 40.276 18.3206 40.2891 17.7703 40.276C17.2724 40.2629 17.0103 40.0271 17.0103 39.5292C16.9972 38.7954 16.9972 38.0616 17.0103 37.3278C17.0234 36.8299 17.2724 36.5679 17.7703 36.5547C18.8972 36.5416 20.024 36.5416 21.1509 36.5547C21.6488 36.5679 21.9109 36.8168 21.9109 37.3147C21.924 38.0485 21.924 38.7823 21.9109 39.5161C21.8978 40.014 21.6619 40.2629 21.1509 40.276C20.5744 40.276 20.0109 40.276 19.4344 40.276ZM18.3992 37.9437C18.3992 38.2844 18.3992 38.5726 18.3992 38.874C19.1199 38.874 19.8013 38.874 20.4957 38.874C20.4957 38.5464 20.4957 38.2451 20.4957 37.9437C19.7882 37.9437 19.1199 37.9437 18.3992 37.9437Z" fill="#B79950"></path> <path d="M26.0515 40.276C25.475 40.276 24.9115 40.2891 24.335 40.276C23.8371 40.2629 23.5881 40.0271 23.575 39.5161C23.5619 38.7823 23.5619 38.0485 23.575 37.3147C23.5881 36.8168 23.8371 36.5547 24.335 36.5547C25.4619 36.5416 26.5887 36.5416 27.7156 36.5547C28.2135 36.5679 28.4625 36.8299 28.4756 37.3278C28.4887 38.0616 28.4887 38.7954 28.4756 39.5292C28.4625 40.0271 28.2135 40.2629 27.7156 40.276C27.1653 40.276 26.6018 40.276 26.0515 40.276ZM27.0866 37.9568C26.3529 37.9568 25.6715 37.9568 24.9901 37.9568C24.9901 38.2844 24.9901 38.5857 24.9901 38.874C25.7108 38.874 26.3791 38.874 27.0866 38.874C27.0866 38.5595 27.0866 38.2713 27.0866 37.9568Z" fill="#B79950"></path> <path d="M32.5635 40.2756C32.0131 40.2756 31.4497 40.2887 30.8994 40.2756C30.4276 40.2625 30.1787 40.0267 30.1656 39.555C30.1525 38.8081 30.1525 38.0481 30.1656 37.3012C30.1787 36.8295 30.4276 36.5674 30.8994 36.5674C32.0393 36.5543 33.1793 36.5543 34.3324 36.5674C34.8303 36.5805 35.0662 36.8426 35.0662 37.3536C35.0793 38.0743 35.0793 38.795 35.0662 39.5025C35.0531 40.0267 34.8172 40.2756 34.28 40.2756C33.7034 40.2756 33.1269 40.2756 32.5635 40.2756ZM31.5545 38.8605C32.2883 38.8605 32.9697 38.8605 33.6641 38.8605C33.6641 38.5329 33.6641 38.2577 33.6641 37.9433C32.9566 37.9433 32.2621 37.9433 31.5545 37.9433C31.5545 38.2577 31.5545 38.546 31.5545 38.8605Z" fill="#B79950"></path> <path d="M30.9913 44.8755C30.3885 44.8755 29.7858 44.8886 29.183 44.8755C28.6982 44.8624 28.3969 44.5872 28.3969 44.1941C28.3969 43.7879 28.6982 43.5128 29.183 43.5128C30.3885 43.4997 31.594 43.4997 32.7995 43.5128C33.2843 43.5128 33.5857 43.7879 33.5857 44.1941C33.5857 44.6003 33.2843 44.8755 32.7995 44.8755C32.1968 44.8755 31.594 44.8755 30.9913 44.8755Z" fill="#B79950"></path> </svg> 